<?xml version="1.0" standalone="no"?>
<!DOCTYPE svg PUBLIC "-//W3C//DTD SVG 1.1//EN" "http://www.w3.org/Graphics/SVG/1.1/DTD/svg11.dtd" >
<svg xmlns="http://www.w3.org/2000/svg" xmlns:xlink="http://www.w3.org/1999/xlink" version="1.1">
<metadata>
Created by FontForge 20170731 at Wed Jun  9 16:37:44 2021
 By Aleksey,,,
claudeserieux@gmail.com
</metadata>
<defs>
<font id="CaslonCP" horiz-adv-x="1064" >
  <font-face 
    font-family="CaslonCP"
    font-weight="400"
    font-stretch="normal"
    units-per-em="2048"
    panose-1="2 0 5 3 0 0 0 0 0 0"
    ascent="1638"
    descent="-410"
    x-height="825"
    cap-height="1360"
    bbox="-98 -385 2232 1757"
    underline-thickness="102"
    underline-position="-409"
    unicode-range="U+0020-FB05"
  />
<missing-glyph horiz-adv-x="1024" 
d="M102 0v1092h820v-1092h-820zM205 102h614v887h-614v-887z" />
    <glyph glyph-name=".notdef" horiz-adv-x="1024" 
d="M102 0v1092h820v-1092h-820zM205 102h614v887h-614v-887z" />
    <glyph glyph-name=".null" horiz-adv-x="0" 
 />
    <glyph glyph-name="nonmarkingreturn" horiz-adv-x="682" 
 />
    <glyph glyph-name="space" unicode=" " horiz-adv-x="614" 
 />
    <glyph glyph-name="exclam" unicode="!" horiz-adv-x="577" 
d="M453 158q0 -69 -48 -117.5t-116 -48.5t-116 48.5t-48 117.5t48 117.5t116 48.5t116 -48.5t48 -117.5zM301 393h-25q0 78 -24.5 170.5t-54 167.5t-54 187t-24.5 225q0 37 9 76t28 76.5t53.5 61t79.5 23.5t79.5 -23.5t53.5 -61t28 -76.5t9 -76q0 -113 -24.5 -225
t-54.5 -187t-54.5 -167.5t-24.5 -170.5z" />
    <glyph glyph-name="quotedbl" unicode="&#x22;" horiz-adv-x="647" 
d="M131 821l-35 385q-4 50 -4 70q0 115 86 115t86 -115q0 -20 -4 -70l-35 -385q-6 -61 -47 -61t-47 61zM422 821l-35 385q-4 50 -4 70q0 115 86 115t86 -115q0 -20 -4 -70l-35 -385q-6 -61 -47 -61t-47 61z" />
    <glyph glyph-name="numbersign" unicode="#" horiz-adv-x="1204" 
d="M1024 670v-21h-338l-147 -362l-21 8l146 354h-166l-144 -354l-20 8l141 346h-373v21h381l70 168h-373v20h381l141 350l21 -8l-139 -342h164l139 342l20 -8l-137 -334h332v-20h-340l-68 -168h330zM672 670l67 168h-164l-69 -168h166z" />
    <glyph glyph-name="dollar" unicode="$" horiz-adv-x="1058" 
d="M856 1360l78 184l20 -8l-96 -225l45 -404h-10q-30 94 -113 223l-129 -305q133 -55 195 -102q155 -117 155 -320q0 -108 -54 -207t-154 -163t-220 -64q-139 0 -268 41l-153 -362l-21 8l154 360q-13 5 -37.5 14t-35.5 13.5t-26.5 8t-27.5 3.5q-22 0 -37 -12l-170 -397
l-21 8l162 381v481h10q36 -119 97 -231l133 313q-28 13 -70 39q-94 58 -147.5 136t-53.5 190q0 177 121 304.5t297 127.5q77 0 176 -39l88 209l21 -9l-88 -208l20 -8t20.5 -8.5t18 -7t19 -6.5t16 -4.5t17.5 -3.5t16 -1q13 0 26 12.5t20 25.5zM352 588l-139 -328
q53 -90 111 -151l176 409q-135 63 -148 70zM483 895q53 -26 150 -64l135 320q-59 83 -119 137zM463 905l170 398q-89 73 -174 73q-84 0 -136.5 -58.5t-52.5 -154.5q0 -93 49 -152t138 -104zM518 510l-178 -418q111 -108 242 -108q87 0 139.5 72.5t52.5 168.5q0 119 -110 201
q-39 29 -146 84z" />
    <glyph glyph-name="percent" unicode="%" horiz-adv-x="1212" 
d="M365 719q65 0 84.5 69t19.5 273t-19.5 274t-84.5 70q-23 0 -38.5 -6.5t-27 -25t-18 -41.5t-10 -66t-4.5 -88t-1 -117t1 -117t4.5 -87.5t10 -65.5t18 -41t27 -24.5t38.5 -6.5zM365 1413q83 0 147 -52.5t95.5 -131.5t31.5 -168t-31.5 -168.5t-95.5 -132.5t-147 -53
t-147.5 53t-96 132.5t-31.5 168.5q0 139 75.5 245.5t199.5 106.5zM848 18q65 0 84.5 69t19.5 273q0 205 -19.5 275t-84.5 70q-64 0 -81 -68t-17 -277t17 -275.5t81 -66.5zM848 713q83 0 147 -52.5t95.5 -132t31.5 -168.5t-31.5 -168.5t-95.5 -132.5t-147 -53t-147.5 53
t-96 132.5t-31.5 168.5t31.5 168.5t96 132t147.5 52.5zM172 -10l-33 20l897 1401l33 -20z" />
    <glyph glyph-name="ampersand" unicode="&#x26;" horiz-adv-x="1654" 
d="M1642 274q0 -81 -49 -143t-124 -92.5t-160 -30.5q-180 0 -342 176q-94 -87 -195 -133.5t-227 -46.5q-116 0 -219 44t-169.5 130.5t-66.5 196.5q0 134 71.5 225t209.5 156q-123 123 -123 293q0 118 55.5 206.5t145.5 132.5t200 44q114 0 211.5 -84.5t97.5 -202.5
q0 -99 -68 -175.5t-159 -109.5q120 -72 233 -174.5t187 -210.5q72 104 72 266q0 69 -51.5 113.5t-129.5 46.5v12h500v-10q-60 0 -109.5 -31t-86.5 -84.5t-65 -107.5t-61 -119.5t-59 -101.5q11 -17 33.5 -58.5t41.5 -75t48 -74.5t56.5 -69t63.5 -47.5t73 -19.5
q63 0 98.5 38.5t66.5 120.5zM709 872q77 31 114 110t37 183q0 99 -61 175.5t-150 76.5q-90 0 -139 -61.5t-49 -155.5q0 -95 63.5 -175t184.5 -153zM393 735q-47 -45 -47 -164q0 -73 15.5 -143t46.5 -132t74.5 -109.5t104 -75t130.5 -27.5q136 0 231 119q-36 41 -90.5 113
t-98.5 124.5t-85 83.5q-30 23 -133.5 97t-147.5 114z" />
    <glyph glyph-name="quotesingle" unicode="'" horiz-adv-x="454" 
d="M180 821l-35 385q-4 50 -4 70q0 115 86 115t86 -115q0 -20 -4 -70l-35 -385q-6 -61 -47 -61t-47 61z" />
    <glyph glyph-name="parenleft" unicode="(" horiz-adv-x="741" 
d="M334 672q0 -130 11 -257t37.5 -257.5t66 -230t103 -165.5t142.5 -73v-15q-86 0 -176.5 51.5t-170.5 146t-143.5 216.5t-100.5 275t-37 309q0 161 42 314t110.5 268.5t153 204t173 135t166.5 46.5v-10q-74 -5 -133.5 -49.5t-100 -119.5t-69.5 -166.5t-44.5 -201
t-22.5 -212t-7 -209.5z" />
    <glyph glyph-name="parenright" unicode=")" horiz-adv-x="741" 
d="M408 672q0 107 -7 209.5t-22.5 212t-44.5 201t-69.5 166.5t-100 119.5t-133.5 49.5v10q78 0 166.5 -46.5t173 -135t153 -204t110.5 -268.5t42 -314q0 -131 -26.5 -260t-72 -237.5t-107 -202.5t-131 -159t-145 -102t-147.5 -37v15q79 7 142.5 73t103.5 165.5t66.5 230
t37.5 257.5t11 257z" />
    <glyph glyph-name="asterisk" unicode="*" horiz-adv-x="884" 
d="M248 467q0 23 8.5 42.5t27.5 35t35 26t45 26.5t44 26q0 1 -1 2t-1 2q-20 -10 -57 -32.5t-59.5 -32t-43.5 -9.5q-42 0 -68 26.5t-26 65.5q0 41 24 66.5t72 25.5q19 0 41 -9.5t58.5 -31t58.5 -32.5q0 1 1 2t1 2q-15 10 -41.5 24.5t-44 25.5t-36 26t-27.5 33.5t-9 41.5
q0 39 31.5 65.5t66.5 26.5q48 0 76 -51q14 -27 14 -86v-39q0 -33 2 -49h2h2q0 8 1 23t1 22t-1 21t-1 20q0 60 17 90q26 47 80 47q35 0 65.5 -24.5t30.5 -61.5q0 -23 -8.5 -42t-27 -35t-35 -26.5t-45.5 -26t-44 -25.5q0 -1 1 -2t1 -2q19 10 57 32.5t60 31.5t43 9
q42 0 68 -26.5t26 -65.5q0 -41 -24 -66.5t-72 -25.5q-19 0 -41 9.5t-58 31t-59 33.5q0 -1 -1 -2t-1 -2q15 -10 42 -25t44 -25.5t35.5 -26t27.5 -34t9 -41.5q0 -39 -31.5 -65.5t-66.5 -26.5q-48 0 -76 51q-15 29 -15 86v39q0 33 -2 49h-2h-2q0 -8 -1 -23t-1 -22t1 -21t1 -20
q0 -61 -16 -90q-26 -47 -80 -47q-35 0 -65.5 24.5t-30.5 61.5z" />
    <glyph glyph-name="plus" unicode="+" horiz-adv-x="1187" 
d="M510 528v361h168v-361h360v-168h-360v-360h-168v360h-360v168h360z" />
    <glyph glyph-name="comma" unicode="," horiz-adv-x="530" 
d="M229 326q76 0 127.5 -61.5t51.5 -141.5q0 -68 -29 -131t-76.5 -109t-100.5 -80t-108 -53v17q52 18 90.5 54.5t38.5 88.5q0 31 -15 55t-36.5 41t-43.5 35.5t-37 48t-15 68.5q0 69 44 118.5t109 49.5z" />
    <glyph glyph-name="hyphen" unicode="-" horiz-adv-x="679" 
d="M86 360v168h508v-168h-508z" />
    <glyph glyph-name="period" unicode="." horiz-adv-x="487" 
d="M401 158q0 -69 -47.5 -117.5t-115.5 -48.5t-116 48.5t-48 117.5t48 117.5t116 48.5t115.5 -48.5t47.5 -117.5z" />
    <glyph glyph-name="slash" unicode="/" horiz-adv-x="851" 
d="M-66 -238l-32 21l975 1790l32 -21z" />
    <glyph glyph-name="zero" unicode="0" horiz-adv-x="1228" 
d="M614 -4q45 0 77 13t56 47.5t38.5 82.5t23 129t11.5 176t3 234t-3 234.5t-11.5 177t-23 130.5t-38.5 84t-56 48.5t-77 13.5q-34 0 -59.5 -7.5t-46.5 -26.5t-35 -44t-24.5 -69t-16.5 -91.5t-10 -120.5t-5 -147.5t-1 -181.5q0 -143 2 -234t9.5 -175.5t20.5 -130t35.5 -81
t54 -48.5t76.5 -13zM614 1384q101 0 190 -40t154 -108.5t111.5 -158.5t70 -192t23.5 -207t-23.5 -207t-70 -192t-111.5 -159t-154 -109t-190 -40q-126 0 -231.5 61.5t-173.5 162t-105.5 226t-37.5 257.5t37.5 257.5t105.5 226t173.5 161.5t231.5 61z" />
    <glyph glyph-name="one" unicode="1" horiz-adv-x="942" 
d="M635 1372v-1220q0 -67 54.5 -101.5t127.5 -34.5v-16h-653v16q73 0 127.5 34.5t54.5 101.5v956q0 44 -25.5 63t-91.5 19h-90v12q243 51 496 170z" />
    <glyph glyph-name="two" unicode="2" horiz-adv-x="1128" 
d="M137 946q7 80 47 158.5t101 140.5t146.5 100.5t176.5 38.5q172 0 295 -118t123 -287q0 -86 -31.5 -155.5t-84.5 -118t-119 -89t-140.5 -77t-142 -72t-130 -84.5t-99.5 -104h509q181 9 230 116h14q-80 -164 -143 -454h-8q-12 59 -88 59h-697q7 54 31 107.5t52 95.5
t74.5 92.5t81.5 83.5t91 85t86 81q101 99 155 185t54 183q0 99 -75 172.5t-177 73.5q-112 0 -198 -57t-124 -156h-10z" />
    <glyph glyph-name="three" unicode="3" horiz-adv-x="1114" 
d="M207 1065q0 85 54 158.5t140.5 116t182.5 42.5q133 0 236.5 -97.5t103.5 -217.5q0 -141 -121 -250q82 -55 142.5 -144.5t60.5 -195.5q0 -139 -73 -254t-194.5 -179t-263.5 -64q-61 0 -119.5 10.5t-113 33t-95.5 55.5t-65.5 81t-24.5 106q0 56 42 99t100 43
q62 0 105.5 -38.5t55.5 -113.5q6 -37 11 -60.5t14.5 -55.5t21.5 -52t29.5 -39.5t42.5 -29t56 -9.5q50 0 87.5 28t57.5 75.5t29.5 99.5t9.5 109q0 144 -99 252.5t-233 134.5v12q113 23 183.5 86.5t70.5 161.5q0 92 -69 155.5t-164 63.5q-139 0 -193 -123h-8z" />
    <glyph glyph-name="four" unicode="4" horiz-adv-x="1155" 
d="M877 506h237l-53 -141h-184v-189q0 -79 48.5 -119.5t172.5 -40.5v-16h-733v16q105 0 165 43.5t60 116.5v189h-500l-51 77l768 918h70v-854zM590 506v485l-414 -485h414z" />
    <glyph glyph-name="five" unicode="5" horiz-adv-x="1091" 
d="M856 1360q33 0 62 15.5t40 35.5h13l-109 -358h-575l-19 -115q242 0 394 -57q151 -58 239 -167.5t88 -262.5q0 -204 -132.5 -335.5t-342.5 -131.5q-73 0 -144 17t-132 49t-98.5 85.5t-37.5 120.5q0 61 43.5 103t100.5 42q58 0 106 -47.5t58 -97.5q25 -122 48 -167
q43 -83 128 -83q81 0 126.5 71.5t45.5 166.5q0 124 -71 218.5t-187.5 142.5t-259.5 48q-45 0 -68 -2q38 115 69 269.5t40.5 221.5t29.5 218h545z" />
    <glyph glyph-name="six" unicode="6" horiz-adv-x="1169" 
d="M967 1368q-421 -139 -514 -608q123 84 252 84q169 0 289 -120.5t120 -289.5q0 -130 -68.5 -238t-182 -168.5t-245.5 -60.5q-147 0 -269 77t-190.5 206t-68.5 278q0 137 35 256t92 203.5t135.5 152.5t158.5 110t169 69q206 63 270 63q5 0 17 -4v-10zM444 717
q-22 -135 -22 -309q0 -53 2 -93.5t8 -92.5t19.5 -89.5t33.5 -71.5t53 -51.5t76 -17.5q35 0 62 12.5t45.5 33t31.5 57t20.5 72.5t11.5 92t5 104t1 120q0 136 -50 219.5t-151 83.5q-77 0 -146 -69z" />
    <glyph glyph-name="seven" unicode="7" horiz-adv-x="1130" 
d="M1022 1360l25 -98q-104 -140 -181 -336q-164 -418 -164 -926h-368q26 267 173.5 540t389.5 513h-547q-174 0 -225 -101h-12q99 242 149 408h760z" />
    <glyph glyph-name="eight" unicode="8" horiz-adv-x="1148" 
d="M780 827q51 40 66.5 92.5t15.5 133.5q0 80 -24.5 149.5t-78.5 117.5t-128 48q-106 0 -160.5 -60t-54.5 -149q0 -34 5.5 -62.5t19 -53t27.5 -43.5t38.5 -37t43.5 -31t52.5 -28.5t55.5 -25t61 -25.5t61 -26zM322 684q-162 123 -162 320q0 115 65.5 203t170.5 132.5
t231 44.5q85 0 169 -38.5t142.5 -113.5t58.5 -165q0 -152 -188 -252q113 -56 188.5 -154.5t75.5 -201.5q0 -214 -140 -345.5t-386 -131.5q-87 0 -168.5 26t-146 73t-103.5 120t-39 159q0 113 61 190.5t171 133.5zM344 670q-53 -62 -70.5 -139.5t-17.5 -190.5
q0 -137 82.5 -239.5t210.5 -102.5q250 0 250 260q0 58 -21.5 105.5t-54 79.5t-82 63.5t-95 53.5t-104 52.5t-98.5 57.5z" />
    <glyph glyph-name="nine" unicode="9" horiz-adv-x="1134" 
d="M168 -16q186 82 323 244.5t191 363.5q-42 -29 -88.5 -40t-122.5 -11q-170 0 -293 117t-123 284q0 128 67.5 231t172 157t221.5 54q139 0 261 -77t194.5 -206.5t72.5 -277.5q0 -98 -22 -188t-56.5 -159t-84.5 -131t-99 -105.5t-106 -82t-101 -61t-88 -41.5
q-85 -36 -175 -61t-128 -25q-4 0 -16 4v11zM690 635q31 190 31 309q0 49 -0.5 80.5t-4.5 80.5t-11 81t-20.5 69t-32.5 59t-48.5 37t-66.5 15t-65 -13t-47 -40.5t-31.5 -63.5t-19.5 -90t-9.5 -111t-2.5 -135q0 -150 56.5 -240.5t159.5 -90.5q28 0 48.5 7t31.5 16t32 30z" />
    <glyph glyph-name="colon" unicode=":" horiz-adv-x="634" 
d="M481 158q0 -69 -48 -117.5t-116 -48.5t-115.5 48.5t-47.5 117.5t47.5 117.5t115.5 48.5t116 -48.5t48 -117.5zM481 682q0 -69 -48 -117.5t-116 -48.5t-115.5 48.5t-47.5 117.5t47.5 117.5t115.5 48.5t116 -48.5t48 -117.5z" />
    <glyph glyph-name="semicolon" unicode=";" horiz-adv-x="645" 
d="M313 326q76 0 127.5 -61.5t51.5 -141.5q0 -68 -29 -131t-76.5 -109t-100.5 -80t-108 -53v17q52 18 90.5 54.5t38.5 88.5q0 31 -15 55t-37 41t-43.5 35.5t-36.5 48t-15 68.5q0 69 44 118.5t109 49.5zM481 682q0 -69 -48 -117.5t-116 -48.5t-115.5 48.5t-47.5 117.5
t47.5 117.5t115.5 48.5t116 -48.5t48 -117.5z" />
    <glyph glyph-name="less" unicode="&#x3c;" horiz-adv-x="679" 
d="M512 848l10 -10l-137 -355l141 -350l-10 -10l-362 360z" />
    <glyph glyph-name="equal" unicode="=" horiz-adv-x="1105" 
d="M956 827v-168h-806v168h806zM956 438v-168h-806v168h806z" />
    <glyph glyph-name="greater" unicode="&#x3e;" horiz-adv-x="679" 
d="M168 848l358 -365l-362 -360l-10 10l141 350l-137 355z" />
    <glyph glyph-name="question" unicode="?" horiz-adv-x="980" 
d="M381 387q-38 243 -119 428l53 33q81 -96 236 -96q122 0 203.5 93.5t81.5 221.5q0 97 -68.5 166.5t-165.5 69.5q-48 0 -85 -16.5t-63 -49t-41 -61t-32 -72.5q-46 -121 -143 -121q-61 0 -104.5 41t-43.5 100q0 81 53 142t131 89.5t166 28.5q129 0 240.5 -64t177.5 -172
t66 -233q0 -105 -44.5 -196.5t-127 -149t-183.5 -57.5q-24 0 -45.5 3t-48 8.5t-45.5 8.5v-143zM584 158q0 -69 -48 -117.5t-116 -48.5t-116 48.5t-48 117.5t48 117.5t116 48.5t116 -48.5t48 -117.5z" />
    <glyph glyph-name="at" unicode="@" horiz-adv-x="1318" 
d="M721 838q-45 0 -92 -69.5t-76 -171.5t-29 -194q0 -25 16.5 -42t41.5 -17q33 0 69 35t66 94q71 139 71 277q0 33 -19 60.5t-48 27.5zM911 371l2 -2q0 -35 48 -35q19 0 48.5 21.5t62.5 62t56 113.5t23 161q0 132 -105 208.5t-266 76.5q-220 0 -371 -144t-151 -354
q0 -152 89 -238.5t226 -86.5q18 0 33.5 1.5t32.5 6.5t26.5 7.5t29 12.5t25.5 13t30 17t30 17q10 7 17 7q10 0 10 -11q0 -8 -12 -16q-66 -47 -131 -73.5t-148 -26.5q-162 0 -269.5 110t-107.5 273q0 114 54.5 213.5t143 165.5t202 103.5t231.5 37.5q117 0 223 -39t178 -121
t72 -190q0 -149 -104.5 -258t-241.5 -109q-70 0 -109.5 44.5t-50.5 106.5q-24 -34 -34.5 -47.5t-38 -42.5t-58 -42t-65.5 -13q-72 0 -130.5 69t-58.5 158q0 138 107 237t248 99q44 0 75 -17t57 -33.5t58 -16.5q29 0 52.5 15.5t33.5 31.5q5 8 16 8q9 0 9 -6
q-97 -356 -97 -475z" />
    <glyph glyph-name="A" unicode="A" horiz-adv-x="1466" 
d="M20 14q48 0 97 36.5t90.5 96.5t73 120.5t57.5 125.5l225 565q-27 46 -78 80v11q76 60 122 141.5t91 206.5h11l491 -1196q33 -82 94 -134.5t152 -52.5v-14h-696v14q149 0 149 92q0 24 -20 64l-99 248h-409l-21 -49q-16 -40 -16 -148q0 -84 51 -145.5t131 -61.5v-14h-496
v14zM573 932l-192 -486h389z" />
    <glyph glyph-name="B" unicode="B" horiz-adv-x="1318" 
d="M543 705v-558q3 -128 94 -131h88q102 0 166.5 93.5t64.5 257.5q0 338 -305 338h-108zM543 1339v-614h84q145 1 210.5 84.5t65.5 241.5q0 123 -57.5 211t-171.5 88q-72 0 -131 -11zM53 1360h494q24 0 99 4t122 4q108 0 204 -35t161 -109.5t65 -174.5q0 -122 -84.5 -207.5
t-210.5 -118.5q89 -14 170 -60t137 -126.5t56 -176.5q0 -105 -63 -189t-161 -127.5t-208 -43.5h-781v14q73 0 128 34.5t55 101.5v1058q0 67 -55.5 103.5t-127.5 36.5v12z" />
    <glyph glyph-name="C" unicode="C" horiz-adv-x="1417" 
d="M1264 793q0 50 -31 124t-86 151.5t-121.5 144.5t-146 110t-150.5 43q-72 0 -130 -41.5t-94.5 -108.5t-61 -156t-34.5 -177.5t-10 -180.5q0 -74 3 -139t13 -140.5t26 -136.5t43.5 -119.5t64 -98.5t89.5 -64t118 -24q77 0 157 42t142 105t112 134.5t76.5 134.5t26.5 100h14
v-529h-14q-2 38 -21 70.5t-53 32.5q-28 0 -66 -16.5t-75.5 -36t-114.5 -36t-174 -16.5q-157 0 -291 58.5t-225 158t-142 233t-51 281.5q0 137 63 266t161 220t221 145.5t241 54.5q86 0 166 -19t127 -42t91.5 -42t68.5 -19q32 0 50 27.5t18 66.5h14v-561h-14z" />
    <glyph glyph-name="D" unicode="D" horiz-adv-x="1513" 
d="M1118 682q0 152 -27 271.5t-70 193t-101.5 122t-116 67t-119.5 18.5q-68 0 -141 -15v-1192q3 -128 94 -131h88q68 0 123 17.5t107 63t86.5 118.5t55.5 191.5t21 275.5zM778 0h-725v14q73 0 128 34.5t55 101.5v1058q0 67 -55.5 103.5t-127.5 36.5v12h494q164 10 268 10
q118 0 233 -51.5t205.5 -140t146.5 -220t56 -280.5q0 -306 -187 -492t-491 -186z" />
    <glyph glyph-name="E" unicode="E" horiz-adv-x="1392" 
d="M604 694q127 0 228.5 95.5t101.5 220.5h14v-688h-14q0 83 -47 165t-124.5 134.5t-158.5 52.5h-61v-522q0 -68 44 -102t113 -34h95q92 0 198 58.5t196.5 167t125.5 235.5h16l-96 -477h-1182v14q73 0 128 34.5t55 101.5v1058q0 67 -55.5 103.5t-127.5 36.5v12h1041
l147 -373h-12q-48 72 -104.5 132t-126.5 111.5t-155 81t-175 29.5h-125v-647h61z" />
    <glyph glyph-name="F" unicode="F" horiz-adv-x="1271" 
d="M756 16v-16h-703v14q73 0 128 34.5t55 101.5v1058q0 67 -55.5 103.5t-127.5 36.5v12h1065l135 -383h-12q-59 81 -112.5 139.5t-122.5 113t-149.5 83t-170.5 28.5h-143v-647h61q127 0 228.5 95.5t101.5 220.5h14v-688h-14q0 83 -47 165t-124.5 134.5t-158.5 52.5h-61v-522
q0 -68 44 -102t113 -34h56z" />
    <glyph glyph-name="G" unicode="G" horiz-adv-x="1476" 
d="M1309 842q-25 86 -92 187t-154 185q-163 160 -291 160q-180 0 -272 -174q-92 -173 -92 -526q0 -62 2.5 -117t9 -118t19.5 -116t31 -106t46 -93.5t63.5 -72t84 -48.5t106.5 -17q110 0 192 76t82 182v207q0 64 -51 98.5t-143 34.5v16h606v-16q-49 0 -82 -43t-33 -117v-424
h-41l-75 109q-118 -65 -227 -102.5t-236 -37.5q-144 0 -275.5 57t-226.5 152.5t-151 227.5t-56 276q0 145 57 276t153.5 225.5t229 150t277.5 55.5q89 0 175 -19t138.5 -42.5t97.5 -42.5t62 -19q30 0 48 27t18 61h14v-512h-14z" />
    <glyph glyph-name="H" unicode="H" horiz-adv-x="1603" 
d="M1550 0h-671v16q73 0 127.5 34.5t54.5 101.5v555h-518v-555q0 -67 54.5 -101.5t127.5 -34.5v-16h-672v16q73 0 128 34.5t55 101.5v1054q0 67 -55.5 103.5t-127.5 36.5v14h672v-14q-72 0 -127 -36.5t-55 -103.5v-465h518v465q0 67 -55 103.5t-127 36.5v14h671v-14
q-72 0 -127 -36.5t-55 -103.5v-1054q0 -67 54.5 -101.5t127.5 -34.5v-16z" />
    <glyph glyph-name="I" unicode="I" horiz-adv-x="778" 
d="M543 1206v-1054q0 -67 54.5 -101.5t127.5 -34.5v-16h-672v16q73 0 128 34.5t55 101.5v1054q0 67 -55.5 103.5t-127.5 36.5v14h672v-14q-72 0 -127 -36.5t-55 -103.5z" />
    <glyph glyph-name="J" unicode="J" horiz-adv-x="970" 
d="M451 152v1054q0 67 -55.5 103.5t-127.5 36.5v14h662v-14q-72 0 -127 -36.5t-55 -103.5v-755q0 -211 -113.5 -342.5t-325.5 -131.5q-112 0 -198 61t-86 161q0 54 38.5 92.5t92.5 38.5q60 0 100.5 -46.5t40.5 -109.5q0 -18 -1 -47t-1 -47q0 -34 23 -57t57 -23q46 0 61 36
t15 116z" />
    <glyph glyph-name="K" unicode="K" horiz-adv-x="1527" 
d="M858 1346v14h506v-14q-83 0 -177.5 -56.5t-166.5 -142.5l-197 -227l482 -785q39 -63 87.5 -91t114.5 -28v-16h-497l-402 666l-53 -62v-452q0 -67 54.5 -101.5t127.5 -34.5v-16h-671v16q73 0 127.5 34.5t54.5 101.5v1054q0 67 -55 103.5t-127 36.5v14h671v-14
q-72 0 -127 -36.5t-55 -103.5v-571l387 452q41 46 41 134q0 56 -31.5 90.5t-93.5 34.5z" />
    <glyph glyph-name="L" unicode="L" horiz-adv-x="1339" 
d="M543 1208v-1056q0 -68 44 -102t113 -34h95q90 0 194.5 67t191 182.5t122.5 244.5h16l-78 -510h-1188v14q73 0 128 34.5t55 101.5v1058q0 67 -55.5 103.5t-127.5 36.5v12h672v-12q-72 0 -127 -36.5t-55 -103.5z" />
    <glyph glyph-name="M" unicode="M" horiz-adv-x="1785" 
d="M1733 1360v-14q-72 0 -127.5 -36.5t-55.5 -103.5v-1054q0 -67 55 -101.5t128 -34.5v-16h-672v16q72 0 126.5 34.5t55.5 101.5l14 1159l-516 -1317h-16l-471 1136v-829q0 -128 63 -206.5t156 -78.5v-16h-459v16q73 0 146 82t73 203v885q-66 160 -182 160v14h457l381 -950
l371 950h473z" />
    <glyph glyph-name="N" unicode="N" horiz-adv-x="1579" 
d="M1339 -59l-1036 1200v-840q0 -128 63 -206.5t156 -78.5v-16h-459v16q73 0 146.5 82t73.5 203v864q-44 72 -117 126.5t-146 54.5v14h517l782 -916v615q0 121 -73 202.5t-146 81.5v17h459v-17q-93 0 -156.5 -78.5t-63.5 -205.5v-1118z" />
    <glyph glyph-name="O" unicode="O" horiz-adv-x="1548" 
d="M776 -2q69 0 124.5 23t92.5 59.5t64 93.5t42 113t23.5 131t10.5 133.5t2 134.5q0 75 -2.5 134t-11 134t-23.5 131t-42 113t-64 93.5t-93 59.5t-125 23t-124.5 -23t-93 -59.5t-64.5 -93.5t-41.5 -113t-23 -131t-11 -134t-2.5 -134t2.5 -134.5t11 -134t23.5 -130.5
t42.5 -113t64.5 -93.5t93 -59.5t125 -23zM774 1395q145 0 277.5 -56t229 -150.5t153.5 -226t57 -276.5t-57 -276.5t-153.5 -226t-229 -150.5t-277.5 -56t-277.5 56t-229 150.5t-153.5 226t-57 276.5t57 276.5t153.5 226t229 150.5t277.5 56z" />
    <glyph glyph-name="P" unicode="P" horiz-adv-x="1239" 
d="M543 150q0 -67 54.5 -101.5t127.5 -34.5v-14h-672v14q73 0 128 34.5t55 101.5v1058q0 67 -55.5 103.5t-127.5 36.5v12h494q24 0 99 1t122 1q113 0 211.5 -50.5t158.5 -142.5t60 -202q0 -96 -37.5 -165t-110 -110.5t-171 -61t-228.5 -20.5h-108v-460zM543 1339v-708h84
q260 3 260 370q0 78 -23.5 156t-74 135.5t-115.5 57.5q-72 0 -131 -11z" />
    <glyph glyph-name="Q" unicode="Q" horiz-adv-x="1548" 
d="M774 1395q145 0 277.5 -56t229 -150.5t153.5 -226t57 -276.5t-57 -276.5t-153.5 -226t-229 -150.5t-277.5 -56h-8q29 -11 108 -42.5t119.5 -46.5t101.5 -35.5t107.5 -29.5t83.5 -9q84 0 144 51t75 131h8q-10 -103 -83.5 -182t-179.5 -117.5t-224 -38.5q-90 0 -179.5 30
t-162 72.5t-142.5 85.5t-147.5 73t-150.5 30q-46 0 -81.5 -35.5t-37.5 -77.5h-10q0 87 90 149t248 68q-179 90 -287.5 259t-108.5 374q0 145 57 276.5t153.5 226t229 150.5t277.5 56zM776 -2q69 0 124.5 23t92.5 59.5t64 93.5t42 113t23.5 131t10.5 133.5t2 134.5
q0 75 -2.5 134t-11 134t-23.5 131t-42 113t-64 93.5t-93 59.5t-125 23t-124.5 -23t-93 -59.5t-64.5 -93.5t-41.5 -113t-23 -131t-11 -134t-2.5 -134t2.5 -134.5t11 -134t23.5 -130.5t42.5 -113t64.5 -93.5t93 -59.5t125 -23z" />
    <glyph glyph-name="R" unicode="R" horiz-adv-x="1515" 
d="M559 1339v-673h84q142 1 201 86.5t59 248.5q0 78 -23.5 156t-74 135.5t-115.5 57.5q-72 0 -131 -11zM1495 0h-465l-272 526q-61 117 -170 119h-29v-495q0 -67 54.5 -101.5t127.5 -34.5v-14h-671v14q73 0 127.5 34.5t54.5 101.5v1058q0 67 -55 103.5t-127 36.5v12h493
q24 0 99 1t122 1q105 0 197.5 -48t149.5 -132t57 -183q0 -136 -81.5 -227.5t-236.5 -118.5q74 -23 150 -79t113 -121l167 -303q81 -136 195 -136v-14z" />
    <glyph glyph-name="S" unicode="S" horiz-adv-x="1118" 
d="M938 907q-14 46 -42.5 104.5t-72 123t-92.5 118t-109.5 88.5t-117.5 35q-84 0 -136.5 -58.5t-52.5 -154.5q0 -93 49 -152t138 -104q26 -13 174 -74t215 -110q156 -118 156 -320q0 -108 -54.5 -207t-154.5 -163t-220 -64q-85 0 -159.5 13.5t-115.5 29.5t-79.5 29.5
t-60.5 13.5q-23 0 -39.5 -13t-20.5 -36h-6v510h10q15 -51 38.5 -110t68 -137t95.5 -139t125 -103.5t153 -42.5q87 0 139.5 72.5t52.5 168.5q0 119 -110 201q-57 43 -201.5 109.5t-200.5 101.5q-94 58 -147.5 136t-53.5 190q0 177 121 304.5t297 127.5q62 0 126.5 -21.5
t115.5 -43t82 -21.5q20 0 33 15.5t16 35.5h10l41 -453h-10z" />
    <glyph glyph-name="T" unicode="T" horiz-adv-x="1384" 
d="M1178 1360q28 0 53 11.5t26 27.5h11l100 -484h-12q-36 122 -121 221t-188.5 152t-200.5 53v-1189q0 -67 54.5 -101.5t127.5 -34.5v-16h-672v16q73 0 128 34.5t55 101.5v1189q-97 0 -200.5 -53t-188.5 -152t-121 -221h-13l101 484h10q1 -16 26.5 -27.5t53.5 -11.5h971z
" />
    <glyph glyph-name="U" unicode="U" horiz-adv-x="1568" 
d="M1309 444v615q0 121 -73 202.5t-146 81.5v17h458v-17q-93 0 -156 -78t-63 -206v-625q0 -182 -92 -307q-130 -180 -467 -180q-138 0 -263.5 52t-207.5 151.5t-82 222.5v833q0 67 -55 103.5t-127 36.5v14h672v-14q-72 0 -127.5 -36.5t-55.5 -103.5v-768
q0 -235 108.5 -341.5t309.5 -106.5q84 0 158.5 43t126.5 119q82 121 82 292z" />
    <glyph glyph-name="V" unicode="V" horiz-adv-x="1536" 
d="M756 -78l-555 1284q-32 75 -75 107.5t-108 32.5v14h721v-14q-63 0 -120.5 -30.5t-57.5 -80.5l8 -35l351 -817l227 563q35 92 35 139q0 100 -54.5 179t-128.5 79v17h519v-17q-56 0 -107 -29t-91 -79.5t-70 -105.5t-56 -121z" />
    <glyph glyph-name="W" unicode="W" horiz-adv-x="1980" 
d="M1315 1343q-76 0 -108.5 -23t-32.5 -75q0 -45 20 -98l268 -727l174 498q23 70 23 247q0 69 -56.5 123.5t-113.5 54.5v17h473v-17q-55 0 -107.5 -46.5t-86 -104.5t-56.5 -123l-401 -1147l-338 891l-297 -891l-475 1284q-27 73 -72 106.5t-111 33.5v14h617v-14
q-107 0 -107 -111l9 -35l282 -780l146 428l-127 334q-34 88 -69 124.5t-77 36.5v17h623v-17z" />
    <glyph glyph-name="X" unicode="X" horiz-adv-x="1533" 
d="M633 578l-377 628q-26 43 -40.5 63.5t-37.5 41.5t-52 28t-71 7v14h672v-14q-119 0 -119 -66q0 -28 27 -74l209 -350l164 217q19 26 32 65.5t13 78.5q0 56 -32.5 92.5t-102.5 36.5v14h493v-14q-80 0 -188.5 -80.5t-161.5 -153.5l-207 -276l408 -684q81 -136 251 -136v-16
h-751v16q127 0 127 90q0 43 -35 101l-209 348l-184 -246q-53 -68 -53 -149q0 -63 36 -103.5t113 -40.5v-16h-537v16q80 0 200.5 89t187.5 176z" />
    <glyph glyph-name="Y" unicode="Y" horiz-adv-x="1447" 
d="M633 1206l264 -442l174 293q45 74 45 139q0 67 -40 108.5t-95 41.5v14h449v-14q-66 0 -156 -71t-131 -140l-242 -402v-581q0 -67 54.5 -101.5t127.5 -34.5v-16h-671v16q73 0 127.5 34.5t54.5 101.5v507l-346 547q-49 79 -101.5 109.5t-128.5 30.5v14h727v-14
q-133 0 -133 -76q0 -30 21 -64z" />
    <glyph glyph-name="Z" unicode="Z" horiz-adv-x="1333" 
d="M125 952l174 408h975l-862 -1344h125q109 0 221 40t203.5 104t164.5 137t121 147h15l-156 -444h-1081l860 1341h-101q-96 0 -195.5 -35.5t-183.5 -94t-151.5 -124.5t-116.5 -135h-12z" />
    <glyph glyph-name="bracketleft" unicode="[" horiz-adv-x="735" 
d="M637 -272h-516l-8 1890h524v-21q-114 0 -177.5 -40t-66.5 -146v-1477q3 -106 66.5 -146t177.5 -40v-20z" />
    <glyph glyph-name="backslash" unicode="\" horiz-adv-x="851" 
d="M877 -238l-975 1790l32 21l975 -1790z" />
    <glyph glyph-name="bracketright" unicode="]" horiz-adv-x="735" 
d="M98 -272v20q114 0 177.5 40t66.5 146v1477q-3 106 -66.5 146t-177.5 40v21h525l-9 -1890h-516z" />
    <glyph glyph-name="underscore" unicode="_" horiz-adv-x="1024" 
d="M1024 -256h-1024v102h1024v-102z" />
    <glyph glyph-name="grave" unicode="`" horiz-adv-x="587" 
d="M201 1352q59 0 98 -45l207 -277l-10 -14l-320 98q-41 12 -67.5 46t-26.5 79q0 47 35.5 80t83.5 33z" />
    <glyph glyph-name="a" unicode="a" horiz-adv-x="913" 
d="M825 49q18 0 32 8.5t21 16.5t9 8q6 0 6 -4q0 -3 -7 -13t-23.5 -25t-38.5 -29t-56.5 -24t-73.5 -10q-59 0 -104.5 38.5t-54.5 93.5q-43 -36 -66.5 -54t-61 -40.5t-76 -32t-83.5 -9.5q-80 0 -139.5 54.5t-59.5 130.5q0 40 26.5 77.5t64.5 65t95 56t104 46.5t106.5 41
t86.5 35v266q0 31 -24.5 53.5t-58.5 22.5t-82 -41t-48 -90q0 -108 -16 -164q-31 -114 -139 -114q-46 0 -78.5 33t-32.5 83q0 100 178 213q173 107 316 107q90 0 163.5 -49.5t73.5 -120.5v-539q0 -38 11 -64t30 -26zM532 461q-131 -49 -178 -103t-47 -153q0 -55 28.5 -96
t78.5 -41q26 0 49 11t35 22t34 34v326z" />
    <glyph glyph-name="b" unicode="b" horiz-adv-x="1079" 
d="M174 -27h-18v1151q0 39 -48.5 84.5t-89.5 69.5v14q76 9 170.5 32t151.5 42l57 18h13v-677q147 141 278 141q97 0 174 -55t117.5 -142t40.5 -186q0 -129 -61 -242t-169.5 -181.5t-238.5 -68.5q-81 0 -160.5 32.5t-132.5 72.5zM410 682v-449q0 -111 36.5 -177t116.5 -66
q55 0 92 29.5t57 89t28 133.5t8 178q0 51 -13 104.5t-38.5 102.5t-69.5 80.5t-99 31.5q-65 0 -118 -57z" />
    <glyph glyph-name="c" unicode="c" horiz-adv-x="911" 
d="M524 848q79 0 156 -33.5t130.5 -99t53.5 -146.5q0 -65 -34.5 -102t-94.5 -37q-57 0 -92 45t-35 105q0 30 4 75.5t4 73.5q0 38 -33.5 68t-76.5 30q-51 0 -90 -28.5t-60.5 -75.5t-32 -100t-10.5 -111q0 -167 87.5 -263.5t230.5 -96.5q99 0 176 77q11 11 20 23t13.5 17
t7.5 5q10 0 10 -12q0 -29 -16.5 -66t-49.5 -76t-75.5 -72t-100.5 -54t-120 -21q-112 0 -210 54t-158 149.5t-60 208.5q0 192 131.5 327.5t324.5 135.5z" />
    <glyph glyph-name="d" unicode="d" horiz-adv-x="1054" 
d="M563 86q42 0 72.5 39t32.5 76v436q0 70 -47 134.5t-117 64.5q-40 0 -70.5 -16t-49.5 -47.5t-31 -66t-17.5 -83t-7.5 -86t-2 -86.5q0 -67 13.5 -129.5t40.5 -116.5t74.5 -86.5t108.5 -32.5zM680 141q-55 -81 -121 -124.5t-156 -43.5q-149 0 -246.5 119.5t-97.5 278.5
q0 95 31 181.5t87.5 152t141 104.5t185.5 39h164v266q0 33 -51.5 78.5t-96.5 67.5v10q246 55 389 114h13v-1202q3 -47 36.5 -77.5t75.5 -32.5v-13q-213 -24 -342 -94l-12 8v168z" />
    <glyph glyph-name="e" unicode="e" horiz-adv-x="940" 
d="M864 483h-545q2 -139 83 -231t231 -92q60 0 118.5 29t84.5 67q4 5 7.5 12t5.5 10.5t4.5 6t6.5 2.5q12 0 12 -15q-12 -51 -43.5 -103.5t-77 -96.5t-107 -71.5t-126.5 -27.5q-190 0 -320 123t-130 310q0 121 64.5 224.5t163.5 160.5t204 57q98 0 182.5 -53t133 -137
t48.5 -175zM319 502h318q0 332 -137 332q-39 0 -69 -13.5t-49 -39.5t-32 -56.5t-19.5 -70.5t-9 -75t-2.5 -77z" />
    <glyph glyph-name="f" unicode="f" horiz-adv-x="686" 
d="M436 840h178l-41 -101h-143v-587q0 -136 137 -136v-16h-526v16q66 0 98.5 32.5t32.5 103.5v587h-98l235 518q59 127 189 127q70 0 119 -52.5t49 -123.5q0 -52 -30.5 -91.5t-78.5 -39.5q-43 0 -74.5 30.5t-31.5 72.5q0 20 5 51t5 51t-14.5 38.5t-32.5 18.5q-14 0 -33 -22
t-19 -45q0 -51 36.5 -196.5t37.5 -235.5z" />
    <glyph glyph-name="g" unicode="g" horiz-adv-x="897" 
d="M457 868q89 -3 166.5 -34t129.5 -93t52 -143q0 -84 -55.5 -147t-137 -93t-172.5 -30q-35 0 -51 2q-149 -18 -149 -56q0 -14 30 -24t68 -10h287q109 0 180.5 -51t71.5 -140q0 -144 -102 -194t-347 -50q-58 0 -100.5 1.5t-99 9t-92.5 20.5t-61.5 37.5t-25.5 58.5
q0 32 28.5 57t65.5 40q-71 41 -71 116q0 39 27 74t69 59t80.5 39.5t73.5 24.5q-107 27 -176.5 93.5t-69.5 162.5q0 83 54.5 146t135 93t170.5 31q3 98 75 184.5t167 86.5q47 0 76.5 -32.5t29.5 -86.5q0 -51 -26 -83t-70 -32q-33 0 -82 23.5t-82 23.5q-26 0 -45.5 -18.5
t-21.5 -42.5v-23zM440 352q60 0 81.5 61t21.5 185q0 125 -21.5 187.5t-81.5 62.5q-31 0 -52 -17t-31.5 -52.5t-14.5 -77.5t-4 -103q0 -125 21 -185.5t81 -60.5zM188 10q-55 -20 -55 -71q0 -25 10 -44t24 -31.5t40 -21t46 -13t54 -6.5t53 -2.5t54 -0.5q167 0 230 18.5
t63 79.5q0 45 -67.5 56.5t-238.5 11.5q-137 0 -213 24z" />
    <glyph glyph-name="h" unicode="h" horiz-adv-x="1058" 
d="M709 848q83 0 149 -57t66 -140v-499q0 -75 22.5 -105.5t85.5 -30.5v-16h-471v16q63 0 86 31t23 105v434q0 74 -34.5 120t-92.5 46q-17 0 -32 -3.5t-24 -6t-24 -13t-19 -14t-22.5 -20t-22.5 -19.5v-524q0 -74 23 -105t86 -31v-16h-471v16q63 0 85.5 30.5t22.5 105.5v962
q0 64 -125 137v15q76 9 167.5 37.5t145.5 52.5l54 24h12v-678l39 32.5t53 41t56 34t76.5 29.5t85.5 9z" />
    <glyph glyph-name="i" unicode="i" horiz-adv-x="548" 
d="M137 1210q0 64 45.5 110t110.5 46t110.5 -46t45.5 -110t-45.5 -109.5t-110.5 -45.5t-110.5 45.5t-45.5 109.5zM530 0h-495v16q64 0 92.5 32t28.5 104v430q0 29 -30.5 63t-56 51.5t-51.5 32.5v14q76 9 170.5 35t151.5 48l57 22h13v-696q0 -72 28 -104t92 -32v-16z" />
    <glyph glyph-name="j" unicode="j" horiz-adv-x="636" 
d="M199 1210q0 65 45.5 110.5t109.5 45.5t110 -46t46 -110t-45.5 -109.5t-110.5 -45.5q-64 0 -109.5 45.5t-45.5 109.5zM217 133v449q0 29 -30.5 63t-55.5 51.5t-51 32.5v14q76 9 170.5 35t151.5 48l57 22h12v-731q0 -140 -81 -232t-208 -92q-64 0 -113 39t-49 98
q0 42 27.5 73.5t67.5 31.5q38 0 63 -27.5t25 -66.5q0 -15 -3 -37t-3 -37q0 -21 16.5 -35t38.5 -14q20 0 32.5 18.5t12.5 40.5q0 28 -40 121t-40 135z" />
    <glyph glyph-name="k" unicode="k" horiz-adv-x="1077" 
d="M502 0h-471v16q63 0 87.5 31t24.5 105v954q0 29 -30.5 63t-55.5 51.5t-51 32.5v15q76 9 170.5 35t151.5 47l57 22h12v-952l195 162q55 52 55 116q0 51 -29 81t-90 30v16h430v-16q-64 -1 -161.5 -69t-157.5 -138l287 -489q2 -4 5 -10.5t15 -23t26 -29.5t37.5 -23.5
t49.5 -10.5v-16h-504v16q41 0 56.5 10t15.5 35q0 11 -5.5 26.5t-10.5 25.5l-5 10l-170 303l-39 -29v-245q0 -75 21.5 -105.5t83.5 -30.5v-16z" />
    <glyph glyph-name="l" unicode="l" horiz-adv-x="552" 
d="M532 0h-495v16q64 0 92.5 32t28.5 104v954q0 29 -30.5 63t-56 51.5t-51.5 32.5v15q76 9 170.5 35t151.5 47l57 22h13v-1220q0 -72 28 -104t92 -32v-16z" />
    <glyph glyph-name="m" unicode="m" horiz-adv-x="1589" 
d="M514 0h-471v16q63 0 86 31t23 105v434q0 64 -125 137v14q76 9 167.5 37.5t145.5 53.5l53 24h13v-156q195 152 309 152q77 0 134 -44.5t75 -111.5q196 156 315 156q90 0 151 -58.5t64 -138.5v-499q0 -74 23 -105t86 -31v-16h-471v16q63 0 85.5 30.5t22.5 105.5v434
q0 75 -30.5 117t-88.5 42q-32 0 -61 -12t-44 -24t-48 -41q0 -3 1 -8.5t1 -8.5v-499q0 -75 22.5 -105.5t85.5 -30.5v-16h-471v16q63 0 86 31t23 105v434q0 75 -30.5 117t-88.5 42q-32 0 -60.5 -11.5t-43 -23t-47.5 -40.5v-518q0 -75 22.5 -105.5t85.5 -30.5v-16z" />
    <glyph glyph-name="n" unicode="n" 
d="M715 848q83 0 149 -57t66 -140v-499q0 -75 22.5 -105.5t85.5 -30.5v-16h-471v16q63 0 86 31t23 105v434q0 75 -30.5 117t-88.5 42q-32 0 -60.5 -11.5t-43 -23t-47.5 -40.5v-518q0 -75 22.5 -105.5t85.5 -30.5v-16h-471v16q63 0 86 31t23 105v434q0 64 -125 137v14
q76 9 167.5 37.5t145.5 53.5l53 24h13v-156q195 152 309 152z" />
    <glyph glyph-name="o" unicode="o" 
d="M532 831q-40 0 -70 -14.5t-49 -44.5t-31.5 -64t-18 -86.5t-7.5 -98.5t-2 -111q0 -66 2 -111.5t7.5 -98t18 -87t31.5 -64.5t49 -44.5t70 -14.5t70 14.5t49.5 44.5t31.5 64.5t18 86.5t8 98.5t2 111.5t-2 111.5t-8 98.5t-18 86.5t-31.5 64t-49.5 44t-70 14.5zM532 850
q125 0 233.5 -56t174.5 -157.5t66 -224.5t-66 -224.5t-174.5 -158t-233.5 -56.5t-233.5 56.5t-174 158t-65.5 224.5t65.5 224.5t174 157.5t233.5 56z" />
    <glyph glyph-name="p" unicode="p" horiz-adv-x="1060" 
d="M408 -4v-49q0 -72 28 -103.5t92 -31.5v-17h-493v17q65 0 93 31.5t28 103.5v622q0 39 -48.5 84.5t-89.5 69.5v14q76 9 170.5 36.5t151.5 50.5l57 24h13v-141q28 27 37.5 36t41.5 34.5t54.5 37t57.5 22.5t69 11q97 0 174 -55t117 -142t40 -186q0 -98 -32.5 -186.5
t-91.5 -156.5t-148.5 -108.5t-196.5 -40.5q-53 0 -124 23zM410 682v-449q0 -115 29.5 -179t105.5 -64q110 0 151 104q15 37 23 96t9 102.5t1 127.5q0 78 -25 150t-76.5 120.5t-117.5 48.5q-47 0 -100 -57z" />
    <glyph glyph-name="q" unicode="q" horiz-adv-x="1044" 
d="M903 -53q0 -72 28 -103.5t93 -31.5v-17h-498v17q65 0 93 31.5t28 103.5v123q-3 -2 -21.5 -13t-23.5 -14t-22.5 -13t-25 -13t-24.5 -11t-27 -11.5t-26.5 -8.5t-29.5 -7t-29.5 -4t-32.5 -2q-97 0 -173 58t-114.5 148t-38.5 192q0 96 32 182.5t89.5 152t143 104t186.5 38.5
q29 0 56 -3t47 -6.5t42.5 -11t35.5 -12.5t33 -15.5t27 -15t25.5 -16.5t22.5 -14l104 94v-901zM553 74q63 0 96 43v520q0 74 -34.5 132t-104.5 58q-84 0 -129 -82q-53 -96 -53 -294q0 -69 11.5 -132t36 -120t70 -91t107.5 -34z" />
    <glyph glyph-name="r" unicode="r" horiz-adv-x="800" 
d="M428 655q16 31 23.5 45t31.5 50.5t44 55.5t52.5 36.5t65.5 17.5q56 0 95.5 -41.5t39.5 -99.5q0 -62 -27.5 -108t-80.5 -46q-34 0 -61.5 16t-41.5 34.5t-31.5 34.5t-35.5 16q-28 0 -51 -38t-23 -81v-395q0 -74 23 -105t86 -31v-16h-471v16q63 0 85.5 30.5t22.5 105.5v446
q0 64 -125 137v15q76 9 167.5 37.5t145.5 52.5l54 24h12v-209z" />
    <glyph glyph-name="s" unicode="s" horiz-adv-x="751" 
d="M621 526q-20 42 -49.5 88.5t-68.5 94.5t-86.5 79t-90.5 31q-38 0 -63 -31.5t-25 -72.5q0 -25 14 -46t44.5 -41t57 -33.5t75 -35.5t73.5 -35q91 -47 143.5 -105t52.5 -145q0 -125 -86.5 -213t-210.5 -88q-90 0 -172 22t-125 58v299h15q14 -38 32 -78t48.5 -93.5
t62.5 -93.5t74 -68.5t84 -28.5t71 31.5t29 74.5q0 20 -4 38t-9 32t-17 29.5t-19.5 25t-26 23t-27.5 20t-32.5 19t-32 17t-35.5 17.5t-34 17q-46 23 -75.5 41.5t-62 48t-48 68t-15.5 86.5q0 115 88.5 192.5t208.5 77.5q62 0 110.5 -14t112.5 -43l31 -263z" />
    <glyph glyph-name="t" unicode="t" horiz-adv-x="659" 
d="M383 221q0 -63 37 -117.5t96 -54.5q67 0 113 62h10q-29 -59 -95.5 -98.5t-146.5 -39.5q-117 0 -193.5 65.5t-76.5 192.5v508h-78v13l322 323h12v-258h231l-28 -78h-203v-518z" />
    <glyph glyph-name="u" unicode="u" horiz-adv-x="1144" 
d="M993 852v-692q0 -41 43 -67.5t82 -33.5v-14q-156 -2 -377 -92h-12v168q-45 -50 -140 -99t-169 -49q-87 0 -171.5 58t-84.5 139v420q0 29 -30.5 63t-55.5 51.5t-51 32.5v15q76 9 174 34.5t159 46.5l60 21h12v-633q0 -78 42 -122t104 -44q77 0 151 99v434q0 41 -57.5 84.5
t-104.5 62.5v15q76 9 179.5 34.5t169.5 46.5l65 21h12z" />
    <glyph glyph-name="v" unicode="v" horiz-adv-x="1056" 
d="M524 -39l-356 735q-33 69 -60 92t-88 23v14h527v-14q-43 0 -62.5 -17.5t-19.5 -43.5q0 -17 8 -37l184 -420l93 203q16 36 29.5 94t13.5 98q0 123 -140 123v14h383v-14q-19 0 -38 -5.5t-34 -13.5t-31.5 -23t-27.5 -26.5t-25 -32.5t-21.5 -33.5t-19.5 -36.5t-16.5 -34
t-15 -33.5t-12.5 -27.5z" />
    <glyph glyph-name="w" unicode="w" horiz-adv-x="1644" 
d="M797 600l-41 96q-27 63 -59.5 89t-78.5 26v14h535v-14q-43 0 -67.5 -18t-24.5 -43q0 -27 4 -37l158 -424l116 211q66 119 66 188q0 60 -34.5 91.5t-90.5 31.5v14h344v-14q-32 0 -61 -14.5t-50 -35t-42.5 -53t-33.5 -56.5t-29 -59t-24 -48l-319 -584l-260 617l-338 -617
l-299 735q-27 67 -56.5 91t-91.5 24v14h517v-14q-43 0 -62.5 -17.5t-19.5 -43.5q0 -17 8 -37l164 -420z" />
    <glyph glyph-name="x" unicode="x" horiz-adv-x="1042" 
d="M971 811q-44 0 -102.5 -35.5t-113 -89.5t-87.5 -90.5t-56 -65.5l238 -370q21 -32 35.5 -51.5t37 -44t47.5 -36.5t52 -12v-16h-563v16q43 0 67.5 21t24.5 55q0 30 -25 72l-100 158l-84 -97q-37 -42 -37 -98q0 -46 29.5 -78.5t71.5 -32.5v-16h-386v16q29 0 103 49t123 101
l168 176l-226 354q-73 115 -153 115v14h526v-14q-78 0 -78 -55q0 -21 21 -56l98 -151l64 74q10 13 24.5 46t14.5 46q0 38 -27.5 67t-67.5 29v14h361v-14z" />
    <glyph glyph-name="y" unicode="y" horiz-adv-x="1044" 
d="M461 713l186 -420l90 203q35 79 35 159q0 68 -32 112t-99 44v14h383v-14q-24 0 -47 -8.5t-41 -20t-36.5 -33.5t-30.5 -38t-27.5 -44.5t-22.5 -43t-20.5 -43t-16.5 -35.5l-272 -570q-14 -29 -39.5 -60.5t-70 -61t-89.5 -29.5q-50 0 -83 37.5t-33 89.5q0 43 29 74.5
t71 31.5q44 0 78 -43q4 -5 15.5 -21t17 -22.5t17 -13t23.5 -6.5q20 0 34.5 15t19.5 36l-334 694q-33 69 -60 92t-88 23v14h517v-14q-43 0 -62.5 -17.5t-19.5 -43.5q0 -17 8 -37z" />
    <glyph glyph-name="z" unicode="z" horiz-adv-x="997" 
d="M887 809l-516 -793q106 0 218 57.5t196 148.5t118 190h12l-71 -412h-811l534 807q-143 0 -270.5 -85t-202.5 -239h-12l90 342h715v-16z" />
    <glyph glyph-name="braceleft" unicode="{" horiz-adv-x="833" 
d="M336 408q0 113 -32.5 173t-123.5 89q92 30 124 86t32 168v387q0 79 18 134.5t50 90t88.5 53.5t122 26t161.5 7v-35q-95 -7 -130.5 -57t-35.5 -168v-406q0 -128 -33 -191t-133 -91v-8q100 -28 133 -91.5t33 -191.5v-406q0 -118 35.5 -168t130.5 -57v-35q-80 0 -137 4.5
t-109.5 17t-86 34.5t-59 56.5t-37 84t-11.5 115.5v379z" />
    <glyph glyph-name="bar" unicode="|" horiz-adv-x="454" 
d="M123 0v1638h209v-1638h-209z" />
    <glyph glyph-name="braceright" unicode="}" horiz-adv-x="833" 
d="M621 408v-379q0 -79 -18 -134.5t-50.5 -90t-89 -54t-122 -26.5t-161.5 -7v35q95 7 130.5 57t35.5 168v406q0 128 33 191.5t133 91.5v8q-100 28 -133 91t-33 191v406q0 118 -35.5 168t-130.5 57v35q96 0 161.5 -7t122 -26t89 -53.5t50.5 -90t18 -134.5v-387
q0 -112 31.5 -168t123.5 -86q-91 -29 -123 -88.5t-32 -173.5z" />
    <glyph glyph-name="asciitilde" unicode="~" horiz-adv-x="874" 
d="M174 481q0 86 58 153.5t143 67.5q10 0 19.5 -1t20 -3.5t17 -4t17.5 -5.5t15 -6t16.5 -7.5t15.5 -6.5t21 -9t24 -10.5t21 -7.5t27.5 -6.5t26.5 -1.5q26 0 47 15.5t27 37.5h10q0 -61 -61.5 -129t-138.5 -68q-61 0 -121 25q-3 1 -14.5 6.5t-16 7.5t-14.5 5.5t-17.5 5
t-18.5 3t-22 1.5q-33 0 -58.5 -17t-31.5 -45h-12z" />
    <glyph glyph-name="exclamdown" unicode="&#xa1;" horiz-adv-x="577" 
d="M453 885q0 -69 -48 -117.5t-116 -48.5t-116 48.5t-48 117.5t48 117.5t116 48.5t116 -48.5t48 -117.5zM301 649q0 -65 16.5 -135.5t39.5 -136t46 -135.5t39.5 -159.5t16.5 -182.5q0 -37 -9 -76.5t-28 -76.5t-53.5 -61t-79.5 -24t-79.5 24t-53.5 61t-28 76.5t-9 76.5
q0 113 24.5 225t54 186.5t54 167t24.5 170.5h25z" />
    <glyph glyph-name="cent" unicode="&#xa2;" horiz-adv-x="878" 
d="M592 463q39 0 75.5 12.5t60 30.5t41.5 36.5t28 31t12 12.5q10 0 10 -13q0 -21 -12.5 -54.5t-41.5 -75.5t-69.5 -77.5t-103 -60t-135.5 -24.5q-51 0 -101 12l-108 -252q-3 -6 -10 -6q-11 0 -11 10v4l109 248q-128 37 -209.5 141t-81.5 238q0 126 55 234t157 173.5
t228 65.5q110 0 199 -51l102 237q3 6 11 6q10 0 10 -10v-4l-107 -242q125 -78 125 -204q0 -65 -34.5 -102.5t-94.5 -37.5q-76 0 -110 76l-142 -321q62 -33 148 -33zM426 506l149 340q-6 21 -6 45q0 29 10.5 73t10.5 72q0 38 -27 65t-65 27q-69 0 -120 -47t-74 -114.5
t-23 -143.5q0 -227 145 -317z" />
    <glyph glyph-name="sterling" unicode="&#xa3;" horiz-adv-x="1155" 
d="M512 98q-18 19 -48.5 55.5t-50 57t-47.5 44.5t-58.5 35t-65.5 11q-54 0 -91.5 -37.5t-37.5 -91.5q0 -66 60.5 -112t123.5 -46q125 0 215 84zM909 1360l47 -432h-10q-15 51 -60 124t-105 145.5t-136 123.5t-143 51q-71 0 -113.5 -53.5t-42.5 -122.5q0 -55 23.5 -104.5
t61.5 -91.5t78.5 -80.5t83 -88t66.5 -98.5h195q10 0 10 -10t-10 -10h-184q12 -27 18 -62h150q10 0 10 -10t-10 -10h-146q4 -36 4 -58q0 -123 -39 -245q110 -43 205 -43q102 0 157.5 66.5t55.5 158.5h10q5 -45 5 -55q0 -81 -20.5 -164t-59.5 -155t-104.5 -117.5t-145.5 -45.5
q-130 0 -238 115q-92 -92 -211 -92q-92 0 -157.5 51.5t-65.5 140.5q0 97 81 159.5t187 62.5q69 0 126.5 -16.5t131.5 -47.5q-3 26 -10.5 50t-25.5 48t-30.5 39.5t-43 40t-43 34.5t-52 37.5t-49.5 35.5h-292q-11 0 -11 10t11 10h264q-42 28 -76 62h-176q-10 0 -10 10t10 10
h156q-105 108 -105 246q0 100 50.5 192.5t142.5 152.5t200 60q66 0 121.5 -12t85 -26.5t61 -26.5t54.5 -12q20 0 35.5 15.5t15.5 37.5h12z" />
    <glyph glyph-name="yen" unicode="&#xa5;" horiz-adv-x="1447" 
d="M633 1206l264 -442l174 293q45 74 45 139q0 67 -40 108.5t-95 41.5v14h449v-14q-66 0 -156 -71t-131 -140l-207 -344h317v-37h-340l-12 -21v-117h354v-36h-354v-428q0 -67 54.5 -101.5t127.5 -34.5v-16h-671v16q73 0 127.5 34.5t54.5 101.5v428h-336v36h336v43l-57 93
h-281v36h256l-264 418q-49 79 -101.5 109.5t-128.5 30.5v14h727v-14q-133 0 -133 -76q0 -30 21 -64z" />
    <glyph glyph-name="section" unicode="&#xa7;" horiz-adv-x="751" 
d="M502 524q91 -47 143.5 -105t52.5 -145q0 -125 -86.5 -213t-210.5 -88q-90 0 -172 22t-125 58v299h15q14 -38 32 -78t48.5 -93.5t62.5 -93.5t74 -68.5t84 -28.5t71 31.5t29 74.5q0 20 -4 38t-9 32t-17 29.5t-19.5 25t-26 23t-27.5 20t-32.5 19t-32 17t-35.5 17.5t-34 17
q-46 23 -75.5 41.5t-62 48t-48 68t-15.5 86.5q0 99 67.5 172t167.5 92q-7 4 -22.5 11t-22.5 11q-46 23 -75.5 41.5t-61.5 48t-47.5 68t-15.5 86.5q0 115 88.5 192.5t208.5 77.5q62 0 110.5 -14t112.5 -43l31 -262l-13 -2q-20 42 -49.5 88.5t-68.5 94.5t-86.5 79t-90.5 31
q-38 0 -63 -31.5t-25 -73.5q0 -21 11.5 -40t28.5 -33t46 -30.5t54 -28t63 -29t62 -29.5q91 -47 143.5 -105t52.5 -145q0 -94 -51 -170.5t-135 -110.5zM469 541q41 33 41 86q0 64 -35.5 107.5t-99.5 78.5q-21 6 -49 6q-38 0 -63 -31.5t-25 -72.5q0 -16 6 -31t20.5 -28.5
t27.5 -24t38.5 -24t41.5 -21.5t48.5 -22.5t48.5 -22.5z" />
    <glyph glyph-name="dieresis" unicode="&#xa8;" horiz-adv-x="722" 
d="M20 1126q0 52 37 89.5t90 37.5t90 -37.5t37 -89.5t-37 -89.5t-90 -37.5t-90 37.5t-37 89.5zM449 1126q0 53 37 90t89 37q53 0 90 -37.5t37 -89.5t-37 -89.5t-90 -37.5q-52 0 -89 37t-37 90z" />
    <glyph glyph-name="guillemotleft" unicode="&#xab;" horiz-adv-x="997" 
d="M860 848l10 -10l-137 -355l141 -350l-10 -10l-362 360zM481 848l11 -10l-138 -355l142 -350l-11 -10l-362 360z" />
    <glyph glyph-name="degree" unicode="&#xb0;" horiz-adv-x="507" 
d="M254 1278q56 0 93.5 -38t37.5 -93t-37.5 -93t-93.5 -38t-93.5 38t-37.5 93t37.5 93t93.5 38zM143 1147q0 -46 32.5 -78.5t78.5 -32.5t78.5 32.5t32.5 78.5t-32.5 78t-78.5 32t-78.5 -32t-32.5 -78z" />
    <glyph glyph-name="acute" unicode="&#xb4;" horiz-adv-x="671" 
d="M430 1339q48 0 83.5 -32.5t35.5 -79.5q0 -45 -26.5 -79t-67.5 -46l-320 -98l-10 14l207 276q39 45 98 45z" />
    <glyph glyph-name="cedilla" unicode="&#xb8;" horiz-adv-x="409" 
d="M213 25h16v-52q46 -11 82.5 -52.5t36.5 -94.5q0 -57 -33.5 -100.5t-87.5 -61.5l-4 8q39 34 39 70q0 26 -14.5 48t-34.5 22v213z" />
    <glyph glyph-name="guillemotright" unicode="&#xbb;" horiz-adv-x="997" 
d="M137 848l359 -365l-363 -360l-10 10l141 350l-137 355zM516 848l358 -365l-362 -360l-10 10l141 350l-137 355z" />
    <glyph glyph-name="questiondown" unicode="&#xbf;" horiz-adv-x="980" 
d="M633 655q38 -243 119 -428l-54 -32q-81 96 -235 96q-122 0 -203.5 -94t-81.5 -222q0 -97 68.5 -166t165.5 -69q48 0 85 16.5t63 49t41 61t32 72.5q45 120 143 120q61 0 104.5 -41t43.5 -100q0 -81 -53 -142t-131.5 -89.5t-166.5 -28.5q-129 0 -240.5 64t-177 172
t-65.5 233q0 162 101 282.5t253 120.5q24 0 45.5 -3t48.5 -8.5t46 -8.5v143zM430 885q0 69 48 117.5t116 48.5t116 -48.5t48 -117.5t-48 -117.5t-116 -48.5t-116 48.5t-48 117.5z" />
    <glyph glyph-name="Agrave" unicode="&#xc0;" horiz-adv-x="1466" 
d="M584 1722q59 0 98 -45l207 -276l-10 -15l-320 99q-41 12 -67.5 46t-26.5 79q0 47 35.5 79.5t83.5 32.5zM20 14q48 0 97 36.5t90.5 96.5t73 120.5t57.5 125.5l225 565q-27 46 -78 80v11q76 60 122 141.5t91 206.5h11l491 -1196q33 -82 94 -134.5t152 -52.5v-14h-696v14
q149 0 149 92q0 24 -20 64l-99 248h-409l-21 -49q-16 -40 -16 -148q0 -84 51 -145.5t131 -61.5v-14h-496v14zM573 932l-192 -486h389z" />
    <glyph glyph-name="Aacute" unicode="&#xc1;" horiz-adv-x="1466" 
d="M786 1696q48 0 83.5 -33t35.5 -80q0 -45 -26.5 -79t-67.5 -46l-319 -98l-11 14l207 277q39 45 98 45zM20 14q48 0 97 36.5t90.5 96.5t73 120.5t57.5 125.5l225 565q-27 46 -78 80v11q76 60 122 141.5t91 206.5h11l491 -1196q33 -82 94 -134.5t152 -52.5v-14h-696v14
q149 0 149 92q0 24 -20 64l-99 248h-409l-21 -49q-16 -40 -16 -148q0 -84 51 -145.5t131 -61.5v-14h-496v14zM573 932l-192 -486h389z" />
    <glyph glyph-name="Acircumflex" unicode="&#xc2;" horiz-adv-x="1466" 
d="M635 1638h127l203 -260h-62l-207 148l-207 -148h-61zM20 14q48 0 97 36.5t90.5 96.5t73 120.5t57.5 125.5l225 565q-27 46 -78 80v11q76 60 122 141.5t91 206.5h11l491 -1196q33 -82 94 -134.5t152 -52.5v-14h-696v14q149 0 149 92q0 24 -20 64l-99 248h-409l-21 -49
q-16 -40 -16 -148q0 -84 51 -145.5t131 -61.5v-14h-496v14zM573 932l-192 -486h389z" />
    <glyph glyph-name="Atilde" unicode="&#xc3;" horiz-adv-x="1466" 
d="M483 1421q0 86 58 153.5t143 67.5q10 0 19.5 -1t20 -3.5t17 -4t17.5 -5.5t15 -6t16.5 -7.5t15.5 -6.5q4 -2 18 -8t19.5 -8.5t18 -7t21 -6.5t20.5 -3.5t24 -1.5q26 0 46.5 15.5t26.5 37.5h11q0 -61 -62 -128.5t-139 -67.5q-63 0 -121 24q-2 1 -17 8t-19.5 8.5t-17 5.5
t-23.5 5.5t-25 1.5q-33 0 -58.5 -17t-31.5 -45h-13zM20 14q48 0 97 36.5t90.5 96.5t73 120.5t57.5 125.5l225 565q-27 46 -78 80v11q76 60 122 141.5t91 206.5h11l491 -1196q33 -82 94 -134.5t152 -52.5v-14h-696v14q149 0 149 92q0 24 -20 64l-99 248h-409l-21 -49
q-16 -40 -16 -148q0 -84 51 -145.5t131 -61.5v-14h-496v14zM573 932l-192 -486h389z" />
    <glyph glyph-name="Adieresis" unicode="&#xc4;" horiz-adv-x="1466" 
d="M371 1511q0 53 37.5 90t89.5 37t89.5 -37t37.5 -90t-37.5 -90t-89.5 -37t-89.5 37t-37.5 90zM799 1511q0 53 37.5 90t89.5 37t89.5 -37t37.5 -90t-37.5 -90t-89.5 -37t-89.5 37t-37.5 90zM20 14q48 0 97 36.5t90.5 96.5t73 120.5t57.5 125.5l225 565q-27 46 -78 80v11
q76 60 122 141.5t91 206.5h11l491 -1196q33 -82 94 -134.5t152 -52.5v-14h-696v14q149 0 149 92q0 24 -20 64l-99 248h-409l-21 -49q-16 -40 -16 -148q0 -84 51 -145.5t131 -61.5v-14h-496v14zM573 932l-192 -486h389z" />
    <glyph glyph-name="Aring" unicode="&#xc5;" horiz-adv-x="1466" 
d="M705 1700q55 0 93 -38t38 -93t-38 -93t-93 -38q-56 0 -94 38t-38 93t38 93t94 38zM594 1569q0 -46 32.5 -78.5t78.5 -32.5t78 32.5t32 78.5t-32 78t-78 32t-78.5 -32t-32.5 -78zM20 14q48 0 97 36.5t90.5 96.5t73 120.5t57.5 125.5l225 565q-27 46 -78 80v11
q76 60 122 141.5t91 206.5h11l491 -1196q33 -82 94 -134.5t152 -52.5v-14h-696v14q149 0 149 92q0 24 -20 64l-99 248h-409l-21 -49q-16 -40 -16 -148q0 -84 51 -145.5t131 -61.5v-14h-496v14zM573 932l-192 -486h389z" />
    <glyph glyph-name="AE" unicode="&#xc6;" horiz-adv-x="2201" 
d="M389 334l739 1026h781l147 -373h-12q-48 72 -104.5 132t-126.5 111.5t-155 81t-175 29.5h-125v-641h61q127 0 228.5 95.5t101.5 220.5h14v-688h-14q0 83 -47 165t-124.5 134.5t-158.5 52.5h-61v-528q0 -68 44.5 -102t113.5 -34h94q92 0 198 58.5t196.5 167t125.5 235.5
h16l-96 -477h-1182v14q73 0 128 34.5t55 101.5v530h-387l-191 -266q-35 -50 -56.5 -114.5t-21.5 -104.5q0 -83 44.5 -132t125.5 -49v-14h-545v14q55 0 177.5 113.5t191.5 206.5zM1051 1219l-373 -519h373v519z" />
    <glyph glyph-name="Ccedilla" unicode="&#xc7;" horiz-adv-x="1417" 
d="M1264 793q0 50 -31 124t-86 151.5t-121.5 144.5t-146 110t-150.5 43q-72 0 -130 -41.5t-94.5 -108.5t-61 -156t-34.5 -177.5t-10 -180.5q0 -74 3 -139t13 -140.5t26 -136.5t43.5 -119.5t64 -98.5t89.5 -64t118 -24q77 0 157 42t142 105t112 134.5t76.5 134.5t26.5 100h14
v-529h-14q-2 38 -21 70.5t-53 32.5q-28 0 -66 -16.5t-75.5 -36t-114.5 -36t-174 -16.5h-18v-41q46 -11 82 -52.5t36 -94.5q0 -57 -33.5 -100.5t-87.5 -61.5l-4 8q39 34 39 70q0 26 -14.5 47.5t-34.5 21.5v203q-150 7 -277 67.5t-213.5 159.5t-135 229.5t-48.5 274.5
q0 137 63 266t161 220t221 145.5t241 54.5q86 0 166 -19t127 -42t91.5 -42t68.5 -19q32 0 50 27.5t18 66.5h14v-561h-14z" />
    <glyph glyph-name="Egrave" unicode="&#xc8;" horiz-adv-x="1392" 
d="M496 1757q59 0 98 -45l207 -276l-10 -15l-320 99q-41 12 -67.5 46t-26.5 79q0 47 35.5 79.5t83.5 32.5zM604 694q127 0 228.5 95.5t101.5 220.5h14v-688h-14q0 83 -47 165t-124.5 134.5t-158.5 52.5h-61v-522q0 -68 44 -102t113 -34h95q92 0 198 58.5t196.5 167
t125.5 235.5h16l-96 -477h-1182v14q73 0 128 34.5t55 101.5v1058q0 67 -55.5 103.5t-127.5 36.5v12h1041l147 -373h-12q-48 72 -104.5 132t-126.5 111.5t-155 81t-175 29.5h-125v-647h61z" />
    <glyph glyph-name="Eacute" unicode="&#xc9;" horiz-adv-x="1392" 
d="M827 1741q48 0 83.5 -33t35.5 -80q0 -45 -26.5 -79t-67.5 -46l-320 -98l-10 14l207 277q39 45 98 45zM604 694q127 0 228.5 95.5t101.5 220.5h14v-688h-14q0 83 -47 165t-124.5 134.5t-158.5 52.5h-61v-522q0 -68 44 -102t113 -34h95q92 0 198 58.5t196.5 167
t125.5 235.5h16l-96 -477h-1182v14q73 0 128 34.5t55 101.5v1058q0 67 -55.5 103.5t-127.5 36.5v12h1041l147 -373h-12q-48 72 -104.5 132t-126.5 111.5t-155 81t-175 29.5h-125v-647h61z" />
    <glyph glyph-name="Ecircumflex" unicode="&#xca;" horiz-adv-x="1392" 
d="M635 1645h127l203 -261h-62l-207 148l-207 -148h-61zM604 694q127 0 228.5 95.5t101.5 220.5h14v-688h-14q0 83 -47 165t-124.5 134.5t-158.5 52.5h-61v-522q0 -68 44 -102t113 -34h95q92 0 198 58.5t196.5 167t125.5 235.5h16l-96 -477h-1182v14q73 0 128 34.5t55 101.5
v1058q0 67 -55.5 103.5t-127.5 36.5v12h1041l147 -373h-12q-48 72 -104.5 132t-126.5 111.5t-155 81t-175 29.5h-125v-647h61z" />
    <glyph glyph-name="Edieresis" unicode="&#xcb;" horiz-adv-x="1392" 
d="M313 1532q0 52 37.5 89.5t89.5 37.5t89.5 -37.5t37.5 -89.5t-37.5 -89.5t-89.5 -37.5t-89.5 37.5t-37.5 89.5zM741 1532q0 52 37.5 89.5t89.5 37.5t89.5 -37.5t37.5 -89.5t-37.5 -89.5t-89.5 -37.5t-89.5 37.5t-37.5 89.5zM604 694q127 0 228.5 95.5t101.5 220.5h14v-688
h-14q0 83 -47 165t-124.5 134.5t-158.5 52.5h-61v-522q0 -68 44 -102t113 -34h95q92 0 198 58.5t196.5 167t125.5 235.5h16l-96 -477h-1182v14q73 0 128 34.5t55 101.5v1058q0 67 -55.5 103.5t-127.5 36.5v12h1041l147 -373h-12q-48 72 -104.5 132t-126.5 111.5t-155 81
t-175 29.5h-125v-647h61z" />
    <glyph glyph-name="Igrave" unicode="&#xcc;" horiz-adv-x="778" 
d="M279 1741q59 0 98 -45l207 -277l-11 -14l-319 98q-41 12 -67.5 46t-26.5 79q0 47 35.5 80t83.5 33zM543 1206v-1054q0 -67 54.5 -101.5t127.5 -34.5v-16h-672v16q73 0 128 34.5t55 101.5v1054q0 67 -55.5 103.5t-127.5 36.5v14h672v-14q-72 0 -127 -36.5t-55 -103.5z" />
    <glyph glyph-name="Iacute" unicode="&#xcd;" horiz-adv-x="778" 
d="M496 1741q48 0 83 -33t35 -80q0 -45 -26.5 -79t-67.5 -46l-319 -98l-11 14l207 277q39 45 99 45zM543 1206v-1054q0 -67 54.5 -101.5t127.5 -34.5v-16h-672v16q73 0 128 34.5t55 101.5v1054q0 67 -55.5 103.5t-127.5 36.5v14h672v-14q-72 0 -127 -36.5t-55 -103.5z" />
    <glyph glyph-name="Icircumflex" unicode="&#xce;" horiz-adv-x="778" 
d="M334 1645h127l203 -261h-62l-207 148l-207 -148h-61zM543 1206v-1054q0 -67 54.5 -101.5t127.5 -34.5v-16h-672v16q73 0 128 34.5t55 101.5v1054q0 67 -55.5 103.5t-127.5 36.5v14h672v-14q-72 0 -127 -36.5t-55 -103.5z" />
    <glyph glyph-name="Idieresis" unicode="&#xcf;" horiz-adv-x="778" 
d="M41 1532q0 52 37.5 89.5t89.5 37.5t89.5 -37.5t37.5 -89.5t-37.5 -89.5t-89.5 -37.5t-89.5 37.5t-37.5 89.5zM469 1532q0 52 37.5 89.5t89.5 37.5t89.5 -37.5t37.5 -89.5t-37.5 -89.5t-89.5 -37.5t-89.5 37.5t-37.5 89.5zM543 1206v-1054q0 -67 54.5 -101.5t127.5 -34.5
v-16h-672v16q73 0 128 34.5t55 101.5v1054q0 67 -55.5 103.5t-127.5 36.5v14h672v-14q-72 0 -127 -36.5t-55 -103.5z" />
    <glyph glyph-name="Eth" unicode="&#xd0;" horiz-adv-x="1513" 
d="M778 0h-725v14q73 0 128 34.5t55 101.5v552h-181v37h181v469q0 67 -55.5 103.5t-127.5 36.5v12h494q164 10 268 10q118 0 233 -51.5t205.5 -140t146.5 -220t56 -280.5q0 -306 -187 -492t-491 -186zM1118 682q0 152 -27 271.5t-70 193t-101.5 122t-116 67t-119.5 18.5
q-68 0 -141 -15v-600h301v-37h-301v-555q3 -128 94 -131h88q68 0 123 17.5t107 63t86.5 118.5t55.5 191.5t21 275.5z" />
    <glyph glyph-name="Ntilde" unicode="&#xd1;" horiz-adv-x="1579" 
d="M625 1405q0 86 57.5 153.5t142.5 67.5q12 0 24 -1.5t20.5 -3.5t21 -6.5t18 -7t19.5 -8.5t18 -8t18 -8t19.5 -8.5t18 -7t21 -6.5t20.5 -3.5t24 -1.5q26 0 47 16t27 38h10q0 -61 -62 -129t-139 -68q-61 0 -121 25q-3 1 -12.5 5.5t-13.5 6t-12.5 5t-14 5t-14 3.5t-17 2.5
t-18.5 0.5q-33 0 -58.5 -16.5t-31.5 -44.5h-12zM1339 -59l-1036 1200v-840q0 -128 63 -206.5t156 -78.5v-16h-459v16q73 0 146.5 82t73.5 203v864q-44 72 -117 126.5t-146 54.5v14h517l782 -916v615q0 121 -73 202.5t-146 81.5v17h459v-17q-93 0 -156.5 -78.5t-63.5 -205.5
v-1118z" />
    <glyph glyph-name="Ograve" unicode="&#xd2;" horiz-adv-x="1548" 
d="M713 1741q59 0 98 -45l207 -277l-10 -14l-320 98q-41 12 -67.5 46t-26.5 79q0 47 35.5 80t83.5 33zM776 -2q69 0 124.5 23t92.5 59.5t64 93.5t42 113t23.5 131t10.5 133.5t2 134.5q0 75 -2.5 134t-11 134t-23.5 131t-42 113t-64 93.5t-93 59.5t-125 23t-124.5 -23
t-93 -59.5t-64.5 -93.5t-41.5 -113t-23 -131t-11 -134t-2.5 -134t2.5 -134.5t11 -134t23.5 -130.5t42.5 -113t64.5 -93.5t93 -59.5t125 -23zM774 1395q145 0 277.5 -56t229 -150.5t153.5 -226t57 -276.5t-57 -276.5t-153.5 -226t-229 -150.5t-277.5 -56t-277.5 56
t-229 150.5t-153.5 226t-57 276.5t57 276.5t153.5 226t229 150.5t277.5 56z" />
    <glyph glyph-name="Oacute" unicode="&#xd3;" horiz-adv-x="1548" 
d="M868 1741q48 0 83.5 -33t35.5 -80q0 -45 -26.5 -79t-67.5 -46l-320 -98l-10 14l207 277q39 45 98 45zM776 -2q69 0 124.5 23t92.5 59.5t64 93.5t42 113t23.5 131t10.5 133.5t2 134.5q0 75 -2.5 134t-11 134t-23.5 131t-42 113t-64 93.5t-93 59.5t-125 23t-124.5 -23
t-93 -59.5t-64.5 -93.5t-41.5 -113t-23 -131t-11 -134t-2.5 -134t2.5 -134.5t11 -134t23.5 -130.5t42.5 -113t64.5 -93.5t93 -59.5t125 -23zM774 1395q145 0 277.5 -56t229 -150.5t153.5 -226t57 -276.5t-57 -276.5t-153.5 -226t-229 -150.5t-277.5 -56t-277.5 56
t-229 150.5t-153.5 226t-57 276.5t57 276.5t153.5 226t229 150.5t277.5 56z" />
    <glyph glyph-name="Ocircumflex" unicode="&#xd4;" horiz-adv-x="1548" 
d="M713 1645h127l202 -261h-61l-207 148l-207 -148h-61zM776 -2q69 0 124.5 23t92.5 59.5t64 93.5t42 113t23.5 131t10.5 133.5t2 134.5q0 75 -2.5 134t-11 134t-23.5 131t-42 113t-64 93.5t-93 59.5t-125 23t-124.5 -23t-93 -59.5t-64.5 -93.5t-41.5 -113t-23 -131
t-11 -134t-2.5 -134t2.5 -134.5t11 -134t23.5 -130.5t42.5 -113t64.5 -93.5t93 -59.5t125 -23zM774 1395q145 0 277.5 -56t229 -150.5t153.5 -226t57 -276.5t-57 -276.5t-153.5 -226t-229 -150.5t-277.5 -56t-277.5 56t-229 150.5t-153.5 226t-57 276.5t57 276.5t153.5 226
t229 150.5t277.5 56z" />
    <glyph glyph-name="Otilde" unicode="&#xd5;" horiz-adv-x="1548" 
d="M528 1421q0 86 58 153.5t143 67.5q10 0 19.5 -1t20 -3.5t17 -4t17.5 -5.5t15 -6t16.5 -7.5t15.5 -6.5q4 -2 18 -8t19.5 -8.5t18 -7t21 -6.5t20.5 -3.5t24 -1.5q26 0 46.5 15.5t26.5 37.5h11q0 -61 -62 -128.5t-139 -67.5q-63 0 -121 24q-2 1 -17 8t-19.5 8.5t-17 5.5
t-23.5 5.5t-25 1.5q-33 0 -58.5 -17t-31.5 -45h-13zM776 -2q69 0 124.5 23t92.5 59.5t64 93.5t42 113t23.5 131t10.5 133.5t2 134.5q0 75 -2.5 134t-11 134t-23.5 131t-42 113t-64 93.5t-93 59.5t-125 23t-124.5 -23t-93 -59.5t-64.5 -93.5t-41.5 -113t-23 -131t-11 -134
t-2.5 -134t2.5 -134.5t11 -134t23.5 -130.5t42.5 -113t64.5 -93.5t93 -59.5t125 -23zM774 1395q145 0 277.5 -56t229 -150.5t153.5 -226t57 -276.5t-57 -276.5t-153.5 -226t-229 -150.5t-277.5 -56t-277.5 56t-229 150.5t-153.5 226t-57 276.5t57 276.5t153.5 226t229 150.5
t277.5 56z" />
    <glyph glyph-name="Odieresis" unicode="&#xd6;" horiz-adv-x="1548" 
d="M432 1561q0 53 37 90t90 37t90 -37t37 -90t-37 -90t-90 -37t-90 37t-37 90zM860 1561q0 53 37 90t90 37t90 -37t37 -90t-37 -90t-90 -37t-90 37t-37 90zM776 -2q69 0 124.5 23t92.5 59.5t64 93.5t42 113t23.5 131t10.5 133.5t2 134.5q0 75 -2.5 134t-11 134t-23.5 131
t-42 113t-64 93.5t-93 59.5t-125 23t-124.5 -23t-93 -59.5t-64.5 -93.5t-41.5 -113t-23 -131t-11 -134t-2.5 -134t2.5 -134.5t11 -134t23.5 -130.5t42.5 -113t64.5 -93.5t93 -59.5t125 -23zM774 1395q145 0 277.5 -56t229 -150.5t153.5 -226t57 -276.5t-57 -276.5
t-153.5 -226t-229 -150.5t-277.5 -56t-277.5 56t-229 150.5t-153.5 226t-57 276.5t57 276.5t153.5 226t229 150.5t277.5 56z" />
    <glyph glyph-name="multiply" unicode="&#xd7;" horiz-adv-x="1228" 
d="M494 440l-318 320l121 119l317 -320l320 320l119 -121l-318 -320l318 -317l-119 -121l-320 319l-317 -319l-121 123z" />
    <glyph glyph-name="Oslash" unicode="&#xd8;" horiz-adv-x="1548" 
d="M776 -2q69 0 124.5 23t92.5 59.5t64 93.5t42 113t23.5 131t10.5 133.5t2 134.5q0 341 -72 500l-561 -1028q88 -160 274 -160zM336 -147l-33 20l111 201q-162 94 -259.5 257t-97.5 355q0 145 57 276.5t153.5 226t229 150.5t277.5 56q167 0 318 -74l129 235l32 -20
l-127 -233q166 -93 265.5 -257t99.5 -360q0 -145 -57 -276.5t-153.5 -226t-229 -150.5t-277.5 -56q-172 0 -328 78zM481 199l559 1028q-87 147 -266 147q-69 0 -124.5 -23t-93 -59.5t-64.5 -93.5t-41.5 -113t-23 -131t-11 -134t-2.5 -134q0 -331 67 -487z" />
    <glyph glyph-name="Ugrave" unicode="&#xd9;" horiz-adv-x="1568" 
d="M655 1741q60 0 99 -45l207 -277l-11 -14l-319 98q-41 12 -67.5 46t-26.5 79q0 47 35 80t83 33zM1309 444v615q0 121 -73 202.5t-146 81.5v17h458v-17q-93 0 -156 -78t-63 -206v-625q0 -182 -92 -307q-130 -180 -467 -180q-138 0 -263.5 52t-207.5 151.5t-82 222.5v833
q0 67 -55 103.5t-127 36.5v14h672v-14q-72 0 -127.5 -36.5t-55.5 -103.5v-768q0 -235 108.5 -341.5t309.5 -106.5q84 0 158.5 43t126.5 119q82 121 82 292z" />
    <glyph glyph-name="Uacute" unicode="&#xda;" horiz-adv-x="1568" 
d="M1004 1741q48 0 83 -33t35 -80q0 -45 -26.5 -79t-67.5 -46l-319 -98l-11 14l207 277q39 45 99 45zM1309 444v615q0 121 -73 202.5t-146 81.5v17h458v-17q-93 0 -156 -78t-63 -206v-625q0 -182 -92 -307q-130 -180 -467 -180q-138 0 -263.5 52t-207.5 151.5t-82 222.5v833
q0 67 -55 103.5t-127 36.5v14h672v-14q-72 0 -127.5 -36.5t-55.5 -103.5v-768q0 -235 108.5 -341.5t309.5 -106.5q84 0 158.5 43t126.5 119q82 121 82 292z" />
    <glyph glyph-name="Ucircumflex" unicode="&#xdb;" horiz-adv-x="1568" 
d="M827 1645h127l203 -261h-61l-207 148l-207 -148h-61zM1309 444v615q0 121 -73 202.5t-146 81.5v17h458v-17q-93 0 -156 -78t-63 -206v-625q0 -182 -92 -307q-130 -180 -467 -180q-138 0 -263.5 52t-207.5 151.5t-82 222.5v833q0 67 -55 103.5t-127 36.5v14h672v-14
q-72 0 -127.5 -36.5t-55.5 -103.5v-768q0 -235 108.5 -341.5t309.5 -106.5q84 0 158.5 43t126.5 119q82 121 82 292z" />
    <glyph glyph-name="Udieresis" unicode="&#xdc;" horiz-adv-x="1568" 
d="M502 1532q0 52 37 89.5t90 37.5t90 -37.5t37 -89.5t-37 -89.5t-90 -37.5t-90 37.5t-37 89.5zM930 1532q0 52 37 89.5t90 37.5t90 -37.5t37 -89.5t-37 -89.5t-90 -37.5t-90 37.5t-37 89.5zM1309 444v615q0 121 -73 202.5t-146 81.5v17h458v-17q-93 0 -156 -78t-63 -206
v-625q0 -182 -92 -307q-130 -180 -467 -180q-138 0 -263.5 52t-207.5 151.5t-82 222.5v833q0 67 -55 103.5t-127 36.5v14h672v-14q-72 0 -127.5 -36.5t-55.5 -103.5v-768q0 -235 108.5 -341.5t309.5 -106.5q84 0 158.5 43t126.5 119q82 121 82 292z" />
    <glyph glyph-name="Yacute" unicode="&#xdd;" horiz-adv-x="1447" 
d="M868 1741q48 0 83.5 -33t35.5 -80q0 -45 -26.5 -79t-67.5 -46l-320 -98l-10 14l207 277q39 45 98 45zM633 1206l264 -442l174 293q45 74 45 139q0 67 -40 108.5t-95 41.5v14h449v-14q-66 0 -156 -71t-131 -140l-242 -402v-581q0 -67 54.5 -101.5t127.5 -34.5v-16h-671v16
q73 0 127.5 34.5t54.5 101.5v507l-346 547q-49 79 -101.5 109.5t-128.5 30.5v14h727v-14q-133 0 -133 -76q0 -30 21 -64z" />
    <glyph glyph-name="Thorn" unicode="&#xde;" horiz-adv-x="1290" 
d="M543 1081h114q140 0 250.5 -30.5t180 -84t105.5 -122t36 -148.5q0 -181 -142 -285t-425 -104h-119v-155q0 -67 54.5 -101.5t127.5 -34.5v-16h-672v16q73 0 128 34.5t55 101.5v1054q0 67 -55.5 103.5t-127.5 36.5v14h672v-14q-72 0 -127 -36.5t-55 -103.5v-125zM543 1047
v-705h71q160 0 238 87t78 269q0 165 -80 257t-236 92h-71z" />
    <glyph glyph-name="germandbls" unicode="&#xdf;" horiz-adv-x="1103" 
d="M406 918v-918h-361v16q63 0 86 31t23 105v583h-91l181 410q57 131 114 185t131 54q126 0 224 -90t98 -200q0 -86 -38.5 -137.5t-102.5 -90.5q-9 -6 -29 -17.5t-29 -17t-23 -15.5t-20 -17.5t-11 -18.5t-5 -22q0 -9 4.5 -16.5t14.5 -14.5t20 -12.5t28 -12t31.5 -10.5
t38 -11.5t39.5 -12.5q307 -95 307 -338q0 -101 -52.5 -186.5t-130.5 -131t-159 -45.5q-82 0 -144.5 42.5t-62.5 113.5q0 39 26.5 66.5t64.5 27.5q31 0 53 -24t22 -56q0 -27 -6 -57t-6 -49t15.5 -31t35.5 -12q92 0 92 254q0 274 -153 385q-37 28 -53.5 42.5t-32 38.5
t-15.5 50q0 20 20.5 58t45.5 77.5t45.5 100t20.5 118.5q0 47 -10 91t-29 81t-52.5 59.5t-76.5 22.5q-62 0 -105 -43t-43 -104t30 -154t30 -147z" />
    <glyph glyph-name="agrave" unicode="&#xe0;" horiz-adv-x="913" 
d="M270 1360q60 0 99 -45l206 -277l-10 -14l-319 98q-41 12 -67.5 46t-26.5 79q0 47 35 80t83 33zM825 49q18 0 32 8.5t21 16.5t9 8q6 0 6 -4q0 -3 -7 -13t-23.5 -25t-38.5 -29t-56.5 -24t-73.5 -10q-59 0 -104.5 38.5t-54.5 93.5q-43 -36 -66.5 -54t-61 -40.5t-76 -32
t-83.5 -9.5q-80 0 -139.5 54.5t-59.5 130.5q0 40 26.5 77.5t64.5 65t95 56t104 46.5t106.5 41t86.5 35v266q0 31 -24.5 53.5t-58.5 22.5t-82 -41t-48 -90q0 -108 -16 -164q-31 -114 -139 -114q-46 0 -78.5 33t-32.5 83q0 100 178 213q173 107 316 107q90 0 163.5 -49.5
t73.5 -120.5v-539q0 -38 11 -64t30 -26zM532 461q-131 -49 -178 -103t-47 -153q0 -55 28.5 -96t78.5 -41q26 0 49 11t35 22t34 34v326z" />
    <glyph glyph-name="aacute" unicode="&#xe1;" horiz-adv-x="913" 
d="M557 1360q48 0 83.5 -33t35.5 -80q0 -45 -26.5 -79t-67.5 -46l-320 -98l-10 14l207 277q39 45 98 45zM825 49q18 0 32 8.5t21 16.5t9 8q6 0 6 -4q0 -3 -7 -13t-23.5 -25t-38.5 -29t-56.5 -24t-73.5 -10q-59 0 -104.5 38.5t-54.5 93.5q-43 -36 -66.5 -54t-61 -40.5
t-76 -32t-83.5 -9.5q-80 0 -139.5 54.5t-59.5 130.5q0 40 26.5 77.5t64.5 65t95 56t104 46.5t106.5 41t86.5 35v266q0 31 -24.5 53.5t-58.5 22.5t-82 -41t-48 -90q0 -108 -16 -164q-31 -114 -139 -114q-46 0 -78.5 33t-32.5 83q0 100 178 213q173 107 316 107
q90 0 163.5 -49.5t73.5 -120.5v-539q0 -38 11 -64t30 -26zM532 461q-131 -49 -178 -103t-47 -153q0 -55 28.5 -96t78.5 -41q26 0 49 11t35 22t34 34v326z" />
    <glyph glyph-name="acircumflex" unicode="&#xe2;" horiz-adv-x="913" 
d="M422 1272h127l203 -260h-62l-207 147l-207 -147h-61zM825 49q18 0 32 8.5t21 16.5t9 8q6 0 6 -4q0 -3 -7 -13t-23.5 -25t-38.5 -29t-56.5 -24t-73.5 -10q-59 0 -104.5 38.5t-54.5 93.5q-43 -36 -66.5 -54t-61 -40.5t-76 -32t-83.5 -9.5q-80 0 -139.5 54.5t-59.5 130.5
q0 40 26.5 77.5t64.5 65t95 56t104 46.5t106.5 41t86.5 35v266q0 31 -24.5 53.5t-58.5 22.5t-82 -41t-48 -90q0 -108 -16 -164q-31 -114 -139 -114q-46 0 -78.5 33t-32.5 83q0 100 178 213q173 107 316 107q90 0 163.5 -49.5t73.5 -120.5v-539q0 -38 11 -64t30 -26zM532 461
q-131 -49 -178 -103t-47 -153q0 -55 28.5 -96t78.5 -41q26 0 49 11t35 22t34 34v326z" />
    <glyph glyph-name="atilde" unicode="&#xe3;" horiz-adv-x="913" 
d="M211 1016q0 86 58 153.5t143 67.5q14 0 26.5 -1.5t27.5 -6.5t21 -7.5t24 -10.5t21 -9q4 -2 18 -8t19.5 -8.5t18 -7t21 -6.5t20.5 -3.5t24 -1.5q26 0 47 16t27 38h10q0 -61 -61.5 -129t-138.5 -68q-61 0 -121 25q-3 1 -11.5 5t-11.5 5.5t-10.5 4.5t-12 4.5t-12 3.5t-14 3
t-14.5 1.5t-17 0.5q-33 0 -58.5 -16.5t-31.5 -44.5h-12zM825 49q18 0 32 8.5t21 16.5t9 8q6 0 6 -4q0 -3 -7 -13t-23.5 -25t-38.5 -29t-56.5 -24t-73.5 -10q-59 0 -104.5 38.5t-54.5 93.5q-43 -36 -66.5 -54t-61 -40.5t-76 -32t-83.5 -9.5q-80 0 -139.5 54.5t-59.5 130.5
q0 40 26.5 77.5t64.5 65t95 56t104 46.5t106.5 41t86.5 35v266q0 31 -24.5 53.5t-58.5 22.5t-82 -41t-48 -90q0 -108 -16 -164q-31 -114 -139 -114q-46 0 -78.5 33t-32.5 83q0 100 178 213q173 107 316 107q90 0 163.5 -49.5t73.5 -120.5v-539q0 -38 11 -64t30 -26zM532 461
q-131 -49 -178 -103t-47 -153q0 -55 28.5 -96t78.5 -41q26 0 49 11t35 22t34 34v326z" />
    <glyph glyph-name="adieresis" unicode="&#xe4;" horiz-adv-x="913" 
d="M102 1143q0 53 37 90t90 37t90 -37t37 -90t-37 -90t-90 -37t-90 37t-37 90zM530 1143q0 53 37 90t90 37t90 -37t37 -90t-37 -90t-90 -37t-90 37t-37 90zM825 49q18 0 32 8.5t21 16.5t9 8q6 0 6 -4q0 -3 -7 -13t-23.5 -25t-38.5 -29t-56.5 -24t-73.5 -10
q-59 0 -104.5 38.5t-54.5 93.5q-43 -36 -66.5 -54t-61 -40.5t-76 -32t-83.5 -9.5q-80 0 -139.5 54.5t-59.5 130.5q0 40 26.5 77.5t64.5 65t95 56t104 46.5t106.5 41t86.5 35v266q0 31 -24.5 53.5t-58.5 22.5t-82 -41t-48 -90q0 -108 -16 -164q-31 -114 -139 -114
q-46 0 -78.5 33t-32.5 83q0 100 178 213q173 107 316 107q90 0 163.5 -49.5t73.5 -120.5v-539q0 -38 11 -64t30 -26zM532 461q-131 -49 -178 -103t-47 -153q0 -55 28.5 -96t78.5 -41q26 0 49 11t35 22t34 34v326z" />
    <glyph glyph-name="aring" unicode="&#xe5;" horiz-adv-x="913" 
d="M424 1251q56 0 93.5 -37.5t37.5 -93.5t-37.5 -93.5t-93.5 -37.5t-93.5 37.5t-37.5 93.5t37.5 93.5t93.5 37.5zM313 1120q0 -46 32.5 -78t78.5 -32t78.5 32t32.5 78t-32.5 78.5t-78.5 32.5t-78.5 -32.5t-32.5 -78.5zM825 49q18 0 32 8.5t21 16.5t9 8q6 0 6 -4q0 -3 -7 -13
t-23.5 -25t-38.5 -29t-56.5 -24t-73.5 -10q-59 0 -104.5 38.5t-54.5 93.5q-43 -36 -66.5 -54t-61 -40.5t-76 -32t-83.5 -9.5q-80 0 -139.5 54.5t-59.5 130.5q0 40 26.5 77.5t64.5 65t95 56t104 46.5t106.5 41t86.5 35v266q0 31 -24.5 53.5t-58.5 22.5t-82 -41t-48 -90
q0 -108 -16 -164q-31 -114 -139 -114q-46 0 -78.5 33t-32.5 83q0 100 178 213q173 107 316 107q90 0 163.5 -49.5t73.5 -120.5v-539q0 -38 11 -64t30 -26zM532 461q-131 -49 -178 -103t-47 -153q0 -55 28.5 -96t78.5 -41q26 0 49 11t35 22t34 34v326z" />
    <glyph glyph-name="ae" unicode="&#xe6;" horiz-adv-x="1404" 
d="M532 461q-131 -49 -178 -103t-47 -153q0 -55 28.5 -96t78.5 -41q26 0 49 11t35 22t34 34v326zM784 502h318q0 332 -137 332q-39 0 -69 -13.5t-49 -39.5t-32 -56.5t-19.5 -70.5t-9 -75t-2.5 -77zM53 528q0 64 81.5 140.5t198.5 128t214 51.5q54 0 105 -19t85 -53
q107 72 228 72q98 0 182.5 -53t133 -137t48.5 -175h-545q2 -139 83 -231t231 -92q60 0 118 29t84 67q4 5 9 15t8 13t8 3q12 0 12 -15q-12 -51 -43.5 -103.5t-77 -96.5t-107 -71.5t-126.5 -27.5q-121 0 -222 53t-161 146q-177 -199 -352 -199q-80 0 -139.5 54.5t-59.5 130.5
q0 40 26.5 77.5t64.5 65t95 56t104 46.5t106.5 41t86.5 35v266q0 31 -24.5 53.5t-58.5 22.5t-82 -41t-48 -90q0 -61 -5.5 -105t-20.5 -86.5t-47.5 -64.5t-81.5 -22q-46 0 -78.5 33t-32.5 83z" />
    <glyph glyph-name="ccedilla" unicode="&#xe7;" horiz-adv-x="911" 
d="M524 848v2q79 0 156 -33.5t130.5 -99t53.5 -146.5q0 -65 -34.5 -102t-94.5 -37q-57 0 -92 45t-35 105q0 30 4 75.5t4 73.5q0 38 -33.5 68t-76.5 30q-51 0 -90 -28.5t-60.5 -75.5t-32 -100t-10.5 -111q0 -167 87.5 -263.5t230.5 -96.5q99 0 176 77q11 11 20 23t13.5 17
t7.5 5q10 0 10 -12q0 -29 -16.5 -66t-49.5 -76t-75.5 -72t-100.5 -54t-120 -21v-12q46 -11 82 -52.5t36 -94.5q0 -57 -33 -100.5t-87 -61.5l-5 8q39 34 39 70q0 26 -14.5 47.5t-34.5 21.5v174q-167 6 -289 125t-122 285q0 192 131.5 327.5t324.5 135.5z" />
    <glyph glyph-name="egrave" unicode="&#xe8;" horiz-adv-x="940" 
d="M344 1360q59 0 98 -45l207 -277l-10 -14l-320 98q-41 12 -67.5 46t-26.5 79q0 47 35.5 80t83.5 33zM864 483h-545q2 -139 83 -231t231 -92q60 0 118.5 29t84.5 67q4 5 7.5 12t5.5 10.5t4.5 6t6.5 2.5q12 0 12 -15q-12 -51 -43.5 -103.5t-77 -96.5t-107 -71.5
t-126.5 -27.5q-190 0 -320 123t-130 310q0 121 64.5 224.5t163.5 160.5t204 57q98 0 182.5 -53t133 -137t48.5 -175zM319 502h318q0 332 -137 332q-39 0 -69 -13.5t-49 -39.5t-32 -56.5t-19.5 -70.5t-9 -75t-2.5 -77z" />
    <glyph glyph-name="eacute" unicode="&#xe9;" horiz-adv-x="940" 
d="M598 1360q48 0 83.5 -33t35.5 -80q0 -45 -26.5 -79t-67.5 -46l-320 -98l-10 14l207 277q39 45 98 45zM864 483h-545q2 -139 83 -231t231 -92q60 0 118.5 29t84.5 67q4 5 7.5 12t5.5 10.5t4.5 6t6.5 2.5q12 0 12 -15q-12 -51 -43.5 -103.5t-77 -96.5t-107 -71.5
t-126.5 -27.5q-190 0 -320 123t-130 310q0 121 64.5 224.5t163.5 160.5t204 57q98 0 182.5 -53t133 -137t48.5 -175zM319 502h318q0 332 -137 332q-39 0 -69 -13.5t-49 -39.5t-32 -56.5t-19.5 -70.5t-9 -75t-2.5 -77z" />
    <glyph glyph-name="ecircumflex" unicode="&#xea;" horiz-adv-x="940" 
d="M436 1272h127l203 -260h-61l-207 147l-207 -147h-62zM864 483h-545q2 -139 83 -231t231 -92q60 0 118.5 29t84.5 67q4 5 7.5 12t5.5 10.5t4.5 6t6.5 2.5q12 0 12 -15q-12 -51 -43.5 -103.5t-77 -96.5t-107 -71.5t-126.5 -27.5q-190 0 -320 123t-130 310q0 121 64.5 224.5
t163.5 160.5t204 57q98 0 182.5 -53t133 -137t48.5 -175zM319 502h318q0 332 -137 332q-39 0 -69 -13.5t-49 -39.5t-32 -56.5t-19.5 -70.5t-9 -75t-2.5 -77z" />
    <glyph glyph-name="edieresis" unicode="&#xeb;" horiz-adv-x="940" 
d="M129 1143q0 53 37.5 90t89.5 37t89.5 -37t37.5 -90t-37.5 -90t-89.5 -37t-89.5 37t-37.5 90zM557 1143q0 53 37.5 90t89.5 37t89.5 -37t37.5 -90t-37.5 -90t-89.5 -37t-89.5 37t-37.5 90zM864 483h-545q2 -139 83 -231t231 -92q60 0 118.5 29t84.5 67q4 5 7.5 12
t5.5 10.5t4.5 6t6.5 2.5q12 0 12 -15q-12 -51 -43.5 -103.5t-77 -96.5t-107 -71.5t-126.5 -27.5q-190 0 -320 123t-130 310q0 121 64.5 224.5t163.5 160.5t204 57q98 0 182.5 -53t133 -137t48.5 -175zM319 502h318q0 332 -137 332q-39 0 -69 -13.5t-49 -39.5t-32 -56.5
t-19.5 -70.5t-9 -75t-2.5 -77z" />
    <glyph glyph-name="igrave" unicode="&#xec;" horiz-adv-x="548" 
d="M143 1360q60 0 99 -45l207 -277l-11 -14l-319 98q-41 12 -67.5 46t-26.5 79q0 47 35 80t83 33zM530 0h-495v16q64 0 92.5 32t28.5 104v430q0 29 -30.5 63t-56 51.5t-51.5 32.5v14q76 9 170.5 35t151.5 48l57 22h13v-696q0 -72 28 -104t92 -32v-16z" />
    <glyph glyph-name="iacute" unicode="&#xed;" horiz-adv-x="548" 
d="M369 1360q48 0 83 -33t35 -80q0 -45 -26.5 -79t-67.5 -46l-319 -98l-11 14l207 277q39 45 99 45zM530 0h-495v16q64 0 92.5 32t28.5 104v430q0 29 -30.5 63t-56 51.5t-51.5 32.5v14q76 9 170.5 35t151.5 48l57 22h13v-696q0 -72 28 -104t92 -32v-16z" />
    <glyph glyph-name="icircumflex" unicode="&#xee;" horiz-adv-x="548" 
d="M213 1272h127l203 -260h-62l-207 147l-206 -147h-62zM530 0h-495v16q64 0 92.5 32t28.5 104v430q0 29 -30.5 63t-56 51.5t-51.5 32.5v14q76 9 170.5 35t151.5 48l57 22h13v-696q0 -72 28 -104t92 -32v-16z" />
    <glyph glyph-name="idieresis" unicode="&#xef;" horiz-adv-x="548" 
d="M-33 1143q0 53 37.5 90t89.5 37t89.5 -37t37.5 -90t-37.5 -90t-89.5 -37t-89.5 37t-37.5 90zM330 1143q0 53 37 90t90 37t90 -37t37 -90t-37 -90t-90 -37t-90 37t-37 90zM530 0h-495v16q64 0 92.5 32t28.5 104v430q0 29 -30.5 63t-56 51.5t-51.5 32.5v14q76 9 170.5 35
t151.5 48l57 22h13v-696q0 -72 28 -104t92 -32v-16z" />
    <glyph glyph-name="eth" unicode="&#xf0;" 
d="M532 831q-40 0 -70 -14.5t-49 -44.5t-31.5 -64t-18 -86.5t-7.5 -98.5t-2 -111q0 -66 2 -111.5t7.5 -98t18 -87t31.5 -64.5t49 -44.5t70 -14.5t70 14.5t49.5 44.5t31.5 64.5t18 86.5t8 98.5t2 111.5t-2 111.5t-8 98.5t-18 86.5t-31.5 64t-49.5 44t-70 14.5zM268 942v43
l234 133q-133 152 -273 199v26q69 -2 176 -42.5t211 -116.5l246 141v-43l-213 -123q74 -59 135 -129.5t112.5 -162.5t80.5 -208.5t29 -246.5q0 -123 -66 -224.5t-174.5 -158t-233.5 -56.5t-233.5 56.5t-174 158t-65.5 224.5t65.5 224.5t174 157.5t233.5 56q63 0 142 -21
q-54 143 -148 261z" />
    <glyph glyph-name="ntilde" unicode="&#xf1;" 
d="M281 1016q0 86 57.5 153.5t142.5 67.5q12 0 24 -1.5t20.5 -3.5t21 -6.5t18 -7t19.5 -8.5t18 -8t18 -8t19.5 -8.5t18 -7t21 -6.5t20.5 -3.5t24 -1.5q26 0 47 16t27 38h10q0 -61 -62 -129t-139 -68q-61 0 -121 25q-3 1 -12.5 5.5t-13.5 6t-12.5 5t-14 5t-14 3.5t-17 2.5
t-18.5 0.5q-33 0 -58.5 -16.5t-31.5 -44.5h-12zM715 848q83 0 149 -57t66 -140v-499q0 -75 22.5 -105.5t85.5 -30.5v-16h-471v16q63 0 86 31t23 105v434q0 75 -30.5 117t-88.5 42q-32 0 -60.5 -11.5t-43 -23t-47.5 -40.5v-518q0 -75 22.5 -105.5t85.5 -30.5v-16h-471v16
q63 0 86 31t23 105v434q0 64 -125 137v14q76 9 167.5 37.5t145.5 53.5l53 24h13v-156q195 152 309 152z" />
    <glyph glyph-name="ograve" unicode="&#xf2;" 
d="M393 1360q60 0 99 -45l206 -277l-10 -14l-319 98q-41 12 -68 46.5t-27 78.5q0 47 35.5 80t83.5 33zM532 831q-40 0 -70 -14.5t-49 -44.5t-31.5 -64t-18 -86.5t-7.5 -98.5t-2 -111q0 -66 2 -111.5t7.5 -98t18 -87t31.5 -64.5t49 -44.5t70 -14.5t70 14.5t49.5 44.5
t31.5 64.5t18 86.5t8 98.5t2 111.5t-2 111.5t-8 98.5t-18 86.5t-31.5 64t-49.5 44t-70 14.5zM532 850q125 0 233.5 -56t174.5 -157.5t66 -224.5t-66 -224.5t-174.5 -158t-233.5 -56.5t-233.5 56.5t-174 158t-65.5 224.5t65.5 224.5t174 157.5t233.5 56z" />
    <glyph glyph-name="oacute" unicode="&#xf3;" 
d="M602 1360q48 0 83.5 -33t35.5 -80q0 -45 -26.5 -79t-67.5 -46l-320 -98l-10 14l207 277q39 45 98 45zM532 831q-40 0 -70 -14.5t-49 -44.5t-31.5 -64t-18 -86.5t-7.5 -98.5t-2 -111q0 -66 2 -111.5t7.5 -98t18 -87t31.5 -64.5t49 -44.5t70 -14.5t70 14.5t49.5 44.5
t31.5 64.5t18 86.5t8 98.5t2 111.5t-2 111.5t-8 98.5t-18 86.5t-31.5 64t-49.5 44t-70 14.5zM532 850q125 0 233.5 -56t174.5 -157.5t66 -224.5t-66 -224.5t-174.5 -158t-233.5 -56.5t-233.5 56.5t-174 158t-65.5 224.5t65.5 224.5t174 157.5t233.5 56z" />
    <glyph glyph-name="ocircumflex" unicode="&#xf4;" 
d="M471 1272h127l203 -260h-62l-207 147l-206 -147h-62zM532 831q-40 0 -70 -14.5t-49 -44.5t-31.5 -64t-18 -86.5t-7.5 -98.5t-2 -111q0 -66 2 -111.5t7.5 -98t18 -87t31.5 -64.5t49 -44.5t70 -14.5t70 14.5t49.5 44.5t31.5 64.5t18 86.5t8 98.5t2 111.5t-2 111.5t-8 98.5
t-18 86.5t-31.5 64t-49.5 44t-70 14.5zM532 850q125 0 233.5 -56t174.5 -157.5t66 -224.5t-66 -224.5t-174.5 -158t-233.5 -56.5t-233.5 56.5t-174 158t-65.5 224.5t65.5 224.5t174 157.5t233.5 56z" />
    <glyph glyph-name="otilde" unicode="&#xf5;" 
d="M281 1016q0 86 57.5 153.5t142.5 67.5q12 0 24 -1.5t20.5 -3.5t21 -6.5t18 -7t19.5 -8.5t18 -8t18 -8t19.5 -8.5t18 -7t21 -6.5t20.5 -3.5t24 -1.5q26 0 47 16t27 38h10q0 -61 -62 -129t-139 -68q-61 0 -121 25q-3 1 -12.5 5.5t-13.5 6t-12.5 5t-14 5t-14 3.5t-17 2.5
t-18.5 0.5q-33 0 -58.5 -16.5t-31.5 -44.5h-12zM532 831q-40 0 -70 -14.5t-49 -44.5t-31.5 -64t-18 -86.5t-7.5 -98.5t-2 -111q0 -66 2 -111.5t7.5 -98t18 -87t31.5 -64.5t49 -44.5t70 -14.5t70 14.5t49.5 44.5t31.5 64.5t18 86.5t8 98.5t2 111.5t-2 111.5t-8 98.5t-18 86.5
t-31.5 64t-49.5 44t-70 14.5zM532 850q125 0 233.5 -56t174.5 -157.5t66 -224.5t-66 -224.5t-174.5 -158t-233.5 -56.5t-233.5 56.5t-174 158t-65.5 224.5t65.5 224.5t174 157.5t233.5 56z" />
    <glyph glyph-name="odieresis" unicode="&#xf6;" 
d="M190 1143q0 53 37 90t90 37t90 -37t37 -90t-37 -90t-90 -37t-90 37t-37 90zM618 1143q0 53 37 90t90 37t90 -37t37 -90t-37 -90t-90 -37t-90 37t-37 90zM532 831q-40 0 -70 -14.5t-49 -44.5t-31.5 -64t-18 -86.5t-7.5 -98.5t-2 -111q0 -66 2 -111.5t7.5 -98t18 -87
t31.5 -64.5t49 -44.5t70 -14.5t70 14.5t49.5 44.5t31.5 64.5t18 86.5t8 98.5t2 111.5t-2 111.5t-8 98.5t-18 86.5t-31.5 64t-49.5 44t-70 14.5zM532 850q125 0 233.5 -56t174.5 -157.5t66 -224.5t-66 -224.5t-174.5 -158t-233.5 -56.5t-233.5 56.5t-174 158t-65.5 224.5
t65.5 224.5t174 157.5t233.5 56z" />
    <glyph glyph-name="divide" unicode="&#xf7;" horiz-adv-x="1189" 
d="M1038 360h-886v168h886v-168zM473 737q0 50 35 85.5t84 35.5q50 0 84.5 -35.5t34.5 -85.5q0 -51 -34 -85t-85 -34q-50 0 -84.5 34t-34.5 85zM473 152q0 49 34.5 83.5t84.5 34.5q51 0 85 -34t34 -84q0 -51 -34 -86t-85 -35q-50 0 -84.5 35t-34.5 86z" />
    <glyph glyph-name="oslash" unicode="&#xf8;" 
d="M532 831q-40 0 -70 -14.5t-49 -44.5t-31.5 -64t-18 -86.5t-7.5 -98.5t-2 -111q0 -202 27 -291l301 590q-39 120 -150 120zM299 -123l-33 21l62 118q-121 54 -195 159.5t-74 236.5q0 123 65.5 224.5t174 157.5t233.5 56q108 0 201 -41l64 125l32 -21l-61 -120
q108 -57 173 -157.5t65 -223.5t-66 -224.5t-174.5 -158t-233.5 -56.5q-85 0 -170 29zM696 653l-297 -579q43 -82 133 -82q40 0 70 14.5t49.5 44.5t31.5 64.5t18 86.5t8 98.5t2 111.5q0 156 -15 241z" />
    <glyph glyph-name="ugrave" unicode="&#xf9;" horiz-adv-x="1144" 
d="M453 1360q59 0 98 -45l207 -277l-10 -14l-320 98q-41 12 -67.5 46t-26.5 79q0 47 35.5 80t83.5 33zM993 852v-692q0 -41 43 -67.5t82 -33.5v-14q-156 -2 -377 -92h-12v168q-45 -50 -140 -99t-169 -49q-87 0 -171.5 58t-84.5 139v420q0 29 -30.5 63t-55.5 51.5t-51 32.5
v15q76 9 174 34.5t159 46.5l60 21h12v-633q0 -78 42 -122t104 -44q77 0 151 99v434q0 41 -57.5 84.5t-104.5 62.5v15q76 9 179.5 34.5t169.5 46.5l65 21h12z" />
    <glyph glyph-name="uacute" unicode="&#xfa;" horiz-adv-x="1144" 
d="M670 1360q48 0 83 -33t35 -80q0 -45 -26.5 -79t-67.5 -46l-319 -98l-10 14l206 277q39 45 99 45zM993 852v-692q0 -41 43 -67.5t82 -33.5v-14q-156 -2 -377 -92h-12v168q-45 -50 -140 -99t-169 -49q-87 0 -171.5 58t-84.5 139v420q0 29 -30.5 63t-55.5 51.5t-51 32.5v15
q76 9 174 34.5t159 46.5l60 21h12v-633q0 -78 42 -122t104 -44q77 0 151 99v434q0 41 -57.5 84.5t-104.5 62.5v15q76 9 179.5 34.5t169.5 46.5l65 21h12z" />
    <glyph glyph-name="ucircumflex" unicode="&#xfb;" horiz-adv-x="1144" 
d="M514 1272h127l203 -260h-62l-207 147l-206 -147h-62zM993 852v-692q0 -41 43 -67.5t82 -33.5v-14q-156 -2 -377 -92h-12v168q-45 -50 -140 -99t-169 -49q-87 0 -171.5 58t-84.5 139v420q0 29 -30.5 63t-55.5 51.5t-51 32.5v15q76 9 174 34.5t159 46.5l60 21h12v-633
q0 -78 42 -122t104 -44q77 0 151 99v434q0 41 -57.5 84.5t-104.5 62.5v15q76 9 179.5 34.5t169.5 46.5l65 21h12z" />
    <glyph glyph-name="udieresis" unicode="&#xfc;" horiz-adv-x="1144" 
d="M240 1143q0 53 37 90t90 37t90 -37t37 -90t-37 -90t-90 -37t-90 37t-37 90zM668 1143q0 53 37 90t90 37t90 -37t37 -90t-37 -90t-90 -37t-90 37t-37 90zM993 852v-692q0 -41 43 -67.5t82 -33.5v-14q-156 -2 -377 -92h-12v168q-45 -50 -140 -99t-169 -49q-87 0 -171.5 58
t-84.5 139v420q0 29 -30.5 63t-55.5 51.5t-51 32.5v15q76 9 174 34.5t159 46.5l60 21h12v-633q0 -78 42 -122t104 -44q77 0 151 99v434q0 41 -57.5 84.5t-104.5 62.5v15q76 9 179.5 34.5t169.5 46.5l65 21h12z" />
    <glyph glyph-name="yacute" unicode="&#xfd;" horiz-adv-x="1044" 
d="M641 1360q48 0 83.5 -33t35.5 -80q0 -45 -26.5 -79t-67.5 -46l-320 -98l-10 14l207 277q39 45 98 45zM461 713l186 -420l90 203q35 79 35 159q0 68 -32 112t-99 44v14h383v-14q-24 0 -47 -8.5t-41 -20t-36.5 -33.5t-30.5 -38t-27.5 -44.5t-22.5 -43t-20.5 -43
t-16.5 -35.5l-272 -570q-14 -29 -39.5 -60.5t-70 -61t-89.5 -29.5q-50 0 -83 37.5t-33 89.5q0 43 29 74.5t71 31.5q44 0 78 -43q4 -5 15.5 -21t17 -22.5t17 -13t23.5 -6.5q20 0 34.5 15t19.5 36l-334 694q-33 69 -60 92t-88 23v14h517v-14q-43 0 -62.5 -17.5t-19.5 -43.5
q0 -17 8 -37z" />
    <glyph glyph-name="thorn" unicode="&#xfe;" horiz-adv-x="1060" 
d="M408 -4v-49q0 -72 28 -103.5t92 -31.5v-17h-493v17q65 0 93 31.5t28 103.5v1149q0 39 -48.5 84t-89.5 69v15q76 9 170.5 36.5t151.5 50.5l57 23h13v-667q28 27 37.5 36t41.5 34.5t54.5 37t57.5 22.5t69 11q97 0 174 -55t117 -142t40 -186q0 -98 -32.5 -186.5
t-91.5 -156.5t-148.5 -108.5t-196.5 -40.5q-53 0 -124 23zM410 682v-449q0 -115 29.5 -179t105.5 -64q110 0 151 104q15 37 23 96t9 102.5t1 127.5q0 78 -25 150t-76.5 120.5t-117.5 48.5q-47 0 -100 -57z" />
    <glyph glyph-name="ydieresis" unicode="&#xff;" horiz-adv-x="1044" 
d="M240 1143q0 53 37 90t90 37t90 -37t37 -90t-37 -90t-90 -37t-90 37t-37 90zM668 1143q0 53 37 90t90 37t90 -37t37 -90t-37 -90t-90 -37t-90 37t-37 90zM461 713l186 -420l90 203q35 79 35 159q0 68 -32 112t-99 44v14h383v-14q-24 0 -47 -8.5t-41 -20t-36.5 -33.5
t-30.5 -38t-27.5 -44.5t-22.5 -43t-20.5 -43t-16.5 -35.5l-272 -570q-14 -29 -39.5 -60.5t-70 -61t-89.5 -29.5q-50 0 -83 37.5t-33 89.5q0 43 29 74.5t71 31.5q44 0 78 -43q4 -5 15.5 -21t17 -22.5t17 -13t23.5 -6.5q20 0 34.5 15t19.5 36l-334 694q-33 69 -60 92t-88 23
v14h517v-14q-43 0 -62.5 -17.5t-19.5 -43.5q0 -17 8 -37z" />
    <glyph glyph-name="Aogonek" unicode="&#x104;" horiz-adv-x="1466" 
d="M573 932l-192 -486h389zM20 14q48 0 97 36.5t90.5 96.5t73 120.5t57.5 125.5l225 565q-27 46 -78 80v11q76 60 122 141.5t91 206.5h11l491 -1196q33 -82 94 -134.5t152 -52.5v-14h-424q-88 -88 -88 -184q0 -37 18 -57.5t52 -20.5q56 0 86 59l8 -2q-35 -71 -75.5 -107
t-100.5 -36q-56 0 -87.5 32t-31.5 85q0 59 43.5 114.5t134.5 116.5h-231v14q149 0 149 92q0 24 -20 64l-99 248h-409l-21 -49q-16 -40 -16 -148q0 -84 51 -145.5t131 -61.5v-14h-496v14z" />
    <glyph glyph-name="aogonek" unicode="&#x105;" horiz-adv-x="913" 
d="M532 461q-131 -49 -178 -103t-47 -153q0 -55 28.5 -96t78.5 -41q26 0 49 11t35 22t34 34v326zM825 49q18 0 32 8.5t21 16.5t9 8q6 0 6 -4q0 -5 -14 -22.5t-50 -41t-81 -32.5q-72 -78 -72 -166q0 -37 18 -57.5t51 -20.5q56 0 86 59l9 -2q-35 -71 -75.5 -107t-100.5 -36
q-56 0 -87.5 32t-31.5 85t35.5 103t109.5 105q-58 1 -102 40t-53 92q-43 -36 -66.5 -54t-61 -40.5t-76 -32t-83.5 -9.5q-80 0 -139.5 54.5t-59.5 130.5q0 40 26.5 77.5t64.5 65t95 56t104 46.5t106.5 41t86.5 35v266q0 31 -24.5 53.5t-58.5 22.5t-82 -41t-48 -90
q0 -108 -16 -164q-31 -114 -139 -114q-46 0 -78.5 33t-32.5 83q0 100 178 213q173 107 316 107q90 0 163.5 -49.5t73.5 -120.5v-539q0 -38 11 -64t30 -26z" />
    <glyph glyph-name="Cacute" unicode="&#x106;" horiz-adv-x="1417" 
d="M827 1741q48 0 83.5 -33t35.5 -80q0 -45 -26.5 -79t-67.5 -46l-320 -98l-10 14l207 277q39 45 98 45zM1264 793q0 50 -31 124t-86 151.5t-121.5 144.5t-146 110t-150.5 43q-72 0 -130 -41.5t-94.5 -108.5t-61 -156t-34.5 -177.5t-10 -180.5q0 -74 3 -139t13 -140.5
t26 -136.5t43.5 -119.5t64 -98.5t89.5 -64t118 -24q77 0 157 42t142 105t112 134.5t76.5 134.5t26.5 100h14v-529h-14q-2 38 -21 70.5t-53 32.5q-28 0 -66 -16.5t-75.5 -36t-114.5 -36t-174 -16.5q-157 0 -291 58.5t-225 158t-142 233t-51 281.5q0 137 63 266t161 220
t221 145.5t241 54.5q86 0 166 -19t127 -42t91.5 -42t68.5 -19q32 0 50 27.5t18 66.5h14v-561h-14z" />
    <glyph glyph-name="cacute" unicode="&#x107;" horiz-adv-x="911" 
d="M602 1360q48 0 83.5 -33t35.5 -80q0 -45 -26.5 -79t-67.5 -46l-320 -98l-10 14l207 277q39 45 98 45zM524 848q79 0 156 -33.5t130.5 -99t53.5 -146.5q0 -65 -34.5 -102t-94.5 -37q-57 0 -92 45t-35 105q0 30 4 75.5t4 73.5q0 38 -33.5 68t-76.5 30q-51 0 -90 -28.5
t-60.5 -75.5t-32 -100t-10.5 -111q0 -167 87.5 -263.5t230.5 -96.5q99 0 176 77q11 11 20 23t13.5 17t7.5 5q10 0 10 -12q0 -29 -16.5 -66t-49.5 -76t-75.5 -72t-100.5 -54t-120 -21q-112 0 -210 54t-158 149.5t-60 208.5q0 192 131.5 327.5t324.5 135.5z" />
    <glyph glyph-name="Ccircumflex" unicode="&#x108;" horiz-adv-x="1417" 
d="M682 1645h127l199 -261h-62l-203 148l-211 -148h-61zM1264 793q0 50 -31 124t-86 151.5t-121.5 144.5t-146 110t-150.5 43q-72 0 -130 -41.5t-94.5 -108.5t-61 -156t-34.5 -177.5t-10 -180.5q0 -74 3 -139t13 -140.5t26 -136.5t43.5 -119.5t64 -98.5t89.5 -64t118 -24
q77 0 157 42t142 105t112 134.5t76.5 134.5t26.5 100h14v-529h-14q-2 38 -21 70.5t-53 32.5q-28 0 -66 -16.5t-75.5 -36t-114.5 -36t-174 -16.5q-157 0 -291 58.5t-225 158t-142 233t-51 281.5q0 137 63 266t161 220t221 145.5t241 54.5q86 0 166 -19t127 -42t91.5 -42
t68.5 -19q32 0 50 27.5t18 66.5h14v-561h-14z" />
    <glyph glyph-name="ccircumflex" unicode="&#x109;" horiz-adv-x="911" 
d="M463 1272h127l203 -260h-62l-207 147l-207 -147h-61zM524 848q79 0 156 -33.5t130.5 -99t53.5 -146.5q0 -65 -34.5 -102t-94.5 -37q-57 0 -92 45t-35 105q0 30 4 75.5t4 73.5q0 38 -33.5 68t-76.5 30q-51 0 -90 -28.5t-60.5 -75.5t-32 -100t-10.5 -111
q0 -167 87.5 -263.5t230.5 -96.5q99 0 176 77q11 11 20 23t13.5 17t7.5 5q10 0 10 -12q0 -29 -16.5 -66t-49.5 -76t-75.5 -72t-100.5 -54t-120 -21q-112 0 -210 54t-158 149.5t-60 208.5q0 192 131.5 327.5t324.5 135.5z" />
    <glyph glyph-name="Cdotaccent" unicode="&#x10a;" horiz-adv-x="1417" 
d="M602 1561q0 53 37 90t90 37t90 -37t37 -90t-37 -90t-90 -37t-90 37t-37 90zM1264 793q0 50 -31 124t-86 151.5t-121.5 144.5t-146 110t-150.5 43q-72 0 -130 -41.5t-94.5 -108.5t-61 -156t-34.5 -177.5t-10 -180.5q0 -74 3 -139t13 -140.5t26 -136.5t43.5 -119.5
t64 -98.5t89.5 -64t118 -24q77 0 157 42t142 105t112 134.5t76.5 134.5t26.5 100h14v-529h-14q-2 38 -21 70.5t-53 32.5q-28 0 -66 -16.5t-75.5 -36t-114.5 -36t-174 -16.5q-157 0 -291 58.5t-225 158t-142 233t-51 281.5q0 137 63 266t161 220t221 145.5t241 54.5
q86 0 166 -19t127 -42t91.5 -42t68.5 -19q32 0 50 27.5t18 66.5h14v-561h-14z" />
    <glyph glyph-name="cdotaccent" unicode="&#x10b;" horiz-adv-x="911" 
d="M379 1143q0 53 37.5 90t89.5 37t89.5 -37t37.5 -90t-37.5 -90t-89.5 -37t-89.5 37t-37.5 90zM524 848q79 0 156 -33.5t130.5 -99t53.5 -146.5q0 -65 -34.5 -102t-94.5 -37q-57 0 -92 45t-35 105q0 30 4 75.5t4 73.5q0 38 -33.5 68t-76.5 30q-51 0 -90 -28.5t-60.5 -75.5
t-32 -100t-10.5 -111q0 -167 87.5 -263.5t230.5 -96.5q99 0 176 77q11 11 20 23t13.5 17t7.5 5q10 0 10 -12q0 -29 -16.5 -66t-49.5 -76t-75.5 -72t-100.5 -54t-120 -21q-112 0 -210 54t-158 149.5t-60 208.5q0 192 131.5 327.5t324.5 135.5z" />
    <glyph glyph-name="Ccaron" unicode="&#x10c;" horiz-adv-x="1417" 
d="M672 1401l-207 260h61l207 -148l207 148h61l-202 -260h-127zM1264 793q0 50 -31 124t-86 151.5t-121.5 144.5t-146 110t-150.5 43q-72 0 -130 -41.5t-94.5 -108.5t-61 -156t-34.5 -177.5t-10 -180.5q0 -74 3 -139t13 -140.5t26 -136.5t43.5 -119.5t64 -98.5t89.5 -64
t118 -24q77 0 157 42t142 105t112 134.5t76.5 134.5t26.5 100h14v-529h-14q-2 38 -21 70.5t-53 32.5q-28 0 -66 -16.5t-75.5 -36t-114.5 -36t-174 -16.5q-157 0 -291 58.5t-225 158t-142 233t-51 281.5q0 137 63 266t161 220t221 145.5t241 54.5q86 0 166 -19t127 -42
t91.5 -42t68.5 -19q32 0 50 27.5t18 66.5h14v-561h-14z" />
    <glyph glyph-name="ccaron" unicode="&#x10d;" horiz-adv-x="911" 
d="M444 1012l-206 260h61l207 -148l207 148h61l-203 -260h-127zM524 848q79 0 156 -33.5t130.5 -99t53.5 -146.5q0 -65 -34.5 -102t-94.5 -37q-57 0 -92 45t-35 105q0 30 4 75.5t4 73.5q0 38 -33.5 68t-76.5 30q-51 0 -90 -28.5t-60.5 -75.5t-32 -100t-10.5 -111
q0 -167 87.5 -263.5t230.5 -96.5q99 0 176 77q11 11 20 23t13.5 17t7.5 5q10 0 10 -12q0 -29 -16.5 -66t-49.5 -76t-75.5 -72t-100.5 -54t-120 -21q-112 0 -210 54t-158 149.5t-60 208.5q0 192 131.5 327.5t324.5 135.5z" />
    <glyph glyph-name="Eogonek" unicode="&#x118;" horiz-adv-x="1392" 
d="M604 694q127 0 228.5 95.5t101.5 220.5h14v-688h-14q0 83 -47 165t-124.5 134.5t-158.5 52.5h-61v-522q0 -68 44 -102t113 -34h95q92 0 198 58.5t196.5 167t125.5 235.5h16l-96 -477h-88q-92 -89 -92 -188q0 -37 18 -57.5t51 -20.5q56 0 86 59l9 -2q-35 -71 -76 -107
t-101 -36q-56 0 -87 31.5t-31 84.5q0 60 45 116.5t139 119.5h-1055v14q73 0 128 34.5t55 101.5v1058q0 67 -55.5 103.5t-127.5 36.5v12h1041l147 -373h-12q-48 72 -104.5 132t-126.5 111.5t-155 81t-175 29.5h-125v-647h61z" />
    <glyph glyph-name="eogonek" unicode="&#x119;" horiz-adv-x="940" 
d="M319 502h318q0 332 -137 332q-39 0 -69 -13.5t-49 -39.5t-32 -56.5t-19.5 -70.5t-9 -75t-2.5 -77zM864 483h-545q2 -139 83 -231t231 -92q60 0 118.5 29t84.5 67q4 5 7.5 12t5.5 10.5t4.5 6t6.5 2.5q12 0 12 -15q-20 -84 -87 -164t-158 -114q-117 -83 -117 -178
q0 -37 18 -57.5t52 -20.5q56 0 86 59l8 -2q-35 -71 -75.5 -107t-100.5 -36q-56 0 -87.5 32t-31.5 85q0 114 174 206q-12 -2 -35 -2q-190 0 -320 123t-130 310q0 121 64.5 224.5t163.5 160.5t204 57q98 0 182.5 -53t133 -137t48.5 -175z" />
    <glyph glyph-name="Lslash" unicode="&#x141;" horiz-adv-x="1339" 
d="M12 506v37l224 92v573q0 67 -55.5 103.5t-127.5 36.5v12h672v-12q-72 0 -127 -36.5t-55 -103.5v-448l407 168v-37l-407 -168v-571q0 -68 44 -102t113 -34h95q90 0 194.5 67t191 182.5t122.5 244.5h16l-78 -510h-1188v14q73 0 128 34.5t55 101.5v448z" />
    <glyph glyph-name="lslash" unicode="&#x142;" horiz-adv-x="552" 
d="M532 0h-495v16q64 0 92.5 32t28.5 104v413l-129 -53v37l129 53v504q0 29 -30.5 63t-56 51.5t-51.5 32.5v15q76 9 170.5 35t151.5 47l57 22h13v-665l112 47v-37l-112 -47v-518q0 -72 28 -104t92 -32v-16z" />
    <glyph glyph-name="Nacute" unicode="&#x143;" horiz-adv-x="1579" 
d="M993 1741q48 0 83.5 -33t35.5 -80q0 -45 -26.5 -79t-67.5 -46l-320 -98l-10 14l207 277q39 45 98 45zM1339 -59l-1036 1200v-840q0 -128 63 -206.5t156 -78.5v-16h-459v16q73 0 146.5 82t73.5 203v864q-44 72 -117 126.5t-146 54.5v14h517l782 -916v615q0 121 -73 202.5
t-146 81.5v17h459v-17q-93 0 -156.5 -78.5t-63.5 -205.5v-1118z" />
    <glyph glyph-name="nacute" unicode="&#x144;" 
d="M684 1360q48 0 83.5 -33t35.5 -80q0 -45 -26.5 -79t-67.5 -46l-320 -98l-10 14l207 277q39 45 98 45zM715 848q83 0 149 -57t66 -140v-499q0 -75 22.5 -105.5t85.5 -30.5v-16h-471v16q63 0 86 31t23 105v434q0 75 -30.5 117t-88.5 42q-32 0 -60.5 -11.5t-43 -23
t-47.5 -40.5v-518q0 -75 22.5 -105.5t85.5 -30.5v-16h-471v16q63 0 86 31t23 105v434q0 64 -125 137v14q76 9 167.5 37.5t145.5 53.5l53 24h13v-156q195 152 309 152z" />
    <glyph glyph-name="OE" unicode="&#x152;" horiz-adv-x="2256" 
d="M776 -2q69 0 124.5 23t92.5 59.5t64 93.5t42 113t23.5 131t10.5 133.5t2 134.5q0 75 -2.5 134t-11 134t-23.5 131t-42 113t-64 93.5t-93 59.5t-125 23t-124.5 -23t-93 -59.5t-64.5 -93.5t-41.5 -113t-23 -131t-11 -134t-2.5 -134t2.5 -134.5t11 -134t23.5 -130.5
t42.5 -113t64.5 -93.5t93 -59.5t125 -23zM954 0q-82 -23 -180 -23q-145 0 -277.5 56t-229 150.5t-153.5 226t-57 276.5t57 276.5t153.5 226t229 150.5t277.5 56q107 0 207 -35h1014l147 -373h-12q-48 72 -104.5 132t-126.5 111.5t-155 81t-175 29.5h-125v-647h61
q127 0 228.5 95.5t101.5 220.5h14v-688h-14q0 83 -47 165t-124.5 134.5t-158.5 52.5h-61v-522q0 -68 44.5 -102t113.5 -34h94q92 0 198 58.5t196.5 167t125.5 235.5h16l-96 -477h-1182z" />
    <glyph glyph-name="oe" unicode="&#x153;" horiz-adv-x="1585" 
d="M532 831q-40 0 -70 -14.5t-49 -44.5t-31.5 -64t-18 -86.5t-7.5 -98.5t-2 -111q0 -66 2 -111.5t7.5 -98t18 -87t31.5 -64.5t49 -44.5t70 -14.5t70 14.5t49.5 44.5t31.5 64.5t18 86.5t8 98.5t2 111.5t-2 111.5t-8 98.5t-18 86.5t-31.5 64t-49.5 44t-70 14.5zM965 502h317
q0 332 -137 332q-39 0 -69 -13.5t-49 -39.5t-32 -56t-19 -70.5t-8.5 -75.5t-2.5 -77zM1509 483h-544q2 -139 83 -231t230 -92q60 0 118.5 29t84.5 67q4 5 7.5 12t5.5 10.5t4.5 6t6.5 2.5q13 0 13 -15q-12 -51 -44 -103.5t-77.5 -96.5t-107 -71.5t-126.5 -27.5
q-181 0 -309 115q-137 -115 -319 -115q-125 0 -233.5 56.5t-174.5 158t-66 224.5t66 224.5t174.5 157.5t233.5 56q188 0 325 -121q60 56 135.5 87.5t149.5 31.5q98 0 182.5 -53t133 -137t48.5 -175z" />
    <glyph glyph-name="Sacute" unicode="&#x15a;" horiz-adv-x="1118" 
d="M682 1751q48 0 83.5 -33t35.5 -80q0 -45 -26.5 -79t-67.5 -46l-320 -98l-10 15l207 276q39 45 98 45zM938 907q-14 46 -42.5 104.5t-72 123t-92.5 118t-109.5 88.5t-117.5 35q-84 0 -136.5 -58.5t-52.5 -154.5q0 -93 49 -152t138 -104q26 -13 174 -74t215 -110
q156 -118 156 -320q0 -108 -54.5 -207t-154.5 -163t-220 -64q-85 0 -159.5 13.5t-115.5 29.5t-79.5 29.5t-60.5 13.5q-23 0 -39.5 -13t-20.5 -36h-6v510h10q15 -51 38.5 -110t68 -137t95.5 -139t125 -103.5t153 -42.5q87 0 139.5 72.5t52.5 168.5q0 119 -110 201
q-57 43 -201.5 109.5t-200.5 101.5q-94 58 -147.5 136t-53.5 190q0 177 121 304.5t297 127.5q62 0 126.5 -21.5t115.5 -43t82 -21.5q20 0 33 15.5t16 35.5h10l41 -453h-10z" />
    <glyph glyph-name="sacute" unicode="&#x15b;" horiz-adv-x="751" 
d="M467 1360q48 0 83.5 -33t35.5 -80q0 -45 -26.5 -79t-67.5 -46l-320 -98l-10 14l207 277q39 45 98 45zM621 526q-20 42 -49.5 88.5t-68.5 94.5t-86.5 79t-90.5 31q-38 0 -63 -31.5t-25 -72.5q0 -25 14 -46t44.5 -41t57 -33.5t75 -35.5t73.5 -35q91 -47 143.5 -105
t52.5 -145q0 -125 -86.5 -213t-210.5 -88q-90 0 -172 22t-125 58v299h15q14 -38 32 -78t48.5 -93.5t62.5 -93.5t74 -68.5t84 -28.5t71 31.5t29 74.5q0 20 -4 38t-9 32t-17 29.5t-19.5 25t-26 23t-27.5 20t-32.5 19t-32 17t-35.5 17.5t-34 17q-46 23 -75.5 41.5t-62 48
t-48 68t-15.5 86.5q0 115 88.5 192.5t208.5 77.5q62 0 110.5 -14t112.5 -43l31 -263z" />
    <glyph glyph-name="Scaron" unicode="&#x160;" horiz-adv-x="1118" 
d="M508 1417l-207 260h61l207 -147l207 147h62l-203 -260h-127zM938 907q-14 46 -42.5 104.5t-72 123t-92.5 118t-109.5 88.5t-117.5 35q-84 0 -136.5 -58.5t-52.5 -154.5q0 -93 49 -152t138 -104q26 -13 174 -74t215 -110q156 -118 156 -320q0 -108 -54.5 -207t-154.5 -163
t-220 -64q-85 0 -159.5 13.5t-115.5 29.5t-79.5 29.5t-60.5 13.5q-23 0 -39.5 -13t-20.5 -36h-6v510h10q15 -51 38.5 -110t68 -137t95.5 -139t125 -103.5t153 -42.5q87 0 139.5 72.5t52.5 168.5q0 119 -110 201q-57 43 -201.5 109.5t-200.5 101.5q-94 58 -147.5 136
t-53.5 190q0 177 121 304.5t297 127.5q62 0 126.5 -21.5t115.5 -43t82 -21.5q20 0 33 15.5t16 35.5h10l41 -453h-10z" />
    <glyph glyph-name="scaron" unicode="&#x161;" horiz-adv-x="751" 
d="M317 1012l-206 260h61l207 -148l207 148h61l-203 -260h-127zM621 526q-20 42 -49.5 88.5t-68.5 94.5t-86.5 79t-90.5 31q-38 0 -63 -31.5t-25 -72.5q0 -25 14 -46t44.5 -41t57 -33.5t75 -35.5t73.5 -35q91 -47 143.5 -105t52.5 -145q0 -125 -86.5 -213t-210.5 -88
q-90 0 -172 22t-125 58v299h15q14 -38 32 -78t48.5 -93.5t62.5 -93.5t74 -68.5t84 -28.5t71 31.5t29 74.5q0 20 -4 38t-9 32t-17 29.5t-19.5 25t-26 23t-27.5 20t-32.5 19t-32 17t-35.5 17.5t-34 17q-46 23 -75.5 41.5t-62 48t-48 68t-15.5 86.5q0 115 88.5 192.5
t208.5 77.5q62 0 110.5 -14t112.5 -43l31 -263z" />
    <glyph glyph-name="Zacute" unicode="&#x179;" horiz-adv-x="1333" 
d="M983 1729q48 0 83.5 -33t35.5 -80q0 -45 -26.5 -79t-67.5 -46l-320 -98l-10 14l207 276q40 46 98 46zM125 952l174 408h975l-862 -1344h125q109 0 221 40t203.5 104t164.5 137t121 147h15l-156 -444h-1081l860 1341h-101q-96 0 -195.5 -35.5t-183.5 -94t-151.5 -124.5
t-116.5 -135h-12z" />
    <glyph glyph-name="zacute" unicode="&#x17a;" horiz-adv-x="997" 
d="M692 1360q48 0 83.5 -33t35.5 -80q0 -45 -26.5 -79t-67.5 -46l-320 -98l-10 14l207 277q39 45 98 45zM887 809l-516 -793q106 0 218 57.5t196 148.5t118 190h12l-71 -412h-811l534 807q-143 0 -270.5 -85t-202.5 -239h-12l90 342h715v-16z" />
    <glyph glyph-name="Zdotaccent" unicode="&#x17b;" horiz-adv-x="1333" 
d="M725 1516q0 52 37 89t90 37t90 -37t37 -89t-37.5 -89.5t-89.5 -37.5t-89.5 37.5t-37.5 89.5zM125 952l174 408h975l-862 -1344h125q109 0 221 40t203.5 104t164.5 137t121 147h15l-156 -444h-1081l860 1341h-101q-96 0 -195.5 -35.5t-183.5 -94t-151.5 -124.5
t-116.5 -135h-12z" />
    <glyph glyph-name="zdotaccent" unicode="&#x17c;" horiz-adv-x="997" 
d="M436 1143q0 53 37 90t90 37t90 -37t37 -90t-37 -90t-90 -37t-90 37t-37 90zM887 809l-516 -793q106 0 218 57.5t196 148.5t118 190h12l-71 -412h-811l534 807q-143 0 -270.5 -85t-202.5 -239h-12l90 342h715v-16z" />
    <glyph glyph-name="Zcaron" unicode="&#x17d;" horiz-adv-x="1333" 
d="M770 1391l-207 260h62l206 -148l207 148h62l-203 -260h-127zM125 952l174 408h975l-862 -1344h125q109 0 221 40t203.5 104t164.5 137t121 147h15l-156 -444h-1081l860 1341h-101q-96 0 -195.5 -35.5t-183.5 -94t-151.5 -124.5t-116.5 -135h-12z" />
    <glyph glyph-name="zcaron" unicode="&#x17e;" horiz-adv-x="997" 
d="M485 1012l-206 260h61l207 -148l207 148h61l-203 -260h-127zM887 809l-516 -793q106 0 218 57.5t196 148.5t118 190h12l-71 -412h-811l534 807q-143 0 -270.5 -85t-202.5 -239h-12l90 342h715v-16z" />
    <glyph glyph-name="caron" unicode="&#x2c7;" horiz-adv-x="548" 
d="M213 1012l-207 260h62l206 -148l207 148h62l-203 -260h-127z" />
    <glyph glyph-name="breve" unicode="&#x2d8;" horiz-adv-x="548" 
d="M100 1245q15 -51 56 -71.5t120 -20.5q78 0 120 21t55 71h69q-15 -111 -79 -170t-165 -59q-103 0 -166.5 58t-78.5 171h69z" />
    <glyph glyph-name="dotaccent" unicode="&#x2d9;" horiz-adv-x="634" 
d="M190 1143q0 53 37 90t90 37t90 -37t37 -90t-37 -90t-90 -37t-90 37t-37 90z" />
    <glyph glyph-name="ring" unicode="&#x2da;" horiz-adv-x="770" 
d="M385 1208q72 0 124 -51t52 -123q0 -73 -52 -124.5t-124 -51.5q-73 0 -124.5 51t-51.5 125q0 72 52 123t124 51zM473 1034q0 36 -26 62t-62 26q-37 0 -63.5 -25.5t-26.5 -62.5q0 -38 26 -64t64 -26q37 0 62.5 26t25.5 64z" />
    <glyph glyph-name="ogonek" unicode="&#x2db;" horiz-adv-x="409" 
d="M350 -203l8 -2q-35 -71 -75.5 -107t-100.5 -36q-56 0 -87.5 32t-31.5 85q0 64 53 125.5t163 130.5h30q-114 -102 -114 -209q0 -37 18 -57.5t51 -20.5q56 0 86 59z" />
    <glyph glyph-name="quoteleft" unicode="&#x2018;" horiz-adv-x="495" 
d="M260 772q-76 0 -127 61t-51 142q0 68 29 131t76 109t100 80t108 53v-17q-52 -18 -90.5 -54.5t-38.5 -88.5q0 -31 15 -55t37 -41t44 -35.5t37 -48t15 -68.5q0 -69 -44.5 -118.5t-109.5 -49.5z" />
    <glyph glyph-name="quoteright" unicode="&#x2019;" horiz-adv-x="495" 
d="M236 1348q76 0 127 -61t51 -142q0 -68 -29 -131t-76.5 -109t-100.5 -80t-108 -53v16q52 18 90.5 55t38.5 89q0 31 -15 55t-37 41t-43.5 35.5t-36.5 48t-15 68.5q0 69 44.5 118.5t109.5 49.5z" />
    <glyph glyph-name="quotesinglbase" unicode="&#x201a;" horiz-adv-x="612" 
d="M307 326q76 0 127 -61t51 -142q0 -68 -29 -131t-76 -109t-100 -80t-108 -53v17q52 18 90.5 54.5t38.5 88.5q0 31 -15 55t-37 41t-43.5 35.5t-36.5 48t-15 68.5q0 69 44 118.5t109 49.5z" />
    <glyph glyph-name="quotedblleft" unicode="&#x201c;" horiz-adv-x="837" 
d="M215 1348q76 0 127 -61t51 -142q0 -68 -29 -131t-76 -109t-100 -80t-108 -53v16q52 18 90.5 55t38.5 89q0 31 -15 55t-37 41t-44 35.5t-37 48t-15 68.5q0 69 44.5 118.5t109.5 49.5zM598 1348q76 0 127 -61t51 -142q0 -68 -29 -131t-76 -109t-100 -80t-108 -53v16
q52 18 90.5 55t38.5 89q0 31 -15 55t-37 41t-44 35.5t-37 48t-15 68.5q0 69 44.5 118.5t109.5 49.5z" />
    <glyph glyph-name="quotedblright" unicode="&#x201d;" horiz-adv-x="837" 
d="M623 772q-76 0 -127.5 61.5t-51.5 141.5q0 68 29 131t76.5 109t100.5 80t108 53v-17q-52 -18 -90.5 -54.5t-38.5 -88.5q0 -31 15 -55t36.5 -41t43.5 -35.5t37 -48t15 -68.5q0 -69 -44 -118.5t-109 -49.5zM240 772q-76 0 -127.5 61.5t-51.5 141.5q0 68 29 131t76.5 109
t100.5 80t108 53v-17q-52 -18 -90.5 -54.5t-38.5 -88.5q0 -31 15 -55t37 -41t43.5 -35.5t36.5 -48t15 -68.5q0 -69 -44 -118.5t-109 -49.5z" />
    <glyph glyph-name="quotedblbase" unicode="&#x201e;" horiz-adv-x="837" 
d="M215 326q76 0 127 -61t51 -142q0 -68 -29 -131t-76 -109t-100 -80t-108 -53v17q52 18 90.5 54.5t38.5 88.5q0 31 -15 55t-37 41t-44 35.5t-37 48t-15 68.5q0 69 44.5 118.5t109.5 49.5zM598 326q76 0 127 -61t51 -142q0 -68 -29 -131t-76 -109t-100 -80t-108 -53v17
q52 18 90.5 54.5t38.5 88.5q0 31 -15 55t-37 41t-44 35.5t-37 48t-15 68.5q0 69 44.5 118.5t109.5 49.5z" />
    <glyph glyph-name="Euro" unicode="&#x20ac;" horiz-adv-x="1271" 
d="M1149 793q0 52 -20.5 125t-60.5 150.5t-90 144.5t-117 110t-134 43q-78 0 -140 -79t-96 -193.5t-47 -251.5h441v-37h-443q-4 -70 -4 -103q0 -65 2 -100h445v-37h-443q5 -91 17 -170.5t36 -158t57.5 -133.5t85 -89t116.5 -34q69 0 134.5 42t112 105t82 135t53 134
t17.5 100h14v-529h-14q-2 38 -21 70.5t-53 32.5q-29 0 -63 -16.5t-63.5 -36t-83 -36t-115.5 -16.5q-139 0 -255 46t-196.5 127.5t-131 190t-67.5 236.5h-81v37h77q-4 62 -4 94q0 62 8 109h-81v37h90q34 151 131.5 275.5t229.5 194.5t269 70q70 0 129 -19t90 -42t63 -42
t56 -19q32 0 50 27.5t18 66.5h14v-561h-14z" />
    <glyph glyph-name="uniFB00" unicode="&#xfb00;" horiz-adv-x="1128" 
d="M432 829q85 0 152 87t67 202q0 60 -18 115.5t-54.5 94t-84.5 38.5q-54 0 -94 -38.5t-40 -96.5q0 -80 35.5 -199t36.5 -203zM696 1208q20 70 79.5 123t133.5 53q71 0 124.5 -53t53.5 -123q0 -52 -30 -91.5t-78 -39.5q-43 0 -75 30.5t-32 72.5q0 20 5.5 51t5.5 51
t-14.5 38.5t-32.5 18.5q-14 0 -33 -22t-19 -45q0 -51 36.5 -196.5t37.5 -235.5h178l-41 -101h-143v-587q0 -136 137 -136v-16h-526v16q66 0 98.5 32.5t32.5 103.5v587h-164v-739h-389v16q66 0 98.5 32.5t32.5 103.5v587h-98l235 518q59 127 189 127q106 0 198 -176z" />
    <glyph glyph-name="uniFB01" unicode="&#xfb01;" horiz-adv-x="1021" 
d="M565 1384q132 0 227 -79t95 -201q0 -61 -45 -104.5t-107 -43.5q-60 0 -103.5 42t-43.5 102q0 49 -3 83.5t-13 74.5t-34 61.5t-61 21.5q-27 0 -49 -21.5t-33.5 -51.5t-17.5 -56t-6 -41q0 -46 16 -94t32 -107t17 -130v-92q76 9 184.5 35.5t179.5 48.5l70 22h13v-702
q0 -72 28.5 -104t92.5 -32v-16h-496v16q64 0 92.5 32t28.5 104v430q0 42 -64.5 86.5t-128.5 44.5v-713h-395v16q66 0 98.5 32.5t32.5 103.5v587h-98l243 506q28 60 97.5 99.5t150.5 39.5z" />
    <glyph glyph-name="uniFB02" unicode="&#xfb02;" horiz-adv-x="1013" 
d="M860 1356h12v-1204q0 -72 28.5 -104t92.5 -32v-16h-495v16q64 0 92 32t28 104v587h-188v-739h-389v16q66 0 98.5 32.5t32.5 103.5v587h-98l239 518q27 58 79 92.5t106 34.5q46 0 124 -34.5t130 -34.5q20 0 47 10.5t44 20.5zM618 840v266q0 252 -124 252q-55 0 -85 -40
t-30 -108q0 -71 28 -177.5t29 -192.5h182z" />
    <glyph glyph-name="uniFB03" unicode="&#xfb03;" horiz-adv-x="1427" 
d="M436 815q63 0 112.5 47.5t73 117t23.5 144.5q0 91 -45 163.5t-119 72.5q-30 0 -55.5 -19.5t-39.5 -47.5t-22 -55.5t-8 -47.5q0 -46 19.5 -98.5t39.5 -116.5t21 -135v-25zM694 1204q14 32 34.5 60.5t53 57t81 45.5t106.5 17q132 0 226.5 -79t94.5 -201q0 -61 -44.5 -104.5
t-106.5 -43.5q-60 0 -104 42t-44 102q0 39 -1.5 66t-7.5 63t-17 58t-32.5 38t-51.5 16q-27 0 -49 -21.5t-34 -51.5t-18 -56t-6 -41q0 -46 16 -94t32.5 -107t17.5 -130v-92q76 9 184.5 35.5t179.5 48.5l70 22h12v-702q0 -72 28.5 -104t92.5 -32v-16h-496v16q64 0 92.5 32
t28.5 104v430q0 42 -64 86.5t-128 44.5v-713h-396v16q66 0 98.5 32.5t32.5 103.5v587h-145v-739h-389v16q66 0 98.5 32.5t32.5 103.5v587h-98l231 498q68 147 180 147q36 0 69 -16.5t59.5 -46t44 -56t36.5 -61.5z" />
    <glyph glyph-name="uniFB04" unicode="&#xfb04;" horiz-adv-x="1429" 
d="M1034 840v266q0 44 -5.5 84t-19 81t-41.5 65t-67 24q-56 0 -92.5 -41.5t-36.5 -108.5q0 -74 40 -188t40 -182h182zM913 1384q46 0 124 -34.5t130 -34.5q20 0 47.5 10.5t44.5 20.5l17 10h12v-1204q0 -72 28.5 -104t92.5 -32v-16h-496v16q64 0 92.5 32t28.5 104v587h-188
v-739h-389v16q66 0 98.5 32.5t32.5 103.5v587h-158v-739h-389v16q66 0 98.5 32.5t32.5 103.5v587h-98l235 518q29 62 67 91.5t95 29.5q73 0 129 -54.5t86 -121.5q13 34 25.5 57.5t38.5 56.5t67.5 50.5t95.5 17.5zM430 813q114 3 166.5 91t52.5 233q0 87 -49.5 154t-128.5 67
q-35 0 -64 -34.5t-41 -70.5t-12 -57q0 -46 18.5 -100t37.5 -119.5t20 -136.5v-27z" />
    <glyph glyph-name="uniFB05" unicode="&#xfb05;" horiz-adv-x="1114" 
d="M494 840q165 0 331 272h13v-281h247l-45 -92h-202v-518q0 -63 37 -117.5t96 -54.5q66 0 112 62h11q-29 -59 -95.5 -98.5t-146.5 -39.5q-117 0 -193.5 65.5t-76.5 192.5v508h-156v-587q0 -136 137 -136v-16h-526v16q66 0 98.5 32.5t32.5 103.5v587h-98l235 518
q59 127 189 127q70 0 119 -52.5t49 -123.5q0 -52 -30.5 -91.5t-78.5 -39.5q-43 0 -75 30.5t-32 72.5q0 20 5.5 51t5.5 51t-14.5 38.5t-32.5 18.5q-14 0 -33 -22t-19 -45q0 -51 36.5 -196.5t37.5 -235.5h62z" />
    <glyph glyph-name="NULL" horiz-adv-x="0" 
 />
    <glyph glyph-name="CR" horiz-adv-x="614" 
 />
    </font>
</defs>
</svg>
