<svg xmlns="http://www.w3.org/2000/svg" viewBox="0 0 292.92 177.84"><defs><style>.cls-1{fill:#2d110f;}</style></defs><g id="Layer_2" data-name="Layer 2"><g id="Laag_1" data-name="Laag 1"><path class="cls-1" d="M111.68,20.49A7.87,7.87,0,0,0,116.41,19a13.42,13.42,0,0,0,2.51-2.54l-.54-.41-.13.15a10.66,10.66,0,0,1-2.48,2.11,5.21,5.21,0,0,1-2.77.82,3.12,3.12,0,0,1-2.67-1.18,5.36,5.36,0,0,1-.89-3.29,12.93,12.93,0,0,1,2.2-7.14c1.46-2.26,3.19-3.4,5.18-3.4a2.38,2.38,0,0,1,1.22.24.66.66,0,0,1,.38.56,2.18,2.18,0,0,1-.31.73,2.2,2.2,0,0,0-.31,1,1.37,1.37,0,0,0,.47,1.06,1.61,1.61,0,0,0,1.15.43,1.71,1.71,0,0,0,1.74-1.83,2.9,2.9,0,0,0-1-2,4.44,4.44,0,0,0-3.26-1,10.1,10.1,0,0,0-7.35,3.53,11,11,0,0,0-3.43,7.76,5.94,5.94,0,0,0,1.54,4.33A5.32,5.32,0,0,0,111.68,20.49Z"/><path class="cls-1" d="M126.6,20.49a5.7,5.7,0,0,0,1.85-.33A8.88,8.88,0,0,0,131,18.45,12.81,12.81,0,0,0,133,16.38c.53-.71.9-1.25,1.12-1.62-.16.56-.32,1.26-.49,2.1a10.24,10.24,0,0,0-.25,1.91,1.92,1.92,0,0,0,.38,1.21,1.31,1.31,0,0,0,1.09.48,4,4,0,0,0,2.28-.88,19.52,19.52,0,0,0,3.19-3.35l-.45-.39L138.64,17c-.18.18-.34.32-.47.44l-.35.31-.33.26a3.51,3.51,0,0,1-.5.33.85.85,0,0,1-.37.11.49.49,0,0,1-.34-.12.45.45,0,0,1-.14-.38,29.48,29.48,0,0,1,.68-3.25q.42-1.58,1-3.75l1.84-6.64.12-.4a3,3,0,0,1,.12-.38.63.63,0,0,0,0-.23s-.09-.06-.2-.06l-2.14.24c-.14,0-.23,0-.26.1a1.11,1.11,0,0,0-.14.32l-.41,1.4-.1-.26A2.76,2.76,0,0,0,136,4a3.2,3.2,0,0,0-2.29-.76c-2.6,0-5.12,1.47-7.54,4.4s-3.53,5.54-3.53,8.14a4.74,4.74,0,0,0,1.23,3.5A3.75,3.75,0,0,0,126.6,20.49ZM128.22,8.7c1.75-3.1,3.65-4.64,5.69-4.64a2,2,0,0,1,1.5.63,2.72,2.72,0,0,1,.61,2,14.66,14.66,0,0,1-2.49,7.41q-2.59,4.51-5.39,4.51a2.07,2.07,0,0,1-1.58-.67,3.09,3.09,0,0,1-.64-2.17A15,15,0,0,1,128.22,8.7Z"/><path class="cls-1" d="M145.28,6.86,141.7,20.05h2.85c.65-2.09,1.17-3.7,1.56-4.81a21.33,21.33,0,0,1,2.11-4.4,32,32,0,0,1,2.88-3.65c1.17-1.3,2.15-1.95,3-1.95a.8.8,0,0,1,.65.25,1.12,1.12,0,0,1,.2.7,1.84,1.84,0,0,1,0,.33l-.06.32-3.72,13.21H154q1.23-4.5,1.69-5.83a21.22,21.22,0,0,1,1.6-3.29,31.4,31.4,0,0,1,2.94-3.81c1.13-1.25,2.11-1.88,3-1.88a.78.78,0,0,1,.59.24.93.93,0,0,1,.24.69,1.53,1.53,0,0,1,0,.3c0,.1-.05.22-.08.37L161,17.25a5.76,5.76,0,0,0-.14.7,4.28,4.28,0,0,0-.05.6,1.9,1.9,0,0,0,.63,1.61,1.65,1.65,0,0,0,1,.3,4.25,4.25,0,0,0,2.68-1.13,15.42,15.42,0,0,0,2.69-3l.18-.25-.57-.45-1.33,1.62c-.15.18-.35.4-.6.65a4.22,4.22,0,0,1-.64.55,1,1,0,0,1-.59.17.49.49,0,0,1-.48-.25.61.61,0,0,1,0-.49l2.92-10.13a13.53,13.53,0,0,0,.35-2,2.29,2.29,0,0,0-.73-1.9,2.44,2.44,0,0,0-1.6-.59c-1.38,0-3,1-4.76,3a40.35,40.35,0,0,0-3.56,4.8c.53-1.66.9-2.86,1.11-3.61a7.29,7.29,0,0,0,.3-1.75,2.26,2.26,0,0,0-.89-2,2.3,2.3,0,0,0-1.34-.4c-1.31,0-2.81.89-4.52,2.68a47.07,47.07,0,0,0-4,5l2.11-7.59L149,3.26c-2.79.62-4.8,1-6,1.22v.61a7.33,7.33,0,0,1,1.93.1c.33.1.5.39.5.88a1.61,1.61,0,0,1,0,.39A3.24,3.24,0,0,1,145.28,6.86Z"/><path class="cls-1" d="M173.55,7.32l-5.13,18.11a2.48,2.48,0,0,1-.83,1.42,2.79,2.79,0,0,1-1.68.42v.61h7.91v-.56a6.54,6.54,0,0,1-1.91-.28q-.48-.2-.48-1a23.27,23.27,0,0,1,.48-2.41c.12-.55.35-1.45.67-2.72l.3-1.14a9,9,0,0,0,1.31.53,4.87,4.87,0,0,0,1.31.15c2.6,0,5.12-1.3,7.54-3.91a12.12,12.12,0,0,0,3.67-8.31,5.36,5.36,0,0,0-1.15-3.78,4.15,4.15,0,0,0-3.18-1.23,5.86,5.86,0,0,0-3.82,1.56,14.77,14.77,0,0,0-2.24,2.49l1-3.42c0-.11.08-.28.13-.5s-.09-.16-.17-.15l-6,.87,0,.61a2.21,2.21,0,0,1,.35,0h.36a2.39,2.39,0,0,1,1.32.3,1,1,0,0,1,.46.91,3.59,3.59,0,0,1-.05.47C173.75,6.55,173.67,6.87,173.55,7.32Zm.6,8c.47-1.69,1-3.31,1.52-4.86a9.37,9.37,0,0,1,2.51-4.23A4.46,4.46,0,0,1,181,4.93a2,2,0,0,1,2,1.35,5.47,5.47,0,0,1,.28,1.91,14.2,14.2,0,0,1-2.21,7.33c-1.64,2.76-3.53,4.14-5.69,4.14a2.62,2.62,0,0,1-1.38-.34,1.11,1.11,0,0,1-.58-1A18.87,18.87,0,0,1,174.15,15.3Z"/><path class="cls-1" d="M24.91,87.79c10,0,12-3.68,15.13-3.68,1.72,0,2.51,2.09,2.59,3.6h.5v-17a25.31,25.31,0,0,0,47.69,1v5.11C90.82,83,86.07,87,83,87v.59H99.37V87c-4.31,0-7.82-3.94-7.82-10.15V69.37a24.84,24.84,0,0,0,0-12.43V47.22l16.8,40.55h.59l18.41-47-.51,41.35c-.08,3.43-3.44,4.82-6.5,4.82v.59h38.92V87c-4.31,0-7.82-3.94-7.82-10.15V47.22l16.81,40.55h.58l18.41-47-.51,41.35c-.07,3.43-3.43,4.82-6.5,4.82v.59h24V87c-3.07,0-6.5-1.39-6.5-4.82V70.76a25.3,25.3,0,0,0,47.79,1.1v5c0,6.21-4.95,10.16-8.14,10.16v.59h17V87c-4.49,0-8.14-4-8.14-10.16V69.37a24.78,24.78,0,0,0,0-11.94V46.86l38.18,40.75.31-37.82c0-6.22,3.65-10.17,8.14-10.17V39h-17v.58c3.2,0,8.14,4,8.14,10.17V71.73L254.91,39H235.74v.51c3.88,0,7.76,3.29,9.74,6.43v9A25.3,25.3,0,0,0,197.69,56V44.52c0-3.44,3.43-5,6.5-5V39H187.31L174.09,72.93,160.5,39H127.42L114.2,72.93,100.61,39H84.32v.51c3.07,0,5.18,2.48,6.5,5.7v9.37a25.3,25.3,0,0,0-47.91,1.67V39h-.5c0,1.72-.79,3.31-2.37,3.31C37.37,42.28,33,38,24.12,38,13,38,0,48.76,0,62.08,0,76.05,9.86,87.79,24.91,87.79ZM221.77,39.21c11.74,0,12.67,13.53,12.67,24.19s-.86,24.2-12.6,24.2S209.1,74.06,209.1,63.4,210,39.21,221.77,39.21Zm-84,5.31c0-3.42,3.39-5,6.44-5s5.16,2.49,6.47,5.7V76.81c0,5.86-4.23,9.7-7.28,10.11-2.81-.24-5.63-1.67-5.63-4.78ZM67.14,39c11.73,0,12.67,13.54,12.67,24.2S79,87.35,67.21,87.35,54.46,73.82,54.46,63.16,55.4,39,67.14,39Zm-43.52-.43c8.59,0,18.49,13.78,18.78,19.9a24.55,24.55,0,0,0-.46,4.73,25.11,25.11,0,0,0,.73,6h0c0,4.24-8.5,18.14-18.08,18.14-11,0-12.53-14.4-12.53-25.42C12,51.71,14.83,38.53,23.62,38.53Z"/><path class="cls-1" d="M287.5,118.92c-4-2.8-9.34-4.1-13.54-6.15-3.71-1.77-6.49-4.09-6.49-8.53s2.71-7.1,6.56-7.1c7,0,13.54,10.79,15.11,15.63h.36V97.67h-1.77c-.15.76-.72,1.72-1.71,1.72-2.71,0-6.21-2.87-11.27-2.87a14.43,14.43,0,0,0-14.42,12.67A22.84,22.84,0,0,0,240.9,97.35c-3.63,0-9.34.34-9.34.34h-27v.55c3,0,7.63,3.7,7.63,9.53v20.56L185,97.69H158.33v.54c3,0,7.62,3.62,7.62,9.33v20.16a16.3,16.3,0,0,1-2.85,9.6,12.25,12.25,0,0,1-9.91,5.31c-8.91,0-14.54-4-14.54-14.71V102.73c0-3.16,3.35-4.57,6.34-4.57v-.47H121.61v.47c3,0,6.35,1.41,6.35,4.57v10.6c-3.2-9.65-12.7-16.6-23.81-16.6a25.2,25.2,0,0,0-21.88,12.33c-.44-6.45-6.91-11.44-14-11.44-3,0-5.77.07-7.7.07l-16.74,0v0c0,1.37-.77,3.09-2.27,3.09-2,0-7.41-4.11-16.47-4.11C11.41,96.73.14,107.22.14,120.38s11,23.85,24.67,23.85c6.56,0,11.69-2.33,16.11-4.66l2.47,3.63H66.77v-.48c-3,0-6.34-1.3-6.34-4.52V121.61h1c3.21.07,4.85,2,5.91,4l9.48,17.61H93v-.48c-3,0-5.07-1.78-6.78-4.52l-2-3.51a25.41,25.41,0,0,0,19.94,9.47c11.11,0,20.61-6.94,23.81-16.59v2.5c0,8.39,9.76,14,19.24,14,8.49,0,13.48-2.29,16.26-5.91a16,16,0,0,0,3.21-10.08V107.56c0-4,1.66-6.94,4.1-8.38a14.66,14.66,0,0,1,5.36,5v28.93c0,5.82-4.64,9.52-7.63,9.52v.55h16v-.55c-4.21,0-7.63-3.7-7.63-9.52V105l35.78,38.18h27c10.31,0,18.18-4.85,21.65-12.85l0,12.85h.22a2.36,2.36,0,0,1,2.08-2c2.5,0,5.78,2.87,14.47,2.87a15,15,0,0,0,14.9-14.47A12.15,12.15,0,0,0,287.5,118.92ZM49.74,138.2c0,2.66-2.28,4-4.76,4.4V129c0-3.42,1.78-5.34,4-5.34v-.55H27.87v.55c4.21,0,6.78,1.57,6.78,4.45v6.93c0,4.79-4.5,8.63-9.56,8.63-11,0-12.61-12.88-12.61-23,0-6,.57-12.82,3.2-17.61,1.93-3.5,4.85-5.83,9.49-5.83,3.13,0,6.84,2.26,10.12,5.35,4,3.7,7.41,8.63,8.55,12.47h.5V98.14c2.81.15,5.4,1.58,5.4,4.62Zm13.61-17.27H60.43V98.38A23.21,23.21,0,0,1,65,98c4.85,0,7.42,6.72,7.42,11.66C72.41,116.47,70.27,120.86,63.35,120.93Zm17,7.12c-1.78-3-5.85-5.75-9.13-6.71a14.31,14.31,0,0,0,8.15-3.89,22.74,22.74,0,0,0,1.35,11.26Zm23.84,15.43c-11.62,0-12.62-12.89-12.62-23s.93-23,12.54-23,12.55,12.88,12.55,23S115.84,143.48,104.23,143.48Zm116.5-5.28c0,3.22-5.12,4.52-8.11,4.52l.29-34.95c0-4.52,2.06-7.75,4.94-9a4.3,4.3,0,0,1,2.88,4Zm17,4.45H234.7c-1.85-.06-3.21-1.16-3.28-4.38V98.38a25.47,25.47,0,0,1,4.92-.48c6.7,0,15.11,4.86,15.11,22.48C251.45,138.34,245.18,142.65,237.77,142.65Zm40.54.91c-8.63,0-14-10.32-16.06-15.91a25.84,25.84,0,0,0,1-7.14c0-.65,0-1.28-.08-1.92a17.31,17.31,0,0,0,4.06,3.19c4.49,2.67,10.26,4.37,14,7,2.28,1.63,3.85,3.68,3.85,6.68C285,139.53,282.51,143.56,278.31,143.56Z"/><path class="cls-1" d="M223.15,11.47h-.25a11.92,11.92,0,0,1-7.7-3.42A10.94,10.94,0,0,1,211.75,0h-.52a11.52,11.52,0,0,1-11.45,11.44V12a11.78,11.78,0,0,1,7.68,3,12,12,0,0,1,3.77,8.5h.52a11.9,11.9,0,0,1,4.06-8.77A11.58,11.58,0,0,1,222.9,12h.27Zm-8.31-3a12.91,12.91,0,0,0,2,1.58,11.33,11.33,0,0,1-5.13,1.37V3.45A11.6,11.6,0,0,0,214.84,8.44Zm-6.8.15a11.74,11.74,0,0,0,3.17-5v7.85a11.19,11.19,0,0,1-5.05-1.34A12,12,0,0,0,208,8.59Zm-2.39,1.77a11.85,11.85,0,0,0,3.51,1.32A11.73,11.73,0,0,0,205.62,13a12.58,12.58,0,0,0-3.48-1.29A12.18,12.18,0,0,0,205.65,10.36Zm2.16,4.2a11.61,11.61,0,0,0-1.67-1.26A11.28,11.28,0,0,1,211.21,12V20A12,12,0,0,0,207.81,14.56Zm7.66-.28a11.87,11.87,0,0,0-3.74,5.86V12a11.32,11.32,0,0,1,5,1.35A11,11,0,0,0,215.47,14.28ZM217.28,13a11.89,11.89,0,0,0-3.53-1.33,11.94,11.94,0,0,0,3.62-1.36,13,13,0,0,0,3.4,1.4A11.72,11.72,0,0,0,217.28,13Z"/><path class="cls-1" d="M76.54,174l0-.16L78,168.59H76.88a.49.49,0,0,1,0-.26s.07-.07.15-.11a6,6,0,0,0,1.18-.62,7.45,7.45,0,0,0,1.15-1.17l.12-.14.06,0a.1.1,0,0,1,.07,0l.11,0a.29.29,0,0,1,0,.09.27.27,0,0,1,0,.09l-.44,1.64h1.24l-.09.52h-1.3l-1.39,5.06a.33.33,0,0,0,0,.26A.21.21,0,0,0,78,174c.13,0,.31-.13.55-.39s.36-.42.68-.83l.2.11-.11.16a5.62,5.62,0,0,1-1.14,1.35,1.58,1.58,0,0,1-.94.38.72.72,0,0,1-.56-.2.67.67,0,0,1-.17-.46Z"/><path class="cls-1" d="M82.47,164.54l.78-.11.52-.08,1-.19h.11c.06,0,.09.06.09.11L83.07,171a18.87,18.87,0,0,1,1.53-2.05,2.85,2.85,0,0,1,1.91-1.12,1.21,1.21,0,0,1,.69.23,1,1,0,0,1,.33.83,2,2,0,0,1,0,.37,2.15,2.15,0,0,1-.09.4l-1,3.61c0,.1-.05.2-.07.29a1.29,1.29,0,0,0,0,.25.26.26,0,0,0,.07.19.19.19,0,0,0,.17.07.87.87,0,0,0,.55-.33c.13-.13.37-.43.73-.89l.2.18a7,7,0,0,1-.9,1.15,1.91,1.91,0,0,1-1.32.64.68.68,0,0,1-.5-.19.67.67,0,0,1-.2-.54,1,1,0,0,1,0-.18.79.79,0,0,1,0-.2l1.14-4.41s0-.09,0-.13a.57.57,0,0,0,0-.13.35.35,0,0,0-.11-.29.45.45,0,0,0-.31-.11q-.49,0-1.26.81a10.58,10.58,0,0,0-1.29,1.65,6.83,6.83,0,0,0-.55,1.13c-.12.35-.35,1.16-.7,2.43H80.91l2.54-9.15c0-.06,0-.12,0-.16v-.13q0-.33-.21-.39a2.93,2.93,0,0,0-.8,0Z"/><path class="cls-1" d="M90.73,169.41a4.27,4.27,0,0,1,3.08-1.57,1.5,1.5,0,0,1,.94.27,1,1,0,0,1,.34.8,2.2,2.2,0,0,1-1.27,1.86,6.58,6.58,0,0,1-2.67.94l-.43.06a4.64,4.64,0,0,0-.13.49,2,2,0,0,0,0,.46,1.3,1.3,0,0,0,.43,1,1.56,1.56,0,0,0,1,.36,2.35,2.35,0,0,0,1.2-.37,10.82,10.82,0,0,0,1.05-.79l.19.18a4.76,4.76,0,0,1-1,.88,3.84,3.84,0,0,1-2.25.81,2,2,0,0,1-1.41-.57,2.1,2.1,0,0,1-.6-1.62A4.64,4.64,0,0,1,90.73,169.41Zm2.44,1a2.25,2.25,0,0,0,.91-1.6.69.69,0,0,0-.14-.45.49.49,0,0,0-.4-.17,1.43,1.43,0,0,0-1,.42,5.87,5.87,0,0,0-.85.94,6.85,6.85,0,0,0-.63,1.18q-.13.3-.27.69A4.41,4.41,0,0,0,93.17,170.42Z"/><path class="cls-1" d="M102.1,169.2a.68.68,0,0,0,0-.14.51.51,0,0,0,0-.13c0-.21-.07-.35-.2-.39a2.18,2.18,0,0,0-.72-.08v-.21l1.13-.22,1.21-.22s0,0,.07,0a.12.12,0,0,1,0,.08l0,.13-1.47,5.09c0,.13-.06.23-.07.3a.64.64,0,0,0,0,.15.41.41,0,0,0,.1.27.38.38,0,0,0,.26.1c.3,0,.68-.27,1.13-.8a12.51,12.51,0,0,0,1.2-1.64,14.18,14.18,0,0,0,.87-1.7c.16-.39.39-1,.7-1.85h1.14L106,173.33c0,.1,0,.2-.06.28a1,1,0,0,0,0,.21.31.31,0,0,0,0,.17.18.18,0,0,0,.16.07.38.38,0,0,0,.23-.08,3.09,3.09,0,0,0,.29-.27,3.86,3.86,0,0,0,.3-.35l.4-.51.22.14a6.18,6.18,0,0,1-.72,1,2,2,0,0,1-1.37.83.8.8,0,0,1-.54-.18.7.7,0,0,1-.21-.56,3.34,3.34,0,0,1,0-.43,5,5,0,0,1,.13-.53c.09-.35.21-.79.35-1.32l.2-.71h0a20.8,20.8,0,0,1-1.66,2.49,2.78,2.78,0,0,1-2,1.26,1,1,0,0,1-.46-.11.78.78,0,0,1-.39-.75,1.93,1.93,0,0,1,0-.26,2.32,2.32,0,0,1,.06-.27Z"/><path class="cls-1" d="M108.6,174.65l1.29-4.66.2-.72a2.13,2.13,0,0,0,0-.27.47.47,0,0,0-.12-.34.67.67,0,0,0-.49-.13h-.17l-.2,0v-.25l.7-.11.44-.09,1.34-.3a.19.19,0,0,1,.06.07l-1,3.24a17.93,17.93,0,0,1,1.55-2.09,3,3,0,0,1,2-1.22,1.26,1.26,0,0,1,.57.13.94.94,0,0,1,.47.9,2.73,2.73,0,0,1,0,.38c0,.13-.06.27-.1.42l-1,3.61c0,.07,0,.17-.07.27a2.23,2.23,0,0,0,0,.23.37.37,0,0,0,.06.21.18.18,0,0,0,.17.09.73.73,0,0,0,.43-.23,9,9,0,0,0,.8-1l.22.2a8.9,8.9,0,0,1-1,1.18,1.75,1.75,0,0,1-1.16.59.86.86,0,0,1-.49-.17.72.72,0,0,1-.23-.61,2.45,2.45,0,0,1,0-.27,1.37,1.37,0,0,1,0-.25l1-3.67c.05-.2.08-.36.1-.49a2.05,2.05,0,0,0,0-.28.54.54,0,0,0-.09-.31.34.34,0,0,0-.31-.13q-.57,0-1.44,1a13.55,13.55,0,0,0-1,1.46,7.4,7.4,0,0,0-.62,1.27c-.15.42-.39,1.17-.72,2.27Z"/><path class="cls-1" d="M116.64,174.65l2.54-9.15s0-.09,0-.13a.57.57,0,0,0,0-.13c0-.22-.06-.36-.19-.4a2.72,2.72,0,0,0-.82-.05v-.25l.83-.11.62-.1.53-.11.5-.1v.08l-2,7.07c1.14-.9,1.91-1.52,2.31-1.88s.6-.63.6-.81a.21.21,0,0,0-.16-.23,4.41,4.41,0,0,0-.7-.07V168h2.83v.25a2,2,0,0,0-1,.37c-.31.22-1.09.87-2.33,1.94.66,1.62,1.08,2.6,1.24,2.93s.34.5.51.5.29-.11.45-.32a5.79,5.79,0,0,0,.46-.73l.24.15a7.75,7.75,0,0,1-.84,1.3,1.12,1.12,0,0,1-.85.41.82.82,0,0,1-.56-.25,5,5,0,0,1-.67-1.17c-.11-.24-.24-.53-.39-.89s-.31-.76-.47-1.21l-.8.58-.69,2.76Z"/><path class="cls-1" d="M124,174.65l1.29-4.66c.11-.4.17-.64.19-.72a1.14,1.14,0,0,0,0-.27.47.47,0,0,0-.12-.34.67.67,0,0,0-.49-.13h-.17l-.2,0v-.25l.7-.11.44-.09,1.34-.3a.19.19,0,0,1,.06.07l-1,3.24a17.93,17.93,0,0,1,1.55-2.09,3,3,0,0,1,2-1.22,1.34,1.34,0,0,1,.58.13,1,1,0,0,1,.46.9,1.76,1.76,0,0,1,0,.38,4.19,4.19,0,0,1-.1.42l-1,3.61c0,.07,0,.17-.07.27a2.23,2.23,0,0,0,0,.23.37.37,0,0,0,.06.21.18.18,0,0,0,.17.09.7.7,0,0,0,.43-.23,9,9,0,0,0,.8-1l.22.2a8.9,8.9,0,0,1-1,1.18,1.73,1.73,0,0,1-1.16.59.86.86,0,0,1-.49-.17.72.72,0,0,1-.23-.61,2.45,2.45,0,0,1,0-.27,1.37,1.37,0,0,1,0-.25l1-3.67c.05-.2.08-.36.1-.49a2.05,2.05,0,0,0,0-.28.54.54,0,0,0-.09-.31.34.34,0,0,0-.31-.13q-.57,0-1.44,1a13.55,13.55,0,0,0-1,1.46,7.4,7.4,0,0,0-.62,1.27c-.15.42-.39,1.17-.72,2.27Z"/><path class="cls-1" d="M138.46,168.48a2.52,2.52,0,0,1,.52,1.6,4.64,4.64,0,0,1-1.41,3.13,4.16,4.16,0,0,1-3.1,1.6,2.33,2.33,0,0,1-1.67-.6,2.27,2.27,0,0,1-.62-1.7,4.64,4.64,0,0,1,1.4-3.16,4.19,4.19,0,0,1,3.1-1.54A2.1,2.1,0,0,1,138.46,168.48Zm-4.66,5.58a1.07,1.07,0,0,0,.91.41c.82,0,1.55-.62,2.18-1.85a6.54,6.54,0,0,0,.81-2.93,2.56,2.56,0,0,0-.14-.91,1,1,0,0,0-1-.65c-.76,0-1.48.57-2.16,1.72a6.26,6.26,0,0,0-1,3.17A1.65,1.65,0,0,0,133.8,174.06Z"/><path class="cls-1" d="M149.27,170.42q-.35.57-1,1.41c-.42.56-.86,1.13-1.3,1.68q-1.06,1.32-1.26,1.32a.1.1,0,0,1-.1-.08,2.21,2.21,0,0,1-.06-.46l-.45-4.69L142,174.72l-.06.06-.07,0-.11,0v-.06l-.09-1.87q0-.61-.09-1.29c0-.44-.07-.83-.11-1.16a6.5,6.5,0,0,0-.33-1.67.69.69,0,0,0-.66-.31h-.37v-.21l.6-.12.62-.13.71-.18c.17,0,.34.71.52,2.14.09.79.18,1.68.25,2.68l3-4.68a.39.39,0,0,1,.08-.1.14.14,0,0,1,.11,0,.1.1,0,0,1,.09,0,1.06,1.06,0,0,1,0,.14l.5,5.45.84-1.07.82-1.06A7.79,7.79,0,0,0,149,170a1.41,1.41,0,0,0,.12-.56.69.69,0,0,0,0-.2.57.57,0,0,0-.15-.2l-.23-.21a.87.87,0,0,1-.17-.22.5.5,0,0,1-.07-.27.67.67,0,0,1,.13-.39.52.52,0,0,1,.48-.19.79.79,0,0,1,.53.22.92.92,0,0,1,.26.73A3.71,3.71,0,0,1,149.27,170.42Z"/><path class="cls-1" d="M150.84,174.65l1.29-4.66c.11-.4.17-.64.19-.72a1.14,1.14,0,0,0,0-.27.47.47,0,0,0-.12-.34.65.65,0,0,0-.49-.13h-.17l-.2,0v-.25l.7-.11.44-.09,1.34-.3a.19.19,0,0,1,.06.07l-1,3.24a17.93,17.93,0,0,1,1.55-2.09,3,3,0,0,1,2-1.22,1.34,1.34,0,0,1,.58.13,1,1,0,0,1,.46.9,1.76,1.76,0,0,1,0,.38,4.19,4.19,0,0,1-.1.42l-1,3.61c0,.07,0,.17-.07.27a1.58,1.58,0,0,0,0,.23.36.36,0,0,0,.05.21.18.18,0,0,0,.17.09.7.7,0,0,0,.43-.23,9,9,0,0,0,.8-1l.22.2a8.9,8.9,0,0,1-1,1.18,1.73,1.73,0,0,1-1.16.59.86.86,0,0,1-.49-.17.72.72,0,0,1-.23-.61,2.45,2.45,0,0,1,0-.27,1.37,1.37,0,0,1,.05-.25l1-3.67a3.27,3.27,0,0,0,.1-.49,2.05,2.05,0,0,0,0-.28.54.54,0,0,0-.09-.31.34.34,0,0,0-.31-.13q-.57,0-1.44,1a13.55,13.55,0,0,0-1,1.46,7.4,7.4,0,0,0-.62,1.27c-.15.42-.39,1.17-.72,2.27Z"/><path class="cls-1" d="M163.46,175.06a4.91,4.91,0,0,1,1.37-1,1.53,1.53,0,0,1-.3-.25.51.51,0,0,1-.12-.35,1.09,1.09,0,0,1,.42-.71,7.61,7.61,0,0,1,.79-.59,2.6,2.6,0,0,1-.83-.52,1.6,1.6,0,0,1-.42-1.15,2.35,2.35,0,0,1,.89-1.89,3.29,3.29,0,0,1,2.2-.76,2.89,2.89,0,0,1,1.16.22,1.3,1.3,0,0,1,.56.36h1v.6h-.76a2,2,0,0,1,.06.3,1.92,1.92,0,0,1,0,.39,2.27,2.27,0,0,1-1,1.92,3.34,3.34,0,0,1-2,.7h-.21l-.24,0c-.08,0-.18.07-.31.21a.6.6,0,0,0-.2.4q0,.25,1.65.87t1.65,1.83a2,2,0,0,1-.82,1.59,3.94,3.94,0,0,1-2.51.68,3.09,3.09,0,0,1-1.84-.5,1.45,1.45,0,0,1-.67-1.21A1.59,1.59,0,0,1,163.46,175.06Zm3.87,2a1.25,1.25,0,0,0,.6-1,1.07,1.07,0,0,0-.31-.76,2,2,0,0,0-.54-.35c-.21-.1-.55-.25-1-.43a5.2,5.2,0,0,0-.85-.29c-.13,0-.39.18-.76.53a1.57,1.57,0,0,0-.57,1.18,1.37,1.37,0,0,0,.87,1.38,2.79,2.79,0,0,0,1.11.2A2.44,2.44,0,0,0,167.33,177.08Zm-1.61-5.55a.9.9,0,0,0,.87.46,1.48,1.48,0,0,0,1.21-.86,3.52,3.52,0,0,0,.53-1.9,1.19,1.19,0,0,0-.22-.78.76.76,0,0,0-.65-.29,1.54,1.54,0,0,0-1.36.9,3.41,3.41,0,0,0-.52,1.73A1.68,1.68,0,0,0,165.72,171.53Z"/><path class="cls-1" d="M173,169.41a4.27,4.27,0,0,1,3.08-1.57,1.5,1.5,0,0,1,.94.27,1,1,0,0,1,.34.8,2.2,2.2,0,0,1-1.27,1.86,6.58,6.58,0,0,1-2.67.94l-.43.06a4.64,4.64,0,0,0-.13.49,2,2,0,0,0,0,.46,1.3,1.3,0,0,0,.43,1,1.56,1.56,0,0,0,1,.36,2.35,2.35,0,0,0,1.2-.37,10.82,10.82,0,0,0,1.05-.79l.19.18a4.76,4.76,0,0,1-1,.88,3.84,3.84,0,0,1-2.25.81,2,2,0,0,1-1.4-.57,2.07,2.07,0,0,1-.61-1.62A4.64,4.64,0,0,1,173,169.41Zm2.44,1a2.25,2.25,0,0,0,.91-1.6.69.69,0,0,0-.14-.45.49.49,0,0,0-.4-.17,1.43,1.43,0,0,0-1,.42,5.87,5.87,0,0,0-.85.94,7.62,7.62,0,0,0-.63,1.18q-.13.3-.27.69A4.41,4.41,0,0,0,175.44,170.42Z"/><path class="cls-1" d="M178.83,174l0-.16,1.46-5.26h-1.15a.68.68,0,0,1,0-.26s.07-.07.15-.11a6.1,6.1,0,0,0,1.19-.62,7.92,7.92,0,0,0,1.15-1.17l.12-.14a.1.1,0,0,1,.06,0,.08.08,0,0,1,.07,0l.1,0a.16.16,0,0,1,0,.09v.09l-.45,1.64h1.24l-.09.52h-1.3l-1.39,5.06a.39.39,0,0,0,0,.26.21.21,0,0,0,.2.12c.13,0,.32-.13.55-.39s.37-.42.69-.83l.19.11-.1.16a5.62,5.62,0,0,1-1.15,1.35,1.56,1.56,0,0,1-.94.38.7.7,0,0,1-.55-.2.69.69,0,0,1-.18-.46A.71.71,0,0,1,178.83,174Z"/><path class="cls-1" d="M188.58,168.12a1,1,0,0,1,.27.44l0,.1.17-.57a.4.4,0,0,1,.06-.13s0,0,.1,0l.87-.1s.07,0,.08,0a.14.14,0,0,1,0,.09l0,.16-.05.16-.74,2.7c-.17.59-.3,1.09-.42,1.52a13.29,13.29,0,0,0-.28,1.32.18.18,0,0,0,.2.2.34.34,0,0,0,.15,0l.2-.14.14-.1.14-.13.19-.17.49-.49.18.16a7.92,7.92,0,0,1-1.29,1.36,1.61,1.61,0,0,1-.93.36.52.52,0,0,1-.44-.19.8.8,0,0,1-.16-.49,4.3,4.3,0,0,1,.11-.78,8,8,0,0,1,.2-.86,7.06,7.06,0,0,1-.46.66,5.14,5.14,0,0,1-.79.85,3.78,3.78,0,0,1-1.05.69,2.3,2.3,0,0,1-.75.14,1.51,1.51,0,0,1-1.11-.51,1.91,1.91,0,0,1-.49-1.42,5.22,5.22,0,0,1,1.43-3.3,4,4,0,0,1,3.06-1.79A1.29,1.29,0,0,1,188.58,168.12Zm-.24.28a.84.84,0,0,0-.61-.25c-.83,0-1.6.63-2.31,1.88a6,6,0,0,0-.94,2.86,1.25,1.25,0,0,0,.26.88.83.83,0,0,0,.64.28q1.14,0,2.19-1.83a6,6,0,0,0,1-3A1.16,1.16,0,0,0,188.34,168.4Z"/><path class="cls-1" d="M200.42,170.42q-.34.57-1,1.41c-.42.56-.86,1.13-1.3,1.68q-1.07,1.32-1.26,1.32a.1.1,0,0,1-.1-.08,2.21,2.21,0,0,1-.06-.46l-.45-4.69-3.12,5.12a.17.17,0,0,1-.06.06l-.07,0-.11,0v-.06l-.09-1.87q0-.61-.09-1.29c0-.44-.07-.83-.11-1.16a6.07,6.07,0,0,0-.33-1.67.69.69,0,0,0-.66-.31h-.37v-.21l.6-.12.62-.13.71-.18c.17,0,.34.71.52,2.14.09.79.18,1.68.25,2.68l3-4.68a.39.39,0,0,1,.08-.1.15.15,0,0,1,.11,0,.1.1,0,0,1,.09,0,1.06,1.06,0,0,1,0,.14l.5,5.45.84-1.07.82-1.06a7.79,7.79,0,0,0,.76-1.26,1.41,1.41,0,0,0,.12-.56.69.69,0,0,0,0-.2.57.57,0,0,0-.15-.2l-.23-.21a1.18,1.18,0,0,1-.17-.22.5.5,0,0,1-.07-.27.67.67,0,0,1,.13-.39.54.54,0,0,1,.48-.19.79.79,0,0,1,.53.22.92.92,0,0,1,.26.73A3.71,3.71,0,0,1,200.42,170.42Z"/><path class="cls-1" d="M207.37,168.12a1.18,1.18,0,0,1,.27.44l0,.1.17-.57.05-.13a.19.19,0,0,1,.11,0l.87-.1s.07,0,.08,0,0,.05,0,.09l0,.16a1,1,0,0,0,0,.16l-.75,2.7c-.16.59-.3,1.09-.41,1.52a10.62,10.62,0,0,0-.28,1.32.21.21,0,0,0,.06.16.18.18,0,0,0,.13,0,.34.34,0,0,0,.16,0l.2-.14.13-.1.15-.13.19-.17.49-.49.18.16a8.32,8.32,0,0,1-1.29,1.36,1.61,1.61,0,0,1-.93.36.52.52,0,0,1-.44-.19.74.74,0,0,1-.16-.49,4.1,4.1,0,0,1,.1-.78c.07-.34.14-.62.2-.86a6.58,6.58,0,0,1-.45.66,6.18,6.18,0,0,1-.79.85,4.1,4.1,0,0,1-1,.69,2.36,2.36,0,0,1-.76.14,1.51,1.51,0,0,1-1.1-.51,1.92,1.92,0,0,1-.5-1.42,5.27,5.27,0,0,1,1.43-3.3,4.08,4.08,0,0,1,3.07-1.79A1.29,1.29,0,0,1,207.37,168.12Zm-.25.28a.82.82,0,0,0-.61-.25c-.83,0-1.59.63-2.31,1.88a6.11,6.11,0,0,0-.93,2.86,1.2,1.2,0,0,0,.26.88.81.81,0,0,0,.64.28q1.14,0,2.19-1.83a6,6,0,0,0,1-3A1.11,1.11,0,0,0,207.12,168.4Z"/><path class="cls-1" d="M209.56,176.73a.54.54,0,0,1,.44-.18.81.81,0,0,1,.33.07,1.37,1.37,0,0,1,.3.21l.11.08.1.05a.25.25,0,0,0,.12,0c.25,0,.65-.32,1.19-1a2.87,2.87,0,0,0,.82-1.42,9.23,9.23,0,0,0-.28-1.66c-.19-.82-.37-1.55-.55-2.19a7.89,7.89,0,0,0-.67-1.84,1,1,0,0,0-.9-.48h-.16l-.37,0v-.25l2.05-.4h.16c.13,0,.37.55.73,1.69a20.45,20.45,0,0,1,.6,2.25l.3,1.8c.53-.88.92-1.56,1.16-2a5.41,5.41,0,0,0,.73-1.95.7.7,0,0,0-.05-.25.4.4,0,0,0-.21-.22l-.13-.07a1.14,1.14,0,0,1-.28-.22.61.61,0,0,1-.16-.45.56.56,0,0,1,.15-.39.58.58,0,0,1,.45-.16.89.89,0,0,1,.61.22,1,1,0,0,1,.23.76,7,7,0,0,1-.88,2.6A26.75,26.75,0,0,1,214,174a25,25,0,0,1-1.8,2.46c-.8.91-1.47,1.36-2,1.36a.84.84,0,0,1-.55-.19.6.6,0,0,1-.24-.51A.59.59,0,0,1,209.56,176.73Z"/><path class="cls-1" d="M91.49,11.65h-.25a11.88,11.88,0,0,1-7.7-3.41A11,11,0,0,1,80.08.18h-.52A11.51,11.51,0,0,1,68.12,11.62v.52A11.49,11.49,0,0,1,79.56,23.61h.52a11.92,11.92,0,0,1,4.07-8.76,11.58,11.58,0,0,1,7.09-2.68h.26Zm-8.31-3a12.52,12.52,0,0,0,2,1.59,11.33,11.33,0,0,1-5.13,1.37V3.63A11.62,11.62,0,0,0,83.18,8.61Zm-6.8.16a11.81,11.81,0,0,0,3.17-5.06v7.86a11.45,11.45,0,0,1-5-1.34A12,12,0,0,0,76.38,8.77ZM74,10.54a11.92,11.92,0,0,0,3.51,1.32A11.73,11.73,0,0,0,74,13.17a12.38,12.38,0,0,0-3.48-1.29A12.48,12.48,0,0,0,74,10.54Zm2.15,4.19a11.73,11.73,0,0,0-1.66-1.26,11.41,11.41,0,0,1,5.07-1.32v8A11.89,11.89,0,0,0,76.14,14.73Zm7.67-.28a11.82,11.82,0,0,0-3.74,5.87V12.16a11.37,11.37,0,0,1,5,1.34A13.29,13.29,0,0,0,83.81,14.45Zm1.81-1.25a11.89,11.89,0,0,0-3.53-1.33,12,12,0,0,0,3.62-1.36,12.51,12.51,0,0,0,3.4,1.39A12,12,0,0,0,85.62,13.2Z"/></g></g></svg>