<svg xmlns="http://www.w3.org/2000/svg" viewBox="0 0 292.92 141.01"><defs><style>.cls-1{fill:#2d110f;}</style></defs><g id="Layer_2" data-name="Layer 2"><g id="Laag_1" data-name="Laag 1"><path class="cls-1" d="M111.68,17.27a7.87,7.87,0,0,0,4.73-1.54,13.42,13.42,0,0,0,2.51-2.54l-.54-.41-.13.15A10.66,10.66,0,0,1,115.77,15a5.21,5.21,0,0,1-2.77.82,3.12,3.12,0,0,1-2.67-1.18,5.36,5.36,0,0,1-.89-3.29,12.93,12.93,0,0,1,2.2-7.14C113.1,2,114.83.85,116.82.85a2.51,2.51,0,0,1,1.22.23.69.69,0,0,1,.38.57,2.18,2.18,0,0,1-.31.73,2.2,2.2,0,0,0-.31,1,1.38,1.38,0,0,0,.47,1.06,1.61,1.61,0,0,0,1.15.43,1.71,1.71,0,0,0,1.74-1.83,2.9,2.9,0,0,0-1-2,4.44,4.44,0,0,0-3.26-1,10.1,10.1,0,0,0-7.35,3.53,11,11,0,0,0-3.43,7.76,5.94,5.94,0,0,0,1.54,4.33A5.32,5.32,0,0,0,111.68,17.27Z"/><path class="cls-1" d="M126.6,17.27a5.7,5.7,0,0,0,1.85-.33A8.88,8.88,0,0,0,131,15.23,12.81,12.81,0,0,0,133,13.16c.53-.71.9-1.25,1.12-1.62-.16.56-.32,1.26-.49,2.1a10.24,10.24,0,0,0-.25,1.91,1.92,1.92,0,0,0,.38,1.21,1.31,1.31,0,0,0,1.09.48,4,4,0,0,0,2.28-.88A19.52,19.52,0,0,0,140.3,13l-.45-.39-1.21,1.18c-.18.18-.34.32-.47.44l-.35.31-.33.26a3.51,3.51,0,0,1-.5.33.85.85,0,0,1-.37.11.49.49,0,0,1-.34-.12.45.45,0,0,1-.14-.38,29.48,29.48,0,0,1,.68-3.25q.42-1.58,1-3.75l1.84-6.64.12-.4a3,3,0,0,1,.12-.38.63.63,0,0,0,0-.23s-.09-.06-.2-.06l-2.14.24c-.14,0-.23,0-.26.1a1.11,1.11,0,0,0-.14.32l-.41,1.4-.1-.26A2.76,2.76,0,0,0,136,.76,3.2,3.2,0,0,0,133.72,0c-2.6,0-5.12,1.47-7.54,4.4s-3.53,5.54-3.53,8.14a4.74,4.74,0,0,0,1.23,3.5A3.75,3.75,0,0,0,126.6,17.27Zm1.62-11.79Q130.85.83,133.91.83a2.06,2.06,0,0,1,1.5.64,2.72,2.72,0,0,1,.61,2,14.66,14.66,0,0,1-2.49,7.41q-2.59,4.51-5.39,4.51a2.07,2.07,0,0,1-1.58-.67,3.09,3.09,0,0,1-.64-2.17A15,15,0,0,1,128.22,5.48Z"/><path class="cls-1" d="M145.28,3.64,141.7,16.83h2.85c.65-2.09,1.17-3.7,1.56-4.81a21.33,21.33,0,0,1,2.11-4.4A32,32,0,0,1,151.1,4c1.17-1.3,2.15-1.95,3-1.95a.8.8,0,0,1,.65.25,1.12,1.12,0,0,1,.2.7,1.84,1.84,0,0,1,0,.33l-.06.32-3.72,13.21H154q1.23-4.5,1.69-5.83a21.22,21.22,0,0,1,1.6-3.29,31.4,31.4,0,0,1,2.94-3.81c1.13-1.25,2.11-1.88,3-1.88a.78.78,0,0,1,.59.24A.93.93,0,0,1,164,3a1.53,1.53,0,0,1,0,.3c0,.1-.05.22-.08.37L161,14a5.76,5.76,0,0,0-.14.7,4.28,4.28,0,0,0-.05.6,1.9,1.9,0,0,0,.63,1.61,1.65,1.65,0,0,0,1,.3,4.25,4.25,0,0,0,2.68-1.13,15.42,15.42,0,0,0,2.69-3l.18-.26-.57-.44L166.1,14c-.15.18-.35.4-.6.65a4.22,4.22,0,0,1-.64.55,1,1,0,0,1-.59.17.49.49,0,0,1-.48-.25.61.61,0,0,1,0-.49l2.92-10.13a13.53,13.53,0,0,0,.35-2,2.29,2.29,0,0,0-.73-1.9,2.44,2.44,0,0,0-1.6-.59c-1.38,0-3,1-4.76,3a40.35,40.35,0,0,0-3.56,4.8c.53-1.66.9-2.86,1.11-3.61a7.29,7.29,0,0,0,.3-1.75,2.26,2.26,0,0,0-.89-2,2.3,2.3,0,0,0-1.34-.4c-1.31,0-2.81.89-4.52,2.68a47.07,47.07,0,0,0-4,5L149.17.17,149,0c-2.79.62-4.8,1-6,1.22v.61a7.33,7.33,0,0,1,1.93.1c.33.1.5.39.5.88a1.61,1.61,0,0,1,0,.39A3.24,3.24,0,0,1,145.28,3.64Z"/><path class="cls-1" d="M173.55,4.1l-5.13,18.11a2.48,2.48,0,0,1-.83,1.42,2.79,2.79,0,0,1-1.68.42v.61h7.91V24.1a6.54,6.54,0,0,1-1.91-.28q-.48-.2-.48-1a23.27,23.27,0,0,1,.48-2.41c.12-.55.35-1.45.67-2.72l.3-1.14a9,9,0,0,0,1.31.53,4.87,4.87,0,0,0,1.31.15c2.6,0,5.12-1.3,7.54-3.91a12.12,12.12,0,0,0,3.67-8.31,5.36,5.36,0,0,0-1.15-3.78A4.15,4.15,0,0,0,182.38,0a5.86,5.86,0,0,0-3.82,1.56,14.77,14.77,0,0,0-2.24,2.49l1-3.42c0-.11.08-.28.13-.5s-.09-.16-.17-.15l-6,.87,0,.61a2.21,2.21,0,0,1,.35,0h.36a2.39,2.39,0,0,1,1.32.3,1,1,0,0,1,.46.91,3.59,3.59,0,0,1-.05.47C173.75,3.33,173.67,3.65,173.55,4.1Zm.6,8c.47-1.69,1-3.31,1.52-4.86A9.37,9.37,0,0,1,178.18,3,4.46,4.46,0,0,1,181,1.71a2,2,0,0,1,2,1.35A5.47,5.47,0,0,1,183.3,5a14.2,14.2,0,0,1-2.21,7.33c-1.64,2.76-3.53,4.14-5.69,4.14A2.62,2.62,0,0,1,174,16.1a1.11,1.11,0,0,1-.58-1A18.87,18.87,0,0,1,174.15,12.08Z"/><path class="cls-1" d="M24.91,84.57c10,0,12-3.68,15.13-3.68,1.72,0,2.51,2.09,2.59,3.6h.5v-17a25.31,25.31,0,0,0,47.69,1v5.11c0,6.21-4.75,10.15-7.82,10.15v.59H99.37v-.59c-4.31,0-7.82-3.94-7.82-10.15V66.15a24.84,24.84,0,0,0,0-12.43V44l16.8,40.55h.59l18.41-47-.51,41.35c-.08,3.43-3.44,4.82-6.5,4.82v.59h38.92v-.59c-4.31,0-7.82-3.94-7.82-10.15V44l16.81,40.55h.58l18.41-47-.51,41.35c-.07,3.43-3.43,4.82-6.5,4.82v.59h24v-.59c-3.07,0-6.5-1.39-6.5-4.82V67.54a25.3,25.3,0,0,0,47.79,1.1v5c0,6.21-4.95,10.16-8.14,10.16v.59h17V83.8c-4.49,0-8.14-4-8.14-10.16V66.15a24.78,24.78,0,0,0,0-11.94V43.64l38.18,40.75.31-37.82c0-6.22,3.65-10.17,8.14-10.17v-.58h-17v.58c3.2,0,8.14,4,8.14,10.17V68.51L254.91,35.82H235.74v.51c3.88,0,7.76,3.29,9.74,6.43v9a25.3,25.3,0,0,0-47.79,1.1V41.3c0-3.44,3.43-5,6.5-5v-.51H187.31L174.09,69.71,160.5,35.82H127.42L114.2,69.71,100.61,35.82H84.32v.51c3.07,0,5.18,2.48,6.5,5.7V51.4a25.3,25.3,0,0,0-47.91,1.67V35.75h-.5c0,1.72-.79,3.31-2.37,3.31-2.67,0-7.06-4.32-15.92-4.32C13,34.74,0,45.54,0,58.86,0,72.83,9.86,84.57,24.91,84.57ZM221.77,36c11.74,0,12.67,13.53,12.67,24.19s-.86,24.2-12.6,24.2S209.1,70.84,209.1,60.18,210,36,221.77,36Zm-84,5.31c0-3.42,3.39-4.95,6.44-5s5.16,2.49,6.47,5.7V73.59c0,5.86-4.23,9.7-7.28,10.11-2.81-.24-5.63-1.67-5.63-4.78ZM67.14,35.74c11.73,0,12.67,13.54,12.67,24.2S79,84.13,67.21,84.13,54.46,70.6,54.46,59.94,55.4,35.74,67.14,35.74Zm-43.52-.43c8.59,0,18.49,13.78,18.78,19.9a24.55,24.55,0,0,0-.46,4.73,25.11,25.11,0,0,0,.73,6h0c0,4.24-8.5,18.14-18.08,18.14-11,0-12.53-14.4-12.53-25.42C12,48.49,14.83,35.31,23.62,35.31Z"/><path class="cls-1" d="M287.5,115.7c-4-2.8-9.34-4.1-13.54-6.15-3.71-1.77-6.49-4.09-6.49-8.53s2.71-7.1,6.56-7.1c7,0,13.54,10.79,15.11,15.63h.36V94.45h-1.77c-.15.76-.72,1.72-1.71,1.72-2.71,0-6.21-2.87-11.27-2.87A14.43,14.43,0,0,0,260.32,106,22.84,22.84,0,0,0,240.9,94.13c-3.63,0-9.34.34-9.34.34h-27V95c3,0,7.63,3.7,7.63,9.53v20.56L185,94.47H158.33V95c3,0,7.62,3.62,7.62,9.33V124.5a16.3,16.3,0,0,1-2.85,9.6,12.25,12.25,0,0,1-9.91,5.31c-8.91,0-14.54-4-14.54-14.71V99.51c0-3.16,3.35-4.57,6.34-4.57v-.47H121.61v.47c3,0,6.35,1.41,6.35,4.57v10.6c-3.2-9.65-12.7-16.6-23.81-16.6a25.2,25.2,0,0,0-21.88,12.33c-.44-6.45-6.91-11.44-14-11.44-3,0-5.77.07-7.7.07l-16.74,0v0c0,1.37-.77,3.09-2.27,3.09-2,0-7.41-4.11-16.47-4.11C11.41,93.51.14,104,.14,117.16S11.19,141,24.81,141c6.56,0,11.69-2.33,16.11-4.66L43.39,140H66.77v-.48c-3,0-6.34-1.3-6.34-4.52V118.39h1c3.21.07,4.85,2,5.91,4L76.82,140H93v-.48c-3,0-5.07-1.78-6.78-4.52l-2-3.51a25.41,25.41,0,0,0,19.94,9.47c11.11,0,20.61-6.94,23.81-16.59v2.5c0,8.39,9.76,14,19.24,14,8.49,0,13.48-2.29,16.26-5.91a16,16,0,0,0,3.21-10.08V104.34c0-4,1.66-6.94,4.1-8.38a14.66,14.66,0,0,1,5.36,5v28.93c0,5.82-4.64,9.52-7.63,9.52V140h16v-.55c-4.21,0-7.63-3.7-7.63-9.52V101.8L212.62,140h27c10.31,0,18.18-4.85,21.65-12.85l0,12.85h.22a2.36,2.36,0,0,1,2.08-2c2.5,0,5.78,2.87,14.47,2.87a15,15,0,0,0,14.9-14.47A12.15,12.15,0,0,0,287.5,115.7ZM49.74,135c0,2.66-2.28,4-4.76,4.4V125.79c0-3.42,1.78-5.34,4-5.34v-.55H27.87v.55c4.21,0,6.78,1.57,6.78,4.45v6.93c0,4.79-4.5,8.63-9.56,8.63-11,0-12.61-12.88-12.61-23,0-6,.57-12.82,3.2-17.61,1.93-3.5,4.85-5.83,9.49-5.83,3.13,0,6.84,2.26,10.12,5.35,4,3.7,7.41,8.63,8.55,12.47h.5V94.92c2.81.15,5.4,1.58,5.4,4.62Zm13.61-17.27H60.43V95.16A23.21,23.21,0,0,1,65,94.81c4.85,0,7.42,6.72,7.42,11.66C72.41,113.25,70.27,117.64,63.35,117.71Zm17,7.12c-1.78-3-5.85-5.75-9.13-6.71a14.31,14.31,0,0,0,8.15-3.89,22.74,22.74,0,0,0,1.35,11.26Zm23.84,15.43c-11.62,0-12.62-12.89-12.62-23s.93-23,12.54-23,12.55,12.88,12.55,23S115.84,140.26,104.23,140.26ZM220.73,135c0,3.22-5.12,4.52-8.11,4.52l.29-34.95c0-4.52,2.06-7.75,4.94-9a4.3,4.3,0,0,1,2.88,4Zm17,4.45H234.7c-1.85-.06-3.21-1.16-3.28-4.38V95.16a25.47,25.47,0,0,1,4.92-.48c6.7,0,15.11,4.86,15.11,22.48C251.45,135.12,245.18,139.43,237.77,139.43Zm40.54.91c-8.63,0-14-10.32-16.06-15.91a25.84,25.84,0,0,0,1-7.14c0-.65,0-1.28-.08-1.92a17.31,17.31,0,0,0,4.06,3.19c4.49,2.67,10.26,4.37,14,7,2.28,1.64,3.85,3.69,3.85,6.69C285,136.31,282.51,140.34,278.31,140.34Z"/></g></g></svg>