<svg xmlns="http://www.w3.org/2000/svg" viewBox="0 0 294.42 141.76"><defs><style>.cls-1{fill:#2d110f;}</style></defs><g id="Layer_2" data-name="Layer 2"><g id="Laag_1" data-name="Laag 1"><path class="cls-1" d="M120.91,1.09a2.9,2.9,0,0,1,1,2,1.71,1.71,0,0,1-1.74,1.83A1.61,1.61,0,0,1,119,4.47a1.38,1.38,0,0,1-.47-1.06,2.2,2.2,0,0,1,.31-1,2.18,2.18,0,0,0,.31-.73.69.69,0,0,0-.38-.57,2.51,2.51,0,0,0-1.22-.23c-2,0-3.72,1.14-5.18,3.4a12.93,12.93,0,0,0-2.2,7.14,5.36,5.36,0,0,0,.89,3.29,3.12,3.12,0,0,0,2.67,1.18,5.21,5.21,0,0,0,2.77-.82A10.66,10.66,0,0,0,119,12.93l.13-.15.54.41a13.42,13.42,0,0,1-2.51,2.54,7.87,7.87,0,0,1-4.73,1.54,5.32,5.32,0,0,1-4-1.58,5.94,5.94,0,0,1-1.54-4.33A11,11,0,0,1,110.3,3.6,10.1,10.1,0,0,1,117.65.07,4.44,4.44,0,0,1,120.91,1.09Z"/><path class="cls-1" d="M136.76.76a2.76,2.76,0,0,1,.67,1.08l.1.26.41-1.4a1.11,1.11,0,0,1,.14-.32c0-.06.12-.09.26-.1L140.48,0c.11,0,.18,0,.2.06a.63.63,0,0,1,0,.23,3,3,0,0,0-.12.38l-.12.4-1.84,6.64q-.6,2.17-1,3.75a29.48,29.48,0,0,0-.68,3.25.45.45,0,0,0,.14.38.49.49,0,0,0,.34.12.85.85,0,0,0,.37-.11,3.51,3.51,0,0,0,.5-.33l.33-.26.35-.31c.13-.12.29-.26.47-.44l1.21-1.18.45.39a19.92,19.92,0,0,1-3.19,3.35,4,4,0,0,1-2.28.88,1.31,1.31,0,0,1-1.09-.48,1.92,1.92,0,0,1-.38-1.21,10.24,10.24,0,0,1,.25-1.91c.17-.84.33-1.54.49-2.1-.22.37-.59.91-1.12,1.62a12.81,12.81,0,0,1-1.94,2.07,8.88,8.88,0,0,1-2.59,1.71,5.7,5.7,0,0,1-1.85.33A3.79,3.79,0,0,1,124.62,16a4.78,4.78,0,0,1-1.22-3.5q0-3.9,3.53-8.14c2.42-2.93,4.94-4.4,7.54-4.4A3.2,3.2,0,0,1,136.76.76Zm-.6.71a2.06,2.06,0,0,0-1.5-.64Q131.6.83,129,5.48a15,15,0,0,0-2.3,7,3.09,3.09,0,0,0,.64,2.17,2.07,2.07,0,0,0,1.58.67q2.79,0,5.39-4.51a14.66,14.66,0,0,0,2.49-7.41A2.72,2.72,0,0,0,136.16,1.47Z"/><path class="cls-1" d="M157.63.44a2.26,2.26,0,0,1,.89,2,7.29,7.29,0,0,1-.3,1.75c-.21.75-.58,2-1.11,3.61A40.35,40.35,0,0,1,160.67,3c1.8-2,3.38-3,4.76-3a2.44,2.44,0,0,1,1.6.59,2.29,2.29,0,0,1,.73,1.9,13.53,13.53,0,0,1-.35,2l-2.92,10.13a.61.61,0,0,0,0,.49.49.49,0,0,0,.48.25,1,1,0,0,0,.59-.17,4.22,4.22,0,0,0,.64-.55c.25-.25.45-.47.6-.65l1.33-1.62.57.44-.18.26a15.42,15.42,0,0,1-2.69,3,4.25,4.25,0,0,1-2.68,1.13,1.65,1.65,0,0,1-1-.3,1.9,1.9,0,0,1-.63-1.61,4.28,4.28,0,0,1,.05-.6,5.76,5.76,0,0,1,.14-.7l2.88-10.41c0-.15.06-.27.08-.37a1.53,1.53,0,0,0,0-.3.93.93,0,0,0-.24-.69.78.78,0,0,0-.59-.24c-.85,0-1.83.63-3,1.88A31.4,31.4,0,0,0,158,7.71a21.22,21.22,0,0,0-1.6,3.29q-.46,1.34-1.69,5.83h-2.89l3.72-13.21.06-.32a1.84,1.84,0,0,0,0-.33,1.12,1.12,0,0,0-.2-.7A.8.8,0,0,0,154.8,2c-.8,0-1.78.65-3,2A32,32,0,0,0,149,7.62a21.33,21.33,0,0,0-2.11,4.4c-.39,1.11-.91,2.72-1.56,4.81h-2.85L146,3.64a3.24,3.24,0,0,0,.09-.4,1.61,1.61,0,0,0,0-.39c0-.49-.17-.78-.5-.88a7.33,7.33,0,0,0-1.93-.1V1.26c1.24-.2,3.25-.6,6-1.22l.15.13-2.11,7.59a47.07,47.07,0,0,1,4-5C153.48.93,155,0,156.29,0A2.3,2.3,0,0,1,157.63.44Z"/><path class="cls-1" d="M166.66,24.05a2.79,2.79,0,0,0,1.68-.42,2.48,2.48,0,0,0,.83-1.42L174.3,4.1c.12-.45.2-.77.23-1a3.59,3.59,0,0,0,.05-.47,1,1,0,0,0-.46-.91,2.39,2.39,0,0,0-1.32-.3h-.36a2.21,2.21,0,0,0-.35,0l0-.61,6-.87c.08,0,.14,0,.17.15s-.1.39-.13.5l-1,3.42a14.77,14.77,0,0,1,2.24-2.49A5.86,5.86,0,0,1,183.13,0a4.15,4.15,0,0,1,3.18,1.23,5.36,5.36,0,0,1,1.15,3.78,12.12,12.12,0,0,1-3.67,8.31c-2.42,2.61-4.94,3.91-7.54,3.91a4.87,4.87,0,0,1-1.31-.15,9,9,0,0,1-1.31-.53l-.3,1.14c-.32,1.27-.55,2.17-.67,2.72a23.27,23.27,0,0,0-.48,2.41q0,.77.48,1a6.54,6.54,0,0,0,1.91.28v.56h-7.91Zm17.11-21a2,2,0,0,0-2-1.35A4.46,4.46,0,0,0,178.93,3a9.46,9.46,0,0,0-2.52,4.23q-.81,2.33-1.51,4.86a18.87,18.87,0,0,0-.71,3,1.11,1.11,0,0,0,.58,1,2.62,2.62,0,0,0,1.38.34c2.16,0,4-1.38,5.69-4.14A14.2,14.2,0,0,0,184.05,5,5.47,5.47,0,0,0,183.77,3.06Z"/><path class="cls-1" d="M24.87,34.74c8.86,0,13.25,4.32,15.92,4.32,1.58,0,2.37-1.59,2.37-3.31h.5V53.07A25.3,25.3,0,0,1,91.57,51.4V42c-1.32-3.22-3.43-5.7-6.5-5.7v-.51h16.29L115,69.71l13.22-33.89h33.08l13.59,33.89,13.22-33.89h16.88v.51c-3.07,0-6.5,1.53-6.5,5V52.82a25.3,25.3,0,0,1,47.79-1.1v-9c-2-3.14-5.86-6.43-9.74-6.43v-.51h19.17l29.06,32.69V46.57c0-6.22-4.94-10.17-8.14-10.17v-.58h17v.58c-4.49,0-8.14,4-8.14,10.17l-.31,37.82L247,43.64V54.21a24.78,24.78,0,0,1,0,11.94v7.48c0,6.22,3.65,10.17,8.14,10.17v.59h-17V83.8c3.19,0,8.14-4,8.14-10.17v-5a25.3,25.3,0,0,1-47.79-1.1V78.92c0,3.43,3.43,4.82,6.5,4.82v.59H181v-.59c3.07,0,6.43-1.39,6.5-4.82L188,37.57l-18.41,47H169L152.19,44V73.59c0,6.21,3.51,10.15,7.82,10.15v.59H121.09v-.59c3.06,0,6.42-1.39,6.5-4.82l.51-41.35-18.41,47h-.59L92.3,44v9.72a24.84,24.84,0,0,1,0,12.43v7.44c0,6.21,3.51,10.15,7.82,10.15v.59H83.75v-.59c3.07,0,7.82-3.94,7.82-10.15V68.48a25.3,25.3,0,0,1-47.69-1v17h-.5c-.08-1.51-.87-3.6-2.59-3.6-3.17,0-5.12,3.68-15.13,3.68C10.61,84.57.75,72.83.75,58.86c0-13.32,13-24.12,24.12-24.12m.43,49.32c9.58,0,18.08-13.9,18.08-18.14h0a25.11,25.11,0,0,1-.73-6,24.55,24.55,0,0,1,.46-4.73c-.29-6.12-10.19-19.9-18.78-19.9-8.79,0-11.6,13.18-11.6,23.33,0,11,1.52,25.42,12.53,25.42M68,84.13c11.74,0,12.6-13.53,12.6-24.19s-.94-24.2-12.67-24.2S55.21,49.28,55.21,59.94s1,24.19,12.75,24.19m154.63.25c11.74,0,12.6-13.54,12.6-24.2S234.26,36,222.52,36s-12.67,13.53-12.67,24.19,1,24.2,12.74,24.2m-78.41-.68c3-.41,7.28-4.25,7.28-10.11V42c-1.31-3.21-3.42-5.68-6.47-5.7s-6.44,1.55-6.44,5V78.92c0,3.11,2.82,4.54,5.63,4.78M24.87,34c-5.66,0-11.93,2.71-16.76,7.27C2.88,46.18,0,52.43,0,58.86a27.13,27.13,0,0,0,7,18.6,25.07,25.07,0,0,0,18.65,7.86c6.58,0,9.75-1.54,12.07-2.67a7.3,7.3,0,0,1,3.06-1c1.17,0,1.78,1.69,1.84,2.89l0,.71h2V71.34A26.1,26.1,0,0,0,90.82,72v1.63c0,6.08-4.67,9.4-7.07,9.4H83v2.09h17.87V83h-.75c-4.1,0-7.07-3.95-7.07-9.4V66.25a25.6,25.6,0,0,0,0-12.62V47.77l15.36,37.06.19.47h1.6l.19-.48L127.3,41.67l-.46,37.24c-.07,3-3.14,4.08-5.75,4.08h-.75v2.09h40.42V83H160c-4.1,0-7.07-3.95-7.07-9.4V47.77L168.3,84.83l.2.47h1.59l.19-.48,16.91-43.15-.46,37.24c-.06,3-3.14,4.08-5.75,4.08h-.75v2.09h25.46V83h-.75c-2.14,0-5.75-.86-5.75-4.07V71.41a26.09,26.09,0,0,0,46.29.74v1.48c0,6.1-4.88,9.42-7.39,9.42h-.75v2.09h18.54V83.05h-.75c-4.28,0-7.39-4-7.39-9.42V66.24a25.52,25.52,0,0,0,0-12.12V45.54L284.62,84.9l1.28,1.37,0-1.88.31-37.81c0-5.47,3.11-9.43,7.39-9.43h.75V35.07H275.83v2.08h.75c2.51,0,7.39,3.32,7.39,9.42v20L256.22,35.32l-.22-.25H235.74v2h.75c3.55,0,7.11,3,9,5.9v5.23a26.09,26.09,0,0,0-46.29.74V41.3c0-2.9,3-4.22,5.75-4.22h.75v-2H187.55l-.18.47L174.83,67.68,162,35.54l-.19-.47h-34.1l-.19.47L114.94,67.68,102.06,35.54l-.19-.47H84.32v2h.75c3,0,4.76,2.74,5.75,5.09v5.75A26.08,26.08,0,0,0,44.41,49V35h-2v.75c0,1-.34,2.56-1.62,2.56a9.83,9.83,0,0,1-3.29-1.17A27.9,27.9,0,0,0,24.87,34Zm.43,49.32c-7.92,0-11.78-8.07-11.78-24.67s5.84-22.58,10.85-22.58c8.13,0,17.67,13.33,18,19.1a25.59,25.59,0,0,0,.24,10.68v.08c0,4-8.19,17.39-17.33,17.39ZM68,83.38c-10.57,0-12-11.85-12-23.44,0-12.18,1.45-23.45,11.93-23.45S79.81,47.76,79.81,59.94,78.38,83.38,68,83.38Zm154.63.25c-10.57,0-12-11.86-12-23.45,0-12.18,1.44-23.44,11.92-23.44S234.44,48,234.44,60.18,233,83.63,222.59,83.63ZM144.16,83c-1.25-.12-4.86-.76-4.86-4V41.3c0-2.88,2.95-4.2,5.7-4.22,2.95,0,4.73,2.75,5.71,5.09V73.59c0,5.4-3.84,8.93-6.55,9.36Z"/><path class="cls-1" d="M275.49,93.3c5.06,0,8.56,2.87,11.27,2.87,1,0,1.56-1,1.71-1.72h1.77v15.1h-.36c-1.57-4.84-8.12-15.63-15.11-15.63-3.85,0-6.56,2.8-6.56,7.1s2.78,6.76,6.49,8.53c4.2,2,9.55,3.35,13.54,6.15a12.15,12.15,0,0,1,5.42,10.65,15,15,0,0,1-14.9,14.47c-8.69,0-12-2.87-14.47-2.87a2.36,2.36,0,0,0-2.08,2H262l0-12.85c-3.47,8-11.34,12.85-21.65,12.85h-27L177.59,101.8v28.11c0,5.82,3.42,9.52,7.63,9.52V140h-16v-.55c3,0,7.63-3.7,7.63-9.52V101a14.66,14.66,0,0,0-5.36-5c-2.44,1.44-4.1,4.4-4.1,8.38v20.49a16,16,0,0,1-3.21,10.08c-2.78,3.62-7.77,5.91-16.26,5.91-9.48,0-19.24-5.58-19.24-14v-2.5c-3.2,9.65-12.7,16.59-23.81,16.59A25.41,25.41,0,0,1,85,131.47L87,135c1.71,2.74,3.78,4.52,6.78,4.52V140H77.57l-9.48-17.61c-1.06-2-2.7-3.91-5.91-4h-1V135c0,3.22,3.35,4.52,6.34,4.52V140H44.14l-2.47-3.63c-4.42,2.33-9.55,4.66-16.11,4.66C11.94,141,.89,130.25.89,117.16s11.27-23.65,25-23.65c9.06,0,14.47,4.11,16.47,4.11,1.5,0,2.27-1.72,2.27-3.09v0l16.74,0c1.93,0,4.71-.07,7.7-.07,7.09,0,13.56,5,14,11.44A25.2,25.2,0,0,1,104.9,93.51c11.11,0,20.61,6.95,23.81,16.6V99.51c0-3.16-3.35-4.57-6.35-4.57v-.47h23.38v.47c-3,0-6.34,1.41-6.34,4.57V124.7c0,10.68,5.63,14.71,14.54,14.71a12.25,12.25,0,0,0,9.91-5.31,16.3,16.3,0,0,0,2.85-9.6V104.34c0-5.71-4.63-9.33-7.62-9.33v-.54h26.63L213,125.11V104.55c0-5.83-4.64-9.53-7.63-9.53v-.55h27s5.71-.34,9.34-.34A22.84,22.84,0,0,1,261.07,106,14.43,14.43,0,0,1,275.49,93.3M25.84,140.46c5.06,0,9.56-3.84,9.56-8.63V124.9c0-2.88-2.57-4.45-6.78-4.45v-.55h21.1v.55c-2.21,0-4,1.92-4,5.34v13.59c2.48-.4,4.76-1.75,4.76-4.4V99.54c0-3-2.59-4.47-5.4-4.62v16.89h-.5C43.45,108,40,103,36,99.34c-3.28-3.09-7-5.35-10.12-5.35-4.64,0-7.56,2.33-9.49,5.83-2.63,4.79-3.2,11.65-3.2,17.61,0,10.15,1.56,23,12.61,23m79.14-.2c11.61,0,12.47-12.89,12.47-23s-.93-23-12.55-23-12.54,12.88-12.54,23,1,23,12.62,23m130.47-.83h3.07c7.41,0,13.68-4.31,13.68-22.27,0-17.62-8.41-22.48-15.11-22.48a25.47,25.47,0,0,0-4.92.48v39.89c.07,3.22,1.43,4.32,3.28,4.38M61.18,117.71H64.1c6.92-.07,9.06-4.46,9.06-11.25,0-4.93-2.57-11.65-7.42-11.65a23.21,23.21,0,0,0-4.56.35v22.55M213.37,139.5c3,0,8.11-1.3,8.11-4.52V99.54a4.3,4.3,0,0,0-2.88-4c-2.88,1.23-4.94,4.46-4.94,9l-.29,35m-131.86-14a22.74,22.74,0,0,1-1.35-11.26A14.31,14.31,0,0,1,72,118.12c3.28,1,7.35,3.7,9.13,6.71l.37.66m197.55,14.85c4.2,0,6.7-4,6.7-8.06,0-3-1.57-5-3.85-6.69-3.71-2.66-9.48-4.36-14-7a17.31,17.31,0,0,1-4.06-3.19c.05.64.08,1.27.08,1.92a25.84,25.84,0,0,1-1,7.14c2.08,5.59,7.43,15.91,16.06,15.91m-3.57-47.79a15.28,15.28,0,0,0-14.8,11.37,23.38,23.38,0,0,0-19-10.54c-3.61,0-9.32.34-9.38.34h-27.7v2h.75c2.33,0,6.88,3.1,6.88,8.78v18.59L186.28,94l-.23-.25H158.33v2h.75c2.33,0,6.87,3,6.87,8.58V124.5a15.46,15.46,0,0,1-2.7,9.16,11.45,11.45,0,0,1-9.31,5c-9.28,0-13.79-4.57-13.79-14V99.51c0-2.63,2.9-3.82,5.59-3.82h.75v-2H121.61v2h.75c2.7,0,5.6,1.19,5.6,3.82v6.88A25.75,25.75,0,0,0,104.9,92.76a26.08,26.08,0,0,0-21.46,11C82,98,75.91,93.65,69,93.65c-1.66,0-3.26,0-4.69,0l-3,0-16.74,0h-.75v.75c0,1-.53,2.38-1.52,2.38a10.28,10.28,0,0,1-2.67-.93,33.19,33.19,0,0,0-13.8-3.18c-14.17,0-25.7,10.95-25.7,24.4s11.4,24.6,25.42,24.6c6.28,0,11.34-2.09,15.86-4.44l2.1,3.08.23.33H68.27v-2h-.75c-2.07,0-5.59-.79-5.59-3.77V119.14h.25c2.32,0,3.95,1.16,5.25,3.58l9.48,17.62.22.39H94.51v-1.15a26.72,26.72,0,0,0,10.39,2.11A25.73,25.73,0,0,0,128,128c.37,3.72,2.59,7.11,6.35,9.64a24.85,24.85,0,0,0,13.59,4c8.14,0,13.65-2,16.85-6.21a16.8,16.8,0,0,0,3.37-10.53V104.34c0-3.34,1.22-6,3.38-7.51a14.13,14.13,0,0,1,4.58,4.37v28.71c0,5.68-4.55,8.77-6.88,8.77h-.75v2H186v-2h-.75c-4,0-6.88-3.69-6.88-8.77V103.7l34.48,36.8.22.23h27.33c9.32,0,16.76-3.79,20.89-10.52v10.52h1.58l.12-.59c.15-.71.69-1.44,1.35-1.44a9.66,9.66,0,0,1,2.84.76,31.12,31.12,0,0,0,11.63,2.11,15.65,15.65,0,0,0,15.65-15.22,12.86,12.86,0,0,0-5.73-11.26,40,40,0,0,0-8.7-4.16c-1.76-.67-3.43-1.31-4.95-2.05-4.31-2.07-6.07-4.34-6.07-7.86,0-3.8,2.34-6.35,5.81-6.35,6.68,0,13,10.81,14.4,15.11l.17.52H291V93.7h-3.14l-.12.61c-.06.31-.35,1.11-1,1.11a11,11,0,0,1-3.64-1,20,20,0,0,0-7.63-1.82ZM25.84,139.71c-8,0-11.86-7.29-11.86-22.28,0-7.8,1-13.44,3.11-17.25s4.9-5.44,8.83-5.44c2.66,0,6.08,1.83,9.6,5.14,3.92,3.63,7.27,8.51,8.35,12.14l.16.54h1.81V95.75c2,.31,3.9,1.43,3.9,3.79v19.61H27.87v2h.75c1.81,0,6,.36,6,3.7v6.93c0,4.27-4,7.88-8.81,7.88Zm79.14-.2c-10.46,0-11.87-11.27-11.87-22.28C93.11,105.65,94.54,95,104.9,95s11.8,10.7,11.8,22.28-1.42,22.28-11.72,22.28ZM232.92,95.78a25.14,25.14,0,0,1,4.17-.35c3.37,0,14.36,1.56,14.36,21.73,0,19.29-7.38,21.52-12.93,21.52h-3.06c-1.15,0-2.47-.5-2.54-3.65V95.78Zm-171,0a24.23,24.23,0,0,1,3.81-.23c2.8,0,6.67,3.79,6.67,10.9,0,7.3-2.49,10.44-8.32,10.5H61.93V95.79Zm152.2,42.93.28-34.17c0-3.79,1.59-6.88,4.19-8.15a3.47,3.47,0,0,1,2.13,3.14V135c0,2.42-4,3.56-6.6,3.74ZM74.56,118.31A14.67,14.67,0,0,0,79.24,116c0,.4,0,.8,0,1.19a23.5,23.5,0,0,0,.45,4.59,19.53,19.53,0,0,0-5.1-3.51Zm189.23,6.08a26.82,26.82,0,0,0,.92-7.1v-.08a21,21,0,0,0,2.85,2,60.17,60.17,0,0,0,6.6,3.22,42.13,42.13,0,0,1,7.31,3.77c2.41,1.74,3.54,3.67,3.54,6.08,0,3.55-2.09,7.31-5.95,7.31-8.75,0-13.8-11.34-15.27-15.2ZM46.48,138.45V125.79c0-2.75,1.3-4.59,3.24-4.59h0V135c0,2.19-1.88,3.1-3.26,3.47Zm46,.18a6.45,6.45,0,0,1-3.59-2.28,25.32,25.32,0,0,0,3.59,2.28Z"/></g></g></svg>