<svg xmlns="http://www.w3.org/2000/svg" viewBox="0 0 542.9 30.14"><defs><style>.cls-1{fill:#2d110f;}</style></defs><g id="Layer_2" data-name="Layer 2"><g id="Laag_1" data-name="Laag 1"><path class="cls-1" d="M103.08,16.56c7.11,0,11.51-2,11.51-7.5,0-4.79-4.27-8.33-9.06-8.33-1.81,0-3.49.05-4.65.05H80.52l-7.8,20-8-20H55.08v.3c1.81,0,3.06,1.46,3.84,3.36V23.07c0,3.42-2.43,5.65-4.23,5.94a5.79,5.79,0,0,1-4.14-3.83L40.2,0H40c-1,2.85-2.12,5.48-4.49,7.33v.22a5,5,0,0,1,1.64,1.68L32.4,21.13c-1.28,3.19-3.77,7.84-6.57,8V19h-.3c0,2.55-5.09,10.87-10.83,10.87-6.59,0-7.5-8.62-7.5-15.22,0-6.08,1.68-14,6.94-14S25.4,9.14,25.4,12.72h.3V.78h-.3c0,1-.49,2.11-1.43,2.11C22.38,2.89,19.75.3,14.45.3,7.76.3,0,6.77,0,14.75c0,8.36,5.91,15.39,14.92,15.39,6,0,7.16-2.2,9.06-2.2a1.39,1.39,0,0,1,1.55,1.47H36.15v-.3a4.09,4.09,0,0,1-3.84-4.36,11.18,11.18,0,0,1,.34-3.1l.44-1h8.62l2.07,5.22a4.91,4.91,0,0,1,.43,1.34c0,1.42-1.42,1.94-3.15,1.94v.3H64v-.35c-2.54,0-4.61-2.32-4.61-6V5.61l9.92,23.93h.34L80.48,1.81l-.3,24.41c-.05,2-2,2.84-3.84,2.84v.35h28.29v-.3c-1.81,0-3.84-.82-3.84-2.85v-9.7ZM100.79,1.21A14,14,0,0,1,103.55,1C106.48,1,108,5.22,108,8.32c0,4.27-1.29,7.76-5.47,7.81h-1.77ZM33.3,20,37.36,9.79,41.49,20Zm61,6.25c0,2-2,2.8-3.84,2.8s-3.83-.81-3.83-2.84V4c0-2,2-2.93,3.83-2.93s3.84.86,3.84,2.89Z"/><path class="cls-1" d="M313.56.76v.35c1.89,0,4.81,2.33,4.81,6v13L301.21.76H289.9v.3c2.29,0,4.58,1.95,5.74,3.8V10.2a14.92,14.92,0,0,0-28.21.6V4c0-2,2-2.94,3.84-2.94V.76h-10l-7.81,20-8-20H226l-7.81,20-8-20h-9.62v.3c1.81,0,3.06,1.47,3.84,3.37V10a14.91,14.91,0,0,0-28.28,1V.72h-.3c0,1-.46,2-1.4,2C172.8,2.68,170.2.12,165,.12c-6.59,0-14.24,6.38-14.24,14.24,0,8.25,5.82,15.18,14.7,15.18,5.91,0,7.06-2.17,8.93-2.17,1,0,1.49,1.23,1.53,2.13h.3v-10a14.92,14.92,0,0,0,28.15.52v3.07c0,3.66-2.8,6-4.62,6v.35h9.66v-.35c-2.54,0-4.61-2.33-4.61-6V18.6a14.67,14.67,0,0,0,.47-3.6,14.8,14.8,0,0,0-.47-3.6V5.59l9.92,23.94H215L225.91,1.8l-.3,24.41c0,2-2,2.84-3.84,2.84v.35h23v-.35c-2.54,0-4.62-2.33-4.62-6V5.59l9.92,23.94h.35L261.27,1.8,261,26.21c-.05,2-2,2.84-3.84,2.84v.35h14.14v-.35c-1.81,0-3.84-.82-3.84-2.84V19.49a14.92,14.92,0,0,0,28.21.6v3c0,3.67-2.91,6-4.8,6v.34H300.9v-.34c-2.65,0-4.81-2.33-4.81-6V18.61a13.86,13.86,0,0,0,0-6.93V5.38l22.54,24.05.19-22.32c0-3.67,2.15-6,4.8-6V.76ZM175.9,18.53c0,2.51-5,10.71-10.67,10.71-6.5,0-7.4-8.5-7.4-15,0-6,1.66-13.78,6.85-13.78s11,8.21,11.08,11.8a14.06,14.06,0,0,0,.18,6.27Zm14.51,10.75c-6.93,0-7.52-8-7.52-14.28S183.44.72,190.37.72s7.48,8,7.48,14.28S197.34,29.28,190.41,29.28Zm49.29-6.22c0,3.52-2.57,5.78-4.38,6-1.63-.16-3.24-1-3.24-2.81V4c0-2,2-2.92,3.8-2.93s3.05,1.47,3.82,3.36Zm42,6.37c-6.93,0-7.52-8-7.52-14.29S274.72.86,281.65.86s7.48,8,7.48,14.28S288.62,29.43,281.69,29.43Z"/><path class="cls-1" d="M539.51,14.08c-2.51-1.75-5.86-2.56-8.49-3.85C528.69,9.12,527,7.67,527,4.88s1.7-4.45,4.11-4.45c4.38,0,8.49,6.77,9.47,9.8h.23V.77h-1.12c-.09.47-.45,1.08-1.07,1.08-1.7,0-3.89-1.8-7.06-1.8a9,9,0,0,0-9,7.94A14.3,14.3,0,0,0,510.3.57c-2.28,0-5.86.21-5.86.21H487.52v.34c1.88,0,4.79,2.32,4.79,6V20L475.24.78h-16.7v.34c1.88,0,4.78,2.27,4.78,5.85V19.6a10.21,10.21,0,0,1-1.79,6A7.68,7.68,0,0,1,455.32,29c-5.58,0-9.11-2.53-9.11-9.22V3.94c0-2,2.1-2.87,4-2.87V.78H435.53v.29c1.88,0,4,.89,4,2.87v6.64A15.6,15.6,0,0,0,424.59.18a15.79,15.79,0,0,0-13.72,7.73c-.28-4.05-4.33-7.17-8.78-7.17-1.87,0-3.61,0-4.82,0H386.78v0c0,.86-.49,1.95-1.43,1.95C384.1,2.76,380.71.18,375,.18c-8.58,0-15.64,6.57-15.64,14.82a15.25,15.25,0,0,0,15.46,15A21,21,0,0,0,385,27l1.55,2.28h14.66V29c-1.88,0-4-.82-4-2.84V15.77h.63a4.12,4.12,0,0,1,3.7,2.5l5.95,11H417.6V29c-1.88,0-3.17-1.12-4.25-2.84L412,23.87a15.9,15.9,0,0,0,12.56,6A15.61,15.61,0,0,0,439.51,19.5v1.57c0,5.27,6.12,8.76,12.06,8.76,5.32,0,8.44-1.43,10.19-3.7a10,10,0,0,0,2-6.32V7a5.82,5.82,0,0,1,2.59-5.24,9.25,9.25,0,0,1,3.34,3.13V23c0,3.65-2.91,6-4.78,6v.35h10V29c-2.63,0-4.78-2.32-4.78-6V5.38l22.43,23.93h16.92c6.47,0,11.4-3,13.57-8.06v8.06h.14a1.48,1.48,0,0,1,1.3-1.28c1.57,0,3.62,1.8,9.07,1.8a9.38,9.38,0,0,0,9.34-9.07A7.66,7.66,0,0,0,539.51,14.08Zm-149,12.09c0,1.66-1.43,2.5-3,2.75V20.41c0-2.14,1.11-3.35,2.5-3.35v-.34H376.77v.34c2.64,0,4.25,1,4.25,2.8v4.33c0,3-2.82,5.42-6,5.42-6.92,0-7.91-8.08-7.91-14.44,0-3.74.36-8,2-11A6.41,6.41,0,0,1,375.08.48c2,0,4.28,1.42,6.34,3.35a19.8,19.8,0,0,1,5.36,7.82h.31V1.07c1.76.1,3.39,1,3.39,2.89ZM399,15.34h-1.83V1.21A15,15,0,0,1,400,1c3,0,4.65,4.21,4.65,7.31C404.69,12.55,403.34,15.3,399,15.34Zm10.68,4.47A10.83,10.83,0,0,0,404,15.6a9,9,0,0,0,5.12-2.45A14.75,14.75,0,0,0,409,15a14.07,14.07,0,0,0,1,5.28Zm14.94,9.67c-7.28,0-7.91-8.08-7.91-14.44S417.3.61,424.59.61s7.86,8.08,7.86,14.43S431.91,29.48,424.63,29.48Zm73-3.31c0,2-3.2,2.84-5.08,2.84l.18-21.91c0-2.84,1.3-4.85,3.11-5.62A2.68,2.68,0,0,1,497.65,4ZM508.33,29h-1.92c-1.16,0-2-.73-2.05-2.75v-25a16.23,16.23,0,0,1,3.08-.3c4.2,0,9.47,3.05,9.47,14.09C516.91,26.26,513,29,508.33,29Zm25.41.57c-5.41,0-8.76-6.47-10.06-10a16.43,16.43,0,0,0,.6-4.47c0-.42,0-.82-.06-1.23a10.82,10.82,0,0,0,2.55,2c2.82,1.67,6.44,2.74,8.76,4.41a5,5,0,0,1,2.41,4.19C537.94,27,536.38,29.53,533.74,29.53Z"/><path class="cls-1" d="M140.76,14h-.18A8.62,8.62,0,0,1,135,11.56a7.9,7.9,0,0,1-2.49-5.82h-.38A8.3,8.3,0,0,1,123.9,14v.37a8.5,8.5,0,0,1,5.54,2.15,8.62,8.62,0,0,1,2.72,6.13h.38a8.6,8.6,0,0,1,2.93-6.32,8.29,8.29,0,0,1,5.12-1.93h.19Zm-6-2.19A9.08,9.08,0,0,0,136.22,13a8.22,8.22,0,0,1-3.7,1V8.29A8.25,8.25,0,0,0,134.76,11.83Zm-4.91.11a8.39,8.39,0,0,0,2.29-3.65V14a8,8,0,0,1-3.64-1A8,8,0,0,0,129.85,11.94Zm-1.72,1.28a8.61,8.61,0,0,0,2.53.95,8.2,8.2,0,0,0-2.55.95,8.66,8.66,0,0,0-2.51-.93A9.07,9.07,0,0,0,128.13,13.22Zm1.56,3a8.63,8.63,0,0,0-1.2-.91,8.2,8.2,0,0,1,3.65-1v5.81A8.6,8.6,0,0,0,129.69,16.25Zm5.53-.21a8.4,8.4,0,0,0-2.7,4.15v-5.8a8.13,8.13,0,0,1,3.63,1A9.14,9.14,0,0,0,135.22,16Zm1.3-.9a8.38,8.38,0,0,0-2.55-1,8.56,8.56,0,0,0,2.62-1,9.3,9.3,0,0,0,2.45,1A8.73,8.73,0,0,0,136.52,15.14Z"/><path class="cls-1" d="M347.93,14h-.18a8.6,8.6,0,0,1-5.56-2.46,7.9,7.9,0,0,1-2.49-5.82h-.38A8.31,8.31,0,0,1,331.06,14v.37a8.54,8.54,0,0,1,5.54,2.15,8.62,8.62,0,0,1,2.72,6.13h.38a8.56,8.56,0,0,1,2.93-6.32,8.26,8.26,0,0,1,5.11-1.93h.2Zm-6-2.19A9.46,9.46,0,0,0,343.38,13a8.15,8.15,0,0,1-3.7,1V8.31A8.26,8.26,0,0,0,341.93,11.85ZM337,12a8.48,8.48,0,0,0,2.29-3.65V14a8.08,8.08,0,0,1-3.65-1A8.09,8.09,0,0,0,337,12Zm-1.73,1.28a8.78,8.78,0,0,0,2.54.95,8.43,8.43,0,0,0-2.55.94,8.85,8.85,0,0,0-2.52-.92A9,9,0,0,0,335.29,13.24Zm1.56,3a8.17,8.17,0,0,0-1.2-.9,8.24,8.24,0,0,1,3.66-1v5.81A8.62,8.62,0,0,0,336.85,16.26Zm5.54-.2a8.36,8.36,0,0,0-2.71,4.15v-5.8a8,8,0,0,1,3.64,1A7.35,7.35,0,0,0,342.39,16.06Zm1.3-.9a8.48,8.48,0,0,0-2.55-1,8.51,8.51,0,0,0,2.61-1,9.37,9.37,0,0,0,2.46,1A8.63,8.63,0,0,0,343.69,15.16Z"/></g></g></svg>