<svg xmlns="http://www.w3.org/2000/svg" viewBox="0 0 265.25 76.86"><defs><style>.cls-1{fill:#2d110f;}</style></defs><g id="Layer_2" data-name="Layer 2"><g id="Laag_1" data-name="Laag 1"><path class="cls-1" d="M228,76.82c0-.26,0-.53,0-.81,0-6.85,3.37-17,11.09-25a35.66,35.66,0,0,1,26.17-11.21V38.1c-17.77,0-37-14.21-37.14-37.16h-1.69a38.25,38.25,0,0,1-9.68,24.92c-10.18,11.21-23.68,12.2-27.57,12.24v1.68c4.11.06,18.3,1.17,28.45,13.2a37.52,37.52,0,0,1,8.69,23c0,.29,0,.58,0,.86Zm9.85-27a43.28,43.28,0,0,0-5.15,6.56,36.86,36.86,0,0,1-4.44-16.65h25.78A38,38,0,0,0,237.86,49.82Zm-.51-22.07A38.08,38.08,0,0,0,253.77,38H228.28a36.67,36.67,0,0,1,4.33-16.39A40.38,40.38,0,0,0,237.35,27.75ZM231.61,20a38.52,38.52,0,0,0-4.28,11.41,38.57,38.57,0,0,0-4.25-11.49A40.6,40.6,0,0,0,227.26,8.6,40,40,0,0,0,231.61,20ZM218,27a38,38,0,0,0,4.09-5.4A36.61,36.61,0,0,1,226.36,38H200.23A38.58,38.58,0,0,0,218,27Zm.91,24.9a38.51,38.51,0,0,0-19-12.16h26.49A36.61,36.61,0,0,1,222,56.08,38,38,0,0,0,218.9,51.89ZM223,57.76a38.79,38.79,0,0,0,4.32-11.47A38.47,38.47,0,0,0,231.71,58a42.06,42.06,0,0,0-4.53,11.05A38.79,38.79,0,0,0,223,57.76Z"/><path class="cls-1" d="M99.26,38.85l.81,0c6.85,0,17,3.37,25,11.08a35.65,35.65,0,0,1,11.2,26.18H138c0-17.77,14.21-37,37.15-37.15V37.25a38.23,38.23,0,0,1-24.92-9.67C139,17.39,138,3.9,138,0h-1.69c0,4.11-1.16,18.3-13.19,28.45a37.58,37.58,0,0,1-23,8.69l-.86,0Zm27,9.84a42.21,42.21,0,0,0-6.57-5.14,36.81,36.81,0,0,1,16.66-4.44V64.89A38.06,38.06,0,0,0,126.26,48.69Zm22.07-.5A38.13,38.13,0,0,0,138,64.61V39.11a36.72,36.72,0,0,1,16.4,4.34A40.38,40.38,0,0,0,148.33,48.19Zm7.76-5.75a38.22,38.22,0,0,0-11.41-4.27,38.32,38.32,0,0,0,11.49-4.26,40.29,40.29,0,0,0,11.31,4.18A40.15,40.15,0,0,0,156.09,42.44Zm-7-13.61a37.19,37.19,0,0,0,5.4,4.08A36.5,36.5,0,0,1,138,37.2V11.07A38.69,38.69,0,0,0,149.09,28.83Zm-24.9.91a38.51,38.51,0,0,0,12.16-19V37.19A36.74,36.74,0,0,1,120,32.82,38,38,0,0,0,124.19,29.74Zm-5.87,4.08a38.39,38.39,0,0,0,11.47,4.31A38.73,38.73,0,0,0,118,42.54,42,42,0,0,0,107,38,39.38,39.38,0,0,0,118.32,33.82Z"/><path class="cls-1" d="M38.85,76.82c0-.26,0-.53,0-.81,0-6.85,3.37-17,11.08-25A35.69,35.69,0,0,1,76.09,39.78V38.1c-17.77,0-37-14.21-37.15-37.16H37.25a38.23,38.23,0,0,1-9.67,24.92C17.39,37.07,3.9,38.06,0,38.1v1.68C4.11,39.84,18.3,41,28.45,53a37.58,37.58,0,0,1,8.69,23c0,.29,0,.58,0,.86Zm9.84-27a42.6,42.6,0,0,0-5.14,6.56,36.73,36.73,0,0,1-4.44-16.65H64.89A38.06,38.06,0,0,0,48.69,49.82Zm-.5-22.07A38,38,0,0,0,64.61,38H39.11a36.68,36.68,0,0,1,4.34-16.39A40.38,40.38,0,0,0,48.19,27.75ZM42.44,20A38.22,38.22,0,0,0,38.17,31.4a38.32,38.32,0,0,0-4.26-11.49A40.29,40.29,0,0,0,38.09,8.6,40.26,40.26,0,0,0,42.44,20ZM28.83,27a37.19,37.19,0,0,0,4.08-5.4A36.49,36.49,0,0,1,37.2,38H11.07A38.58,38.58,0,0,0,28.83,27Zm.91,24.9a38.51,38.51,0,0,0-19-12.16H37.19a36.74,36.74,0,0,1-4.37,16.35A38,38,0,0,0,29.74,51.89Zm4.08,5.87a38.49,38.49,0,0,0,4.31-11.47A38.73,38.73,0,0,0,42.54,58,42,42,0,0,0,38,69.09,39.38,39.38,0,0,0,33.82,57.76Z"/></g></g></svg>