<svg xmlns="http://www.w3.org/2000/svg" viewBox="0 0 75.92 76.09"><defs><style>.cls-1{fill:#2d110f;}</style></defs><g id="Layer_2" data-name="Layer 2"><g id="Laag_1" data-name="Laag 1"><path class="cls-1" d="M0,38.85l.81,0c6.85,0,17,3.37,25,11.08A35.65,35.65,0,0,1,37.08,76.09h1.69c0-17.77,14.2-37,37.15-37.15V37.25A38.21,38.21,0,0,1,51,27.58C39.79,17.39,38.8,3.9,38.77,0H37.08C37,4.11,35.91,18.3,23.88,28.45a37.56,37.56,0,0,1-23,8.69l-.86,0Zm27,9.84a42.6,42.6,0,0,0-6.56-5.14,36.73,36.73,0,0,1,16.65-4.44V64.89A38,38,0,0,0,27,48.69Zm22.07-.5A38.21,38.21,0,0,0,38.82,64.61V39.11a36.68,36.68,0,0,1,16.39,4.34A40.38,40.38,0,0,0,49.11,48.19Zm7.77-5.75a38.43,38.43,0,0,0-11.41-4.27A38.32,38.32,0,0,0,57,33.91a40.17,40.17,0,0,0,11.31,4.18A40,40,0,0,0,56.88,42.44Zm-7-13.61a37.19,37.19,0,0,0,5.4,4.08A36.46,36.46,0,0,1,38.82,37.2V11.07A38.58,38.58,0,0,0,49.87,28.83ZM25,29.74a38.44,38.44,0,0,0,12.16-19V37.19a36.81,36.81,0,0,1-16.35-4.37A37.07,37.07,0,0,0,25,29.74ZM19.1,33.82a38.59,38.59,0,0,0,11.47,4.31,38.73,38.73,0,0,0-11.75,4.41A42,42,0,0,0,7.78,38,39.43,39.43,0,0,0,19.1,33.82Z"/></g></g></svg>